<svg xmlns="http://www.w3.org/2000/svg" fill="none" viewBox="0 0 1024 1024" height="1024" width="1024">
<rect fill="white" height="1024" width="1024"></rect>
<path fill="#311728" d="M148.192 442.259C153.599 438.943 159.875 438.075 166.071 437.72C153.52 449.679 138.167 458.915 121.708 464.361C124.984 451.889 138.246 448.021 148.192 442.259Z"></path>
<path fill="#442031" d="M598.372 352.31C629.67 347.337 660.495 337.43 692.544 338.891C682.361 344.258 671.231 347.416 659.746 348.087C641.708 349.508 624.184 353.849 606.66 357.994C591.11 360.875 575.48 363.717 559.613 363.48C571.178 355.941 585.071 354.52 598.372 352.31Z"></path>
<path fill="#442031" d="M832.5 365.651C850.458 368.769 868.022 375.873 882.665 386.766C887.677 390.042 886.967 396.515 888.427 401.646C877.455 396.91 868.693 388.582 858.115 383.214C848.919 378.399 838.618 374.57 832.5 365.651Z"></path>
<path fill="#442031" d="M108.881 389.529C121.906 374.018 144.679 371.334 163.743 369.479C155.454 374.57 146.455 378.241 137.693 382.464C144.6 385.7 154.388 385.345 158.612 392.686C155.494 403.303 143.693 406.737 133.786 405.356C139.114 400.343 144.916 395.923 150.718 391.542C136.864 389.331 122.853 390.2 108.881 389.529Z"></path>
<path fill="#442031" d="M130.391 427.577C135.207 414.513 151.389 415.815 162.716 414.039C158.651 427.38 141.679 426.353 130.391 427.577Z"></path>
<path fill="#442031" d="M138.838 483.583C141.956 468.19 160.151 460.573 174.478 459.941C164.927 470.795 152.06 478.136 138.838 483.583Z"></path>
<path fill="#442031" d="M804.99 459.152C810.476 460.375 816.436 460.809 821.488 463.651C827.685 470.716 829.579 480.228 832.658 488.911C819.515 493.805 802.346 487.175 801.083 471.94C808.779 475.768 816.199 480.031 824.093 483.543C822.001 472.571 812.213 466.533 804.99 459.152Z"></path>
<path fill="#442031" d="M789.834 498.62C804.162 505.33 808.779 522.341 817.541 534.497C804.083 526.643 792.479 514.487 789.834 498.62Z"></path>
<path fill="#442031" d="M223.893 556.324C216.275 547.719 221.485 536.905 227.485 529.287C227.84 536.352 227.84 543.457 227.958 550.64C231.866 547.838 235.773 545.075 239.759 542.431C239.601 547.719 239.444 553.087 239.286 558.455C233.997 558.81 227.09 562.56 223.893 556.324Z"></path>
<path fill="#35152B" d="M846.788 331.313C858.905 325.906 869.088 317.065 881.205 311.658C879.468 317.026 879.744 324.051 873.982 327.129C857.444 339.523 836.566 347.614 815.687 345.64C824.764 338.299 836.447 336.128 846.788 331.313Z"></path>
<path fill="#2F1C2A" d="M180.596 111.748C193.068 93.0401 216.315 82.1073 238.457 81.1995C218.565 90.2773 199.659 101.092 180.596 111.748Z"></path>
<path fill="#2F1C2A" d="M182.017 129.549C187.937 117.037 200.014 105.315 214.894 107.367C204.277 115.222 193.739 123.352 182.017 129.549Z"></path>
<path fill="#CCA49A" d="M238.97 494.871C249.114 483.741 260.007 473.242 271.848 463.927C281.438 478.018 292.845 491.121 307.448 500.278C346.72 525.578 391.596 543.299 438.366 547.483C463.192 549.535 488.294 555.179 513.12 550.324C557.759 541.799 604.371 537.971 645.419 516.816C669.929 504.58 696.254 490.608 708.371 464.559C723.685 475.373 737.539 488.201 749.577 502.607C717.054 534.498 674.034 553.6 630.618 565.559C605.871 573.927 581.914 558.692 557.088 559.797C534.038 559.166 510.475 569.704 496.74 588.372C496.582 607.396 489.754 630.92 505.265 645.839C514.541 656.101 523.184 667.428 535.025 674.927C546.826 682.387 561.193 682.979 574.691 683.926C583.374 686.61 591.899 689.807 600.267 693.438C600.503 694.977 601.016 698.056 601.253 699.595C578.283 695.806 553.378 697.661 532.578 685.623C516.435 676.072 502.345 662.85 491.925 647.26C484.189 636.09 487.149 621.921 487.307 609.291C460.745 606.883 434.301 603.37 408.33 597.45C406.16 588.885 403.318 580.518 400.476 572.23C412.119 573.335 423.802 573.532 435.524 573.453C397.95 563.349 358.916 558.85 322.486 544.878C291.661 533.984 262.059 518.394 238.97 494.871Z"></path>
<path fill="#301929" d="M319.447 128.207C404.936 65.9252 523.5 55.0715 620.04 97.303C638.946 104.763 655.996 115.814 673.402 126.076C678.77 129.628 683.032 122.76 687.177 120.392C716.147 94.027 760.47 87.3567 796.387 102.513C851.445 126.036 870.706 207.105 831.04 252.296C817.779 267.61 797.886 274.083 778.902 278.898C798.676 324.8 814.384 375.281 806.096 425.761C796.505 471.308 763.825 509.198 724.79 533.077C709.99 541.444 694.478 548.43 679.835 557.074C696.531 575.742 708.963 600.016 706.043 625.749C707.108 641.892 698.425 655.824 692.505 670.151C691.992 678.282 694.715 686.136 696.491 693.991C704.78 728.368 705.016 763.929 704.503 799.096C725.777 795.07 747.919 783.269 755.576 761.798C768.877 719.409 760.746 674.454 765.404 630.999C770.337 606.923 776.81 581.347 795.045 563.625C807.596 551.232 819.002 535.761 836.763 530.709C853.064 524.828 870.706 522.933 887.875 525.302C915.385 530.156 930.738 574.006 904.531 590.07C887.204 595.832 867.233 590.267 850.34 598.753C830.606 608.778 817.936 630.959 819.081 653.101C819.239 696.319 831.158 740.919 816.397 783.111C808.227 810.265 785.098 831.736 757.431 837.933C749.221 840.104 741.051 842.275 732.802 844.169C743.183 824.632 724.277 801.898 703.911 801.109C708.49 816.58 714.45 831.579 721.357 846.182L717.923 846.537C710.108 845.235 702.254 843.932 694.439 842.709C687.334 869.705 689.782 901.359 667.837 922.12C636.696 926.264 603.621 931.592 573.349 920.659C561.785 916.949 559.416 904.122 558.035 893.702C555.983 883.756 556.259 870.85 545.8 865.522C528.789 855.536 507.989 854.352 488.768 856.246C478.703 857.786 466.902 860.035 460.784 869.074C455.614 880.638 455.574 893.663 454.351 906.095C446.97 913.081 439.708 921.409 429.17 923.264C403.436 928.474 376.676 927.251 350.982 922.436C358.245 921.646 365.467 920.58 372.729 919.87C382.044 919.12 391.398 918.923 400.713 918.607C400.2 907.24 399.331 895.992 398.503 884.703C402.055 895.834 405.173 907.082 408.291 918.37C415.316 917.62 422.381 916.831 429.446 916.16C430.63 906.608 431.262 897.057 432.446 887.585C434.893 895.991 436.471 904.674 438.958 913.16C452.062 897.412 450.207 875.981 454.982 857.154C471.914 854.273 488.452 848.195 505.818 848.629C520.145 848.195 533.88 852.536 547.536 856.286C561.627 862.127 571.415 846.932 580.138 838.446C572.796 850.366 557.601 860.43 561.666 876.297C563.719 890.466 563.008 909.963 579.546 915.45C581.637 905.424 583.335 895.399 585.308 885.414C585.9 895.478 586.295 905.543 586.61 915.686C596.28 916.989 605.95 918.212 615.699 919.12C617.712 906.53 619.33 893.979 621.659 881.507C622.211 894.058 622.487 906.687 622.961 919.317C630.026 919.081 637.13 918.962 644.235 918.528C654.457 915.489 667.442 913.634 672.731 903.056C678.494 891.531 679.046 878.388 680.98 865.916C672.573 865.561 664.245 865.364 655.878 864.93C648.774 864.417 641.748 863.588 634.723 862.68C655.089 849.537 681.769 841.998 692.465 818.08C667.995 818.83 643.722 821.988 619.251 822.501C639.341 806.99 662.588 796.609 684.256 783.624C687.413 781.69 690.61 779.756 693.847 777.862C694.005 770.521 694.123 763.219 694.281 755.957C685.519 757.733 676.757 759.627 668.113 761.758C653.628 765.547 639.025 768.784 624.303 771.507C618.777 771.389 613.252 771.27 607.766 771.112C635.946 754.654 664.206 738.196 690.729 719.093C689.86 710.133 688.953 701.213 687.927 692.333C666.574 696.398 646.879 705.634 627.776 715.58C631.684 707.844 635.709 700.187 639.696 692.53C629.158 685.9 618.777 679.032 608.634 671.888C597.464 676.269 586.216 680.532 574.691 683.926C561.193 682.979 546.826 682.387 535.025 674.927C523.184 667.428 514.541 656.101 505.265 645.839C489.754 630.92 496.582 607.396 496.74 588.372C510.475 569.704 534.038 559.166 557.088 559.797C581.914 558.692 605.871 573.927 630.618 565.559C674.034 553.6 717.054 534.498 749.577 502.607C737.539 488.201 723.685 475.374 708.371 464.559C679.599 442.378 644.866 431.05 611.397 418.262C648.852 422.998 685.006 438.549 714.765 461.678C728.461 473.321 741.249 485.951 754.589 497.989C767.377 484.649 777.284 468.94 784.23 451.89C764.141 440.128 743.183 428.169 719.383 426.906C706.635 425.406 694.478 421.183 682.125 418.065C662.588 412.895 642.419 410.882 622.645 406.777C625.448 405.948 631.052 404.33 633.815 403.54C653.115 405.356 672.336 408.316 691.084 413.368C703.951 416.447 717.528 421.459 730.671 416.684C751.511 410.171 773.061 406.58 794.847 405.396C795.36 401.804 796.386 394.66 796.9 391.068C769.271 378.675 738.604 378.202 709.398 372.281C726.448 359.73 747.208 354.402 767.653 350.297C775.586 348.482 783.48 346.587 791.413 344.732C789.085 334.786 786.677 324.879 784.151 315.052C775.31 315.407 766.469 315.92 757.628 316.63C740.262 318.091 722.777 319.749 705.372 317.854C714.173 303.882 727.079 293.462 739.946 283.477C747.603 276.925 756.523 270.886 760.904 261.493C761.338 253.638 756.878 246.613 753.76 239.745C736.947 207.855 715.357 178.687 692.229 151.178C667.087 126.115 633.539 111.156 600.543 99.3157C608.95 110.88 617.672 122.286 627.618 132.627C604.569 119.879 578.677 109.617 551.996 116.485C574.138 126.352 598.096 135.232 613.212 155.401C593.794 147.981 574.296 139.258 553.141 138.863C538.143 137.798 523.855 143.205 509.962 148.06C509.568 125.799 511.738 103.342 520.698 82.739C503.213 82.1075 485.728 82.068 468.323 83.6467C477.677 103.894 485.136 125.562 483.558 148.257C459.955 144.073 435.919 138.508 411.882 142.218C397.674 145.139 386.938 155.716 375.019 163.216C388.754 131.917 423.171 117.629 455.574 116.406C425.223 95.9214 389.267 114.945 359.31 126.391C370.243 117.748 380.821 108.709 391.24 99.5525C353.074 110.288 319.526 133.614 293.437 163.216L291.029 161.242C279.781 150.625 264.506 146.363 249.429 145.1C230.761 146.481 211.816 160.413 210.592 180.108C207.829 202.487 221.091 222.655 235.694 238.246C234.115 242.469 232.774 246.771 231.432 251.152C224.288 229.089 205.422 211.486 204.514 187.449C204.948 166.491 219.512 143.718 241.694 141.429C261.27 138.39 279.899 146.56 297.265 154.493C303.344 148.494 309.382 142.495 315.342 136.456C296.989 125.681 277.334 115.301 255.705 114.038C239.523 113.722 224.248 119.958 208.895 124.102C222.196 113.051 239.207 105.197 256.849 106.578C279.386 107.565 299.397 119.05 319.447 128.207ZM687.927 136.377C692.387 143.6 697.123 150.744 702.096 157.73C719.344 143.284 742.354 127.457 765.759 136.732C789.124 144.35 799.623 172.491 793.189 194.909C788.808 213.499 771.955 224.747 760.312 238.64C762.483 242.587 764.693 246.573 766.943 250.599C786.598 240.258 808.385 229.168 819.357 208.881C834.474 170.596 810.437 122.879 771.048 111.433C741.288 101.644 709.792 116.327 687.927 136.377ZM736.434 141.863C725.817 146.757 715.673 153.033 709.279 163.137C722.501 181.095 734.657 200.079 750.445 216.025C752.616 221.55 755.339 226.879 758.062 232.246C770.613 223.445 782.336 212.315 787.743 197.632C794.887 181.45 790.269 160.492 776.968 148.928C765.68 139.219 750.129 140.995 736.434 141.863ZM826.659 541.523C835.5 558.455 843.67 575.743 853.142 592.359C858.431 588.451 867.785 586.557 866.799 578.189C866.68 561.218 860.878 544.957 856.774 528.656C846.157 531.498 835.934 535.682 826.659 541.523ZM538.538 567.533C522.868 571.124 510.239 581.9 499.858 593.74C505.384 599.503 510.988 605.226 516.79 610.83C510.83 615.803 504.831 620.658 498.911 625.71C504.358 631.67 509.173 640.313 518.29 640.629C538.143 642.168 558.035 629.815 577.454 639.011C570.981 639.366 564.547 639.642 558.114 639.84C544.931 642.366 532.262 646.826 519.869 651.956C522.987 655.667 526.105 659.456 529.262 663.323C550.418 681.716 583.492 679.979 605.713 664.35C607.568 662.534 609.502 660.797 611.436 659.061C618.935 667.152 626.158 676.782 637.288 679.979C649.76 684.676 662.114 676.664 671.705 669.402C687.098 657.443 700.596 637.827 694.399 617.54C670.955 604.752 644.906 597.766 621.659 584.583C596.596 571.125 567.192 560.113 538.538 567.533ZM618.659 574.953C642.853 588.017 671.152 589.517 696.097 600.884C692.031 592.477 690.176 581.387 680.506 577.598C672.415 573.453 664.482 568.677 655.72 566.27C642.972 567.138 630.736 571.125 618.659 574.953ZM784.704 585.531C796.189 597.529 807.359 609.804 818.094 622.513C823.778 615.369 829.461 608.225 835.224 601.16C824.804 587.701 813.358 575.032 801.162 563.231C794.808 569.941 789.282 577.439 784.704 585.531ZM773.85 622.355C770.1 645.484 770.258 669.007 771.324 692.412C785.138 690.636 798.715 687.439 812.056 683.452C812.174 668.375 812.214 653.299 812.411 638.261C799.544 632.933 786.756 627.525 773.85 622.355ZM770.574 712.344C769.311 723.75 767.298 735.275 767.969 746.839C781.467 756.825 797.057 763.692 810.95 773.244C814.937 760.693 816.16 747.55 815.766 734.486C801.399 725.763 786.322 718.224 770.574 712.344ZM756.286 775.454C768.758 785.992 780.441 797.478 791.295 809.713C795.518 804.148 801.202 798.977 801.952 791.676C793.742 776.757 779.06 767.284 765.798 757.417C762.562 763.377 759.404 769.376 756.286 775.454ZM733.039 794.675C741.999 807.226 750.761 819.896 759.207 832.802C764.298 830.513 769.35 828.263 774.442 826.053C772.547 809.515 763.627 795.07 750.761 784.769C744.84 788.005 738.92 791.321 733.039 794.675Z"></path>
<path fill="#301929" d="M106 328.234C117.328 332.141 127.826 338.022 139.312 341.535C150.323 345.245 162.717 346.982 171.242 355.665C152.534 355.704 133.51 351.718 116.854 343.193C110.578 340.469 108.052 334.194 106 328.234Z"></path>
<path fill="#F3EAE6" d="M404.265 338.338C418 335.062 432.13 333.602 446.023 330.918C476.572 327.287 508.66 323.853 538.301 334.312C509.646 334.707 481.268 339.364 452.614 339.562L448.983 339.206C449.18 341.417 449.575 345.916 449.772 348.126C438.129 335.299 419.816 337.983 404.265 338.338Z"></path>
<path fill="#F3EAE6" d="M281.794 701.726C289.609 683.373 296.476 664.271 308.317 648.089C307.843 650.891 306.856 656.535 306.383 659.337C292.963 687.36 283.294 716.961 271.177 745.537C269.203 730.065 276.465 715.738 281.794 701.726Z"></path>
<path fill="#F4ECE9" d="M352.324 388.305C361.954 387.832 371.664 387.555 381.334 387.477C380.347 395.804 379.478 404.527 383.189 412.46C393.963 429.274 398.818 451.021 415.276 463.533C435.011 472.176 457.311 467.914 478.111 467.44C503.844 465.19 530.486 469.808 555.469 461.915C573.625 456.271 578.203 435.826 585.702 420.788C590.044 418.933 594.425 417.078 598.767 415.302C602.95 416.249 607.173 417.236 611.396 418.262C644.866 431.05 679.598 442.378 708.371 464.559C696.254 490.608 669.929 504.58 645.419 516.816C604.371 537.971 557.758 541.799 513.119 550.324C488.294 555.179 463.191 549.535 438.366 547.483C391.595 543.299 346.719 525.578 307.448 500.278C292.845 491.121 281.438 478.018 271.847 463.927C290.003 449.166 309.461 436.102 329.708 424.419C329.787 436.773 329.353 449.324 332.432 461.441C337.247 445.456 331.366 423.038 347.43 412.697C354.613 409.027 361.954 405.593 369.059 401.725C361.481 402.001 353.903 402.554 346.364 403.225C348.338 398.212 350.311 393.239 352.324 388.305Z"></path>
<path fill="#E4894A" d="M551.996 116.485C578.677 109.617 604.569 119.879 627.618 132.627C643.011 140.758 659.272 147.586 673.086 158.44C698.031 178.766 714.015 208.21 723.212 238.68C720.212 245.587 717.449 252.652 713.818 259.282C700.478 271.281 683.309 277.833 665.39 278.03C655.996 261.69 647.59 241.758 628.881 234.259C610.726 228.142 589.018 231.694 574.533 244.482C564.389 253.599 560.995 267.413 556.93 279.885C556.062 277.596 554.404 272.978 553.536 270.689C559.89 246.297 573.309 224.866 583.69 202.211C582.545 200.948 580.256 198.461 579.111 197.238C574.533 192.422 570.034 187.647 565.416 182.989C567.271 182.95 571.02 182.911 572.875 182.871C566.837 174.741 560.758 166.176 551.917 160.966C540.827 154.098 527.447 153.783 514.896 152.48C514.501 158.085 514.185 163.729 513.87 169.412L510.396 169.136C509.962 162.11 509.883 155.046 509.962 148.06C523.855 143.205 538.143 137.798 553.141 138.863C574.296 139.258 593.794 147.981 613.212 155.401C598.096 135.232 574.138 126.352 551.996 116.485Z"></path>
<path fill="#E59250" d="M468.323 83.6466C485.728 82.0679 503.213 82.1074 520.698 82.7389C511.738 103.342 509.567 125.799 509.962 148.06C509.883 155.046 509.962 162.11 510.396 169.136L513.87 169.412C531.946 169.373 550.062 172.964 565.416 182.989C570.033 187.647 574.533 192.422 579.111 197.237C567.586 214.525 556.259 232.68 551.562 253.204C549.904 259.046 551.759 265.045 553.536 270.689C554.404 272.978 556.062 277.596 556.93 279.885C557.838 290.068 556.654 300.803 560.206 310.592C564.429 315.801 569.836 319.867 574.888 324.327C568.692 330.957 560.64 335.181 552.628 339.206C543.55 331.352 532.933 324.642 520.579 324.208C495.714 323.064 469.349 320.143 446.023 330.918C432.13 333.602 418 335.062 404.265 338.338C402.686 339.127 399.608 340.667 398.068 341.417C390.569 340.825 383.11 339.601 375.65 340.114C364.717 341.89 354.653 348.205 343.286 347.1C325.801 346.034 308.317 343.706 290.793 345.561C311.119 352.231 332.669 353.968 353.114 360.48C350.509 367.979 347.943 375.557 345.378 383.135C327.854 382.385 310.211 384.714 292.726 382.78C280.728 378.043 271.808 368.137 261.428 360.796C246.667 348.718 228.985 340.588 215.052 327.563C214.618 320.419 216.078 313.354 217.065 306.368C243.035 312.881 269.085 319.669 295.963 321.209C275.321 300.132 254.56 279.175 234.234 257.822C244.969 232.957 257.599 208.762 274.571 187.528C288.03 185.279 298.489 176.438 307.014 166.334C321.499 149.559 339.576 136.298 359.31 126.391C389.267 114.945 425.223 95.9213 455.574 116.406C423.171 117.629 388.754 131.917 375.019 163.215C386.938 155.716 397.674 145.139 411.882 142.218C435.919 138.508 459.955 144.073 483.558 148.257C485.136 125.562 477.677 103.894 468.323 83.6466ZM402.213 194.317C422.973 182.989 445.904 177.424 469.23 174.464C478.387 175.096 478.782 164.873 480.953 158.558C451.035 155.243 415.829 164.991 402.213 194.317ZM356.389 231.891C337.997 239.982 328.761 258.611 321.065 275.977C310.487 274.044 299.87 272.346 289.253 270.807C289.924 273.057 291.187 277.556 291.819 279.806C302.238 283.635 313.369 284.384 324.38 283.516C327.104 294.725 326.827 308.934 337.208 316.393C346.799 322.629 357.929 327.682 369.572 328.155C384.452 335.496 400.515 327.484 413.303 319.59C422.144 310.355 426.249 295.633 422.144 283.358C421.158 270.097 423.881 254.586 413.422 244.245C400.673 226.8 375.256 220.998 356.389 231.891Z"></path>
<path fill="#DEBA97" d="M293.437 163.215C319.526 133.614 353.074 110.288 391.24 99.5523C380.82 108.709 370.243 117.748 359.31 126.391C339.576 136.298 321.499 149.559 307.014 166.334C298.489 176.438 288.03 185.278 274.571 187.528C280.57 179.2 286.609 170.872 293.437 163.215Z"></path>
<path fill="#CE663D" d="M600.543 99.3156C633.538 111.156 667.087 126.115 692.228 151.178C715.357 178.687 736.946 207.855 753.76 239.745C756.878 246.613 761.338 253.638 760.904 261.493C756.523 270.886 747.603 276.925 739.946 283.477C743.025 278.385 745.866 273.215 748.708 268.084C737.539 260.94 726.29 252.336 723.211 238.68C714.015 208.21 698.03 178.766 673.086 158.44C659.272 147.586 643.011 140.758 627.618 132.627C617.672 122.286 608.949 110.88 600.543 99.3156Z"></path>
<path fill="#D16E3F" d="M687.926 136.377C709.792 116.327 741.288 101.644 771.047 111.432C810.437 122.878 834.474 170.596 819.357 208.881C808.385 229.168 786.598 240.258 766.943 250.599C764.693 246.573 762.483 242.587 760.312 238.64C771.955 224.747 788.808 213.499 793.189 194.909C799.623 172.491 789.124 144.349 765.759 136.732C742.354 127.457 719.343 143.284 702.096 157.729C697.123 150.743 692.386 143.599 687.926 136.377Z"></path>
<path fill="#D97B42" d="M208.895 124.102C224.248 119.958 239.522 113.722 255.705 114.038C277.333 115.301 296.989 125.681 315.342 136.456C309.382 142.494 303.343 148.494 297.265 154.493C279.899 146.56 261.27 138.39 241.693 141.429C219.512 143.718 204.948 166.491 204.514 187.449C205.421 211.486 224.288 229.089 231.431 251.152C200.291 247.363 191.45 213.696 173.807 193.172C178.741 176.793 182.688 160.177 187.069 143.679C191.134 134.522 200.172 128.365 208.895 124.102Z"></path>
<path fill="#DBBDBD" d="M736.433 141.863C750.129 140.994 765.68 139.218 776.968 148.928C790.269 160.492 794.887 181.45 787.743 197.632C782.336 212.314 770.613 223.445 758.062 232.246C755.339 226.878 752.616 221.55 750.445 216.024C745.314 201.539 738.407 187.804 733.039 173.477C728.974 162.979 734.342 152.125 736.433 141.863Z"></path>
<path fill="#C4A298" d="M171.913 154.848C175.031 149.204 182.017 147.191 187.069 143.679C182.688 160.176 178.741 176.793 173.807 193.172C171.557 191.396 167.018 187.804 164.729 186.028C166.861 175.569 169.031 165.11 171.913 154.848Z"></path>
<path fill="#C98C8E" d="M709.279 163.136C715.673 153.032 725.816 146.757 736.433 141.863C734.342 152.125 728.974 162.979 733.039 173.477C738.407 187.804 745.314 201.539 750.445 216.024C734.657 200.079 722.501 181.095 709.279 163.136Z"></path>
<path fill="#EFE2E0" d="M210.592 180.108C211.815 160.413 230.76 146.481 249.429 145.099C244.022 151.375 238.496 157.65 233.01 163.887C243.548 164.242 254.126 164.597 264.743 164.992C264.23 174.425 263.835 183.897 263.085 193.37C253.376 207.933 243.825 222.695 235.694 238.245C221.091 222.655 207.829 202.487 210.592 180.108Z"></path>
<path fill="#D2A8A8" d="M249.429 145.099C264.506 146.362 279.781 150.625 291.029 161.242C281.675 171.938 272.202 182.476 263.085 193.37C263.835 183.897 264.23 174.425 264.743 164.992C254.126 164.597 243.548 164.242 233.01 163.887C238.496 157.65 244.022 151.375 249.429 145.099Z"></path>
<path fill="#301A2B" d="M514.896 152.48C527.447 153.782 540.826 154.098 551.917 160.966C560.758 166.176 566.836 174.74 572.875 182.871C571.02 182.91 567.27 182.95 565.415 182.989C550.062 172.964 531.946 169.372 513.869 169.412C514.185 163.728 514.501 158.084 514.896 152.48Z"></path>
<path fill="#36172F" d="M171.913 154.848C169.032 165.11 166.861 175.569 164.729 186.028C167.019 187.805 171.557 191.396 173.807 193.172C191.45 213.696 200.291 247.363 231.432 251.152C232.773 246.771 234.115 242.469 235.694 238.245C243.825 222.695 253.376 207.934 263.085 193.37C272.203 182.476 281.675 171.938 291.029 161.242L293.437 163.215C286.609 170.872 280.57 179.2 274.571 187.528C257.599 208.762 244.969 232.957 234.234 257.822C254.56 279.175 275.321 300.132 295.963 321.209C269.085 319.669 243.035 312.881 217.065 306.368C216.078 313.354 214.618 320.419 215.052 327.563C228.984 340.588 246.666 348.718 261.428 360.796C271.808 368.137 280.728 378.044 292.726 382.78C310.211 384.714 327.854 382.385 345.378 383.135C325.012 388.108 303.738 387.595 283.412 382.622C276.742 377.728 269.677 372.242 260.954 372.4C241.022 371.492 221.249 374.649 201.672 377.846C203.724 385.937 200.37 399.949 211.5 402.08C233.76 406.303 256.021 411.316 278.715 412.894C280.57 413.565 284.28 414.868 286.135 415.539C274.294 419.644 262.414 423.551 250.771 428.09C236.089 434.247 223.261 443.798 210.474 453.074C215.723 464.322 221.328 475.374 226.656 486.583C225.117 486.977 222.077 487.727 220.578 488.122C200.33 466.532 189.082 437.602 184.858 408.632C184.109 365.374 198.949 323.774 216.907 284.977C189.871 270.452 157.388 252.573 151.271 219.616C151.547 207.973 152.376 196.409 152.731 184.805C158.414 174.385 165.045 164.518 171.913 154.848Z"></path>
<path fill="#311627" d="M402.212 194.317C415.829 164.991 451.035 155.243 480.953 158.558C478.782 164.873 478.387 175.096 469.23 174.464C445.904 177.424 422.973 182.989 402.212 194.317Z"></path>
<path fill="#9C5239" d="M579.111 197.237C580.256 198.461 582.545 200.947 583.689 202.21C573.309 224.865 559.89 246.297 553.535 270.689C551.759 265.045 549.904 259.046 551.562 253.204C556.259 232.68 567.586 214.525 579.111 197.237Z"></path>
<path fill="#2C151A" d="M356.389 231.891C375.255 220.997 400.673 226.799 413.421 244.245C423.881 254.585 421.157 270.096 422.144 283.358C421.631 281.779 420.605 278.661 420.092 277.083C415.711 262.4 410.343 245.073 394.161 239.627C363.454 227.786 327.301 257.269 333.261 289.949C329.985 315.012 358.639 321.09 376.479 327.997C374.742 328.036 371.308 328.116 369.572 328.155C357.929 327.681 346.798 322.629 337.207 316.393C326.827 308.934 327.103 294.725 324.38 283.516C313.368 284.384 302.238 283.634 291.818 279.806C291.187 277.556 289.924 273.057 289.253 270.807C299.87 272.346 310.487 274.043 321.065 275.977C328.761 258.611 337.997 239.982 356.389 231.891Z"></path>
<path fill="#3F2134" d="M574.533 244.481C589.018 231.694 610.726 228.141 628.881 234.259C647.589 241.758 655.996 261.69 665.39 278.03C683.309 277.832 700.477 271.281 713.818 259.282C705.608 279.017 683.94 285.095 664.521 287.187C661.285 296.896 658.798 306.96 653.983 316.078C631.17 323.143 604.963 320.774 585.347 336.68C583.255 336.246 579.072 335.299 576.98 334.825C583.65 330.642 590.241 326.261 597.069 322.274C614.751 317.143 632.749 313.433 650.707 309.328C656.509 288.015 653.786 261.848 634.486 248.192C612.225 229.878 567.863 243.061 569.52 275.109C577.809 272.386 585.821 268.834 593.793 265.282C603.148 283.556 596.99 304.04 584.637 319.156C581.361 320.814 578.085 322.511 574.888 324.327C569.836 319.867 564.429 315.801 560.206 310.591C556.653 300.803 557.838 290.068 556.93 279.885C560.995 267.413 564.389 253.599 574.533 244.481Z"></path>
<path fill="#F7F1EE" d="M333.261 289.949C327.301 257.269 363.454 227.786 394.161 239.627C410.343 245.073 415.711 262.4 420.092 277.083C411.527 270.215 401.66 260.861 389.662 264.453C381.176 270.768 376.361 282.056 378.216 292.594C380.426 305.461 388.32 316.275 394.516 327.523C388.478 327.681 382.439 327.839 376.479 327.997C358.639 321.09 329.985 315.012 333.261 289.949Z"></path>
<path fill="#F2EAEA" d="M569.52 275.109C567.863 243.061 612.225 229.878 634.486 248.191C653.786 261.848 656.509 288.015 650.707 309.328C632.749 313.433 614.752 317.143 597.07 322.274C592.886 321.248 588.742 320.222 584.637 319.156C596.991 304.04 603.148 283.555 593.794 265.281C585.821 268.834 577.809 272.386 569.52 275.109Z"></path>
<path fill="#DF8145" d="M723.211 238.679C726.29 252.336 737.539 260.94 748.708 268.084C745.866 273.215 743.025 278.385 739.946 283.477C727.079 293.462 714.173 303.882 705.371 317.854C722.777 319.748 740.262 318.09 757.628 316.63C764.062 317.104 770.495 317.933 776.928 318.722C777.52 330.089 775.349 341.495 767.653 350.297C747.208 354.402 726.448 359.73 709.397 372.281C738.604 378.201 769.271 378.675 796.899 391.068C796.386 394.66 795.36 401.804 794.847 405.395C773.06 406.579 751.51 410.171 730.671 416.683C717.528 421.459 703.951 416.446 691.084 413.368C672.336 408.316 653.115 405.356 633.815 403.54C631.447 403.264 626.671 402.712 624.303 402.435C623.079 396.239 621.895 390.082 620.751 383.964C651.694 382.188 681.769 390.555 712.476 392.213C682.914 374.136 646.247 380.727 613.528 373.82C611.791 369.834 608.358 361.94 606.66 357.993C624.184 353.849 641.708 349.508 659.746 348.087C671.231 347.416 682.361 344.258 692.544 338.891C660.496 337.43 629.671 347.337 598.372 352.31C594.978 347.85 591.544 343.43 587.952 339.246L585.347 336.68C604.963 320.774 631.17 323.143 653.983 316.078C658.798 306.96 661.285 296.896 664.521 287.187C683.94 285.095 705.608 279.017 713.818 259.282C717.449 252.651 720.212 245.586 723.211 238.679Z"></path>
<path fill="#421B2C" d="M389.662 264.453C401.66 260.861 411.527 270.215 420.092 277.083C420.605 278.661 421.631 281.779 422.144 283.358C426.249 295.633 422.144 310.355 413.303 319.59C400.515 327.484 384.452 335.496 369.572 328.155C371.309 328.116 374.742 328.037 376.479 327.997C382.439 327.839 388.478 327.681 394.516 327.523C388.32 316.275 380.426 305.461 378.216 292.594C376.361 282.056 381.176 270.768 389.662 264.453ZM384.057 284.503C389.898 284.226 395.74 283.99 401.621 283.753C401.739 277.438 404.265 266.86 394.635 267.097C384.846 265.439 383.386 277.28 384.057 284.503Z"></path>
<path fill="#EDE6E4" d="M384.057 284.503C383.386 277.28 384.846 265.439 394.634 267.097C404.265 266.86 401.739 277.438 401.62 283.753C395.739 283.99 389.898 284.227 384.057 284.503Z"></path>
<path fill="#A75237" d="M757.628 316.63C766.469 315.92 775.31 315.407 784.151 315.052C786.677 324.879 789.085 334.786 791.413 344.732C783.48 346.587 775.586 348.481 767.653 350.297C775.35 341.496 777.52 330.089 776.928 318.722C770.495 317.933 764.062 317.104 757.628 316.63Z"></path>
<path fill="#CFA49A" d="M574.888 324.326C578.085 322.511 581.361 320.814 584.637 319.156C588.741 320.222 592.886 321.248 597.069 322.274C590.241 326.261 583.65 330.642 576.98 334.825C579.072 335.299 583.255 336.246 585.347 336.68L587.952 339.246C574.612 340.232 561.311 341.574 548.049 343.429C549.194 342.364 551.483 340.232 552.628 339.206C560.64 335.18 568.691 330.957 574.888 324.326Z"></path>
<path fill="#3D162A" d="M446.023 330.918C469.349 320.143 495.714 323.064 520.579 324.208C532.933 324.643 543.55 331.352 552.628 339.206C551.483 340.233 549.194 342.364 548.049 343.43C534.472 358.98 514.856 366.637 495.793 373.071C495.714 380.728 495.082 388.463 496.503 396.12C501.91 403.343 509.015 409.224 516.869 413.723C535.696 424.893 559.377 426.077 579.624 418.223C581.164 418.854 584.203 420.157 585.703 420.788C578.203 435.826 573.625 456.271 555.469 461.915C530.486 469.808 503.844 465.19 478.111 467.44C457.311 467.914 435.011 472.176 415.277 463.533C398.818 451.021 393.964 429.274 383.189 412.46C383.741 410.368 384.807 406.264 385.359 404.172C403.87 423.748 432.722 420.315 456.64 415.776C475.151 411.632 497.056 395.134 490.78 373.781C477.519 364.545 461.771 359.257 449.772 348.126C449.575 345.916 449.18 341.417 448.983 339.206L452.614 339.562C462.363 348.916 472.98 358.625 486.912 360.954C509.37 366.203 531.236 352.863 545.602 336.562C543.787 335.97 540.156 334.865 538.301 334.312C508.66 323.853 476.572 327.287 446.023 330.918ZM415.632 429.748C413.422 439.378 412.08 450.942 420.092 458.481C429.17 466.651 442.076 464.125 452.969 462.112C453.798 451.771 454.153 441.273 451.075 431.326L451.469 427.143C448.391 427.379 442.273 427.853 439.195 428.09C431.301 428.485 423.447 429.037 415.632 429.748ZM527.802 461.954C536.682 461.165 545.957 460.533 554.167 456.547C563.166 451.495 565.139 440.523 567.784 431.484C556.417 431.011 545.01 430.103 533.643 431.168C524.526 438.391 528.986 451.889 527.802 461.954ZM476.611 446.443C474.716 451.258 473.059 456.192 471.677 461.244C485.255 462.23 498.99 462.23 512.449 459.665C512.409 456.902 512.33 451.376 512.251 448.614C501.082 444.588 487.623 438.825 476.611 446.443Z"></path>
<path fill="#B9605A" d="M538.301 334.312C540.156 334.865 543.787 335.97 545.602 336.562C531.236 352.863 509.37 366.203 486.912 360.954C472.98 358.625 462.363 348.916 452.614 339.562C481.268 339.364 509.646 334.707 538.301 334.312Z"></path>
<path fill="#543141" d="M343.286 347.1C354.653 348.205 364.717 341.89 375.65 340.114C383.11 339.601 390.569 340.825 398.068 341.417C401.305 344.456 404.581 347.574 407.856 350.692C394.042 352.862 380.386 355.862 367.046 360.125C383.702 365.058 401.423 367.071 416.855 375.557C397.2 376.347 377.702 373.584 358.244 371.373C357.652 373.544 356.547 377.886 355.955 380.056C367.598 381.359 379.281 382.503 390.885 384.043C389.03 390.713 387.135 397.423 385.359 404.172C384.807 406.264 383.741 410.368 383.189 412.46C379.478 404.527 380.347 395.804 381.334 387.477C371.664 387.555 361.954 387.832 352.324 388.305C350.311 393.239 348.338 398.212 346.364 403.224C353.903 402.554 361.481 402.001 369.059 401.725C361.954 405.593 354.613 409.026 347.43 412.697C346.088 407.566 344.825 402.435 343.522 397.383C343.088 395.844 342.22 392.726 341.746 391.187C315.618 388.621 289.727 394.226 263.796 396.396C270.269 391.66 276.82 387.121 283.412 382.622C303.738 387.595 325.012 388.108 345.377 383.135C347.943 375.557 350.508 367.979 353.113 360.48C332.669 353.968 311.119 352.231 290.792 345.561C308.316 343.706 325.801 346.034 343.286 347.1Z"></path>
<path fill="#F2EDEB" d="M398.068 341.416C399.607 340.666 402.686 339.127 404.265 338.338C419.815 337.982 438.129 335.299 449.772 348.126C461.771 359.256 477.519 364.545 490.78 373.781C497.056 395.133 475.151 411.631 456.64 415.776C432.722 420.314 403.87 423.748 385.359 404.172C387.135 397.423 389.03 390.713 390.885 384.043C379.281 382.503 367.598 381.359 355.955 380.056C356.547 377.885 357.652 373.544 358.244 371.373C377.702 373.583 397.2 376.346 416.855 375.557C401.423 367.071 383.702 365.058 367.046 360.125C380.386 355.862 394.042 352.862 407.856 350.691C404.581 347.573 401.305 344.455 398.068 341.416Z"></path>
<path fill="#F2EEED" d="M548.049 343.43C561.311 341.574 574.612 340.233 587.952 339.246C591.544 343.43 594.978 347.85 598.372 352.31C585.071 354.52 571.178 355.941 559.614 363.48C575.48 363.716 591.11 360.875 606.66 357.993C608.357 361.94 611.791 369.834 613.528 373.82C595.333 375.873 576.388 375.873 559.258 383.096C578.559 385.148 597.938 382.306 617.238 383.924C605.239 389.45 592.767 393.792 580.295 398.133C578.638 398.962 575.322 400.62 573.664 401.449C560.324 419.723 536.327 414.552 516.869 413.723C509.015 409.224 501.91 403.343 496.503 396.12C495.082 388.463 495.714 380.727 495.793 373.071C514.856 366.637 534.472 358.98 548.049 343.43Z"></path>
<path fill="#5E363F" d="M613.528 373.821C646.247 380.728 682.914 374.136 712.476 392.213C681.769 390.555 651.694 382.188 620.751 383.964L617.238 383.925C597.938 382.306 578.559 385.148 559.258 383.096C576.388 375.873 595.333 375.873 613.528 373.821Z"></path>
<path fill="#E08B52" d="M201.672 377.846C221.248 374.649 241.022 371.492 260.954 372.399C269.677 372.241 276.741 377.728 283.412 382.622C276.82 387.121 270.269 391.66 263.796 396.396C289.727 394.226 315.618 388.621 341.746 391.186C342.22 392.726 343.088 395.844 343.522 397.383C321.499 400.659 299.594 405.04 278.715 412.894C256.02 411.315 233.76 406.303 211.5 402.08C200.37 399.949 203.724 385.937 201.672 377.846Z"></path>
<path fill="#DDCCCC" d="M617.238 383.925L620.751 383.964C621.895 390.082 623.079 396.239 624.303 402.435C609.621 400.936 594.978 399.317 580.295 398.133C592.767 393.792 605.239 389.45 617.238 383.925Z"></path>
<path fill="#582739" d="M826.343 389.529C839.881 391.463 860.996 391.266 865.22 407.369C854.287 406.461 843.67 403.896 833.013 401.527C842.367 410.368 853.695 417.236 861.786 427.419C868.417 435.628 867.233 446.719 867.864 456.586C850.814 458.007 836.013 447.627 824.764 435.905C837.118 437.326 847.735 444.035 858.944 448.772C862.378 430.616 844.854 421.893 833.25 412.381C825.475 407.329 827.567 397.304 826.343 389.529Z"></path>
<path fill="#351829" d="M278.715 412.894C299.594 405.04 321.499 400.659 343.523 397.383C344.825 402.435 346.088 407.566 347.43 412.697C331.366 423.038 337.247 445.456 332.432 461.441C329.353 449.324 329.787 436.773 329.709 424.419C309.461 436.102 290.003 449.166 271.847 463.927C260.007 473.242 249.113 483.741 238.97 494.871C262.059 518.394 291.661 533.984 322.486 544.878C358.915 558.85 397.95 563.349 435.524 573.453C423.802 573.532 412.119 573.335 400.476 572.23C379.715 569.467 359.507 563.586 338.707 560.823C353.429 586.873 376.834 606.765 390.609 633.485C368.23 627.446 346.641 618.921 325.209 610.159C326.709 623.539 322.88 640.589 334.997 650.18C353.863 666.007 378.018 674.335 395.661 691.899C369.375 690.32 343.72 683.058 317.315 682.9C324.617 725.013 367.677 742.971 396.687 768.271C369.098 769.376 342.852 760.219 316.96 752.088C318.578 764.205 315.026 780.506 327.419 788.005C349.285 802.174 375.019 809.515 396.016 825.303C371.861 825.263 347.233 825.145 324.262 833.71C334.879 850.286 352.561 859.246 368.625 869.547C356.587 872.586 344.312 869.903 332.432 867.377C334.761 882.098 334.721 898.004 342.378 911.266C349.285 914.897 357.021 916.476 364.48 918.686C365.151 907.595 365.625 896.544 366.178 885.532C368.427 896.938 370.401 908.424 372.729 919.87C365.467 920.58 358.244 921.646 350.982 922.435C345.417 921.488 339.931 920.304 334.524 918.962C329.116 899.149 327.814 878.586 324.933 858.378C324.065 853.957 323.038 849.616 321.815 845.353C317.631 831.973 314.513 818.278 311.04 804.74C292.805 799.175 272.558 791.083 264.388 772.336C257.639 746.287 264.506 719.172 275.715 695.411C285.977 671.849 297.265 648.76 307.606 625.197C317.355 603.252 322.604 579.729 330.972 557.271C290.95 540.694 247.772 523.644 220.578 488.122C222.077 487.727 225.117 486.977 226.656 486.583C243.035 481.925 254.442 468.467 267.348 458.205C287.99 441.312 311.79 429.077 334.524 415.342C334.761 412.697 335.155 407.448 335.353 404.803C318.578 406.619 302.317 411.079 286.135 415.539C284.28 414.868 280.57 413.565 278.715 412.894ZM281.794 701.726C276.465 715.738 269.203 730.065 271.177 745.537C266.756 761.916 274.65 778.414 287.556 788.518C286.924 774.665 284.912 760.495 289.451 747.076C293.792 763.416 288.543 790.373 309.264 796.017C305.633 750.549 307.685 704.884 306.383 659.337C306.856 656.535 307.843 650.891 308.317 648.089C296.476 664.271 289.608 683.373 281.794 701.726Z"></path>
<path fill="#895D63" d="M573.664 401.449C575.322 400.62 578.638 398.962 580.295 398.133C594.978 399.317 609.62 400.935 624.303 402.435C626.671 402.712 631.447 403.264 633.815 403.54C631.052 404.33 625.447 405.948 622.645 406.777C614.436 408.869 606.502 411.868 598.767 415.302C594.425 417.078 590.044 418.933 585.702 420.788C584.203 420.157 581.164 418.854 579.624 418.223C577.611 412.579 575.598 407.014 573.664 401.449Z"></path>
<path fill="#C4A3A9" d="M516.869 413.723C536.327 414.552 560.324 419.722 573.665 401.448C575.599 407.014 577.612 412.579 579.624 418.223C559.377 426.077 535.696 424.893 516.869 413.723Z"></path>
<path fill="#ECE1DB" d="M286.135 415.539C302.317 411.079 318.578 406.619 335.352 404.803C335.155 407.448 334.76 412.697 334.524 415.341C311.79 429.076 287.99 441.312 267.348 458.204C260.638 448.811 255.31 438.588 250.771 428.09C262.414 423.551 274.294 419.644 286.135 415.539Z"></path>
<path fill="#F1E6DE" d="M598.767 415.302C606.502 411.868 614.436 408.869 622.645 406.777C642.419 410.882 662.587 412.894 682.124 418.065C694.478 421.183 706.635 425.406 719.383 426.906C726.211 435.352 730 445.535 729.053 456.507C724.277 458.204 719.501 459.902 714.765 461.678C685.006 438.549 648.852 422.998 611.397 418.262C607.173 417.236 602.95 416.249 598.767 415.302Z"></path>
<path fill="#E28849" d="M210.474 453.073C223.261 443.798 236.089 434.247 250.771 428.09C255.31 438.588 260.638 448.811 267.348 458.204C254.442 468.466 243.035 481.925 226.656 486.582C221.328 475.373 215.723 464.322 210.474 453.073Z"></path>
<path fill="#BC9CB2" d="M415.632 429.747C423.447 429.037 431.301 428.484 439.195 428.09C431.854 430.734 424.71 433.892 417.606 437.128C426.249 445.377 437.34 449.284 449.259 449.048C449.851 443.088 450.483 437.168 451.075 431.326C454.153 441.272 453.798 451.771 452.969 462.112C442.076 464.125 429.17 466.651 420.092 458.48C412.08 450.942 413.422 439.378 415.632 429.747Z"></path>
<path fill="#EEEEED" d="M439.195 428.09C442.273 427.853 448.391 427.379 451.47 427.142L451.075 431.326C450.483 437.168 449.851 443.088 449.259 449.048C437.34 449.284 426.249 445.377 417.605 437.128C424.71 433.892 431.854 430.734 439.195 428.09Z"></path>
<path fill="#D1673D" d="M719.383 426.906C743.183 428.169 764.14 440.128 784.23 451.889C777.284 468.94 767.377 484.648 754.589 497.989C741.249 485.951 728.461 473.321 714.765 461.678C719.501 459.901 724.277 458.204 729.053 456.507C730 445.535 726.211 435.352 719.383 426.906Z"></path>
<path fill="#E6E3E8" d="M527.802 461.954C528.986 451.889 524.526 438.391 533.643 431.168C545.01 430.103 556.417 431.011 567.784 431.484C565.139 440.523 563.166 451.495 554.167 456.547C545.957 460.533 536.682 461.165 527.802 461.954Z"></path>
<path fill="#DF97A9" d="M476.611 446.443C487.623 438.825 501.082 444.588 512.251 448.613C512.33 451.376 512.409 456.902 512.449 459.665C498.99 462.23 485.255 462.23 471.677 461.244C473.059 456.192 474.716 451.258 476.611 446.443Z"></path>
<path fill="#522533" d="M162.559 518.276C162.519 504.462 167.295 491.437 174.518 479.833C183.832 489.345 174.044 501.541 171.597 511.961C174.32 513.066 179.846 515.316 182.569 516.421C188.924 513.421 195.199 510.342 201.514 507.343C201.159 509.829 200.528 514.842 200.212 517.368C187.661 517.881 175.11 518.512 162.559 518.276Z"></path>
<path fill="#572E39" d="M195.16 557.468C191.41 541.838 202.935 529.13 218.249 527.511C212.171 536.234 206.369 545.351 206.29 556.442C202.58 556.758 198.87 557.113 195.16 557.468Z"></path>
<path fill="#D56D3A" d="M826.659 541.523C835.934 535.682 846.156 531.498 856.773 528.656C860.878 544.957 866.68 561.218 866.798 578.189C867.785 586.557 858.431 588.451 853.142 592.359C843.67 575.742 835.5 558.455 826.659 541.523Z"></path>
<path fill="#93898A" d="M742.156 537.142C752.734 537.813 762.443 542.115 771.876 546.693C772.745 557.429 769.429 567.533 759.286 572.585C752.971 566.428 746.537 560.429 739.867 554.666C740.657 548.825 741.367 542.905 742.156 537.142ZM750.997 547.68C749.34 553.285 751.234 555.1 756.76 553.048C758.378 547.404 756.444 545.628 750.997 547.68Z"></path>
<path fill="#BFB7BA" d="M750.997 547.68C756.444 545.628 758.378 547.404 756.76 553.048C751.234 555.1 749.34 553.285 750.997 547.68Z"></path>
<path fill="#E3934F" d="M338.707 560.823C359.507 563.586 379.715 569.467 400.476 572.23C403.318 580.518 406.16 588.885 408.33 597.45C404.265 657.719 395.227 718.974 407.344 778.927C411.212 797.793 418.79 815.988 430.038 831.657C425.933 859.641 428.894 887.979 429.446 916.16C422.381 916.831 415.316 917.62 408.291 918.37C405.173 907.082 402.055 895.833 398.503 884.703C399.331 895.991 400.2 907.24 400.713 918.607C391.398 918.923 382.044 919.12 372.729 919.87C370.401 908.424 368.428 896.938 366.178 885.532C365.625 896.544 365.152 907.595 364.481 918.686C357.021 916.476 349.285 914.897 342.378 911.266C334.721 898.004 334.761 882.098 332.432 867.377C344.312 869.902 356.587 872.586 368.625 869.547C352.561 859.246 334.879 850.286 324.262 833.71C347.233 825.145 371.861 825.263 396.016 825.303C375.019 809.515 349.285 802.174 327.42 788.005C315.026 780.506 318.579 764.205 316.96 752.088C342.852 760.219 369.098 769.376 396.687 768.271C367.678 742.971 324.617 725.013 317.316 682.9C343.72 683.058 369.375 690.32 395.661 691.899C378.018 674.335 353.863 666.007 334.997 650.18C322.881 640.589 326.709 623.539 325.209 610.159C346.641 618.921 368.23 627.446 390.609 633.485C376.834 606.765 353.429 586.873 338.707 560.823Z"></path>
<path fill="#E28D4A" d="M538.537 567.533C567.192 560.112 596.596 571.124 621.658 584.583C644.905 597.766 670.955 604.752 694.399 617.54C691.044 627.801 689.347 639.405 681.532 647.457C668.942 661.034 648.576 668.928 630.539 662.455C617.751 656.692 608.476 645.681 598.095 636.642C599.201 640.905 600.385 645.207 601.569 649.549C590.044 655.982 577.414 660.047 564.35 662.1C563.481 658.863 562.613 655.666 561.784 652.509C560.6 648.246 559.337 644.023 558.114 639.839C564.547 639.642 570.981 639.366 577.453 639.011C558.035 629.814 538.143 642.168 518.29 640.629C509.173 640.313 504.357 631.669 498.911 625.71C504.831 620.658 510.83 615.803 516.79 610.83C510.988 605.225 505.384 599.502 499.858 593.74C510.238 581.899 522.868 571.124 538.537 567.533Z"></path>
<path fill="#D2643C" d="M618.659 574.953C630.736 571.124 642.972 567.138 655.72 566.269C664.482 568.677 672.415 573.453 680.506 577.597C690.176 581.386 692.031 592.477 696.096 600.884C671.152 589.517 642.853 588.017 618.659 574.953Z"></path>
<path fill="#C15A31" d="M784.704 585.53C789.282 577.439 794.808 569.94 801.162 563.231C813.358 575.032 824.804 587.701 835.224 601.16C829.461 608.225 823.778 615.369 818.094 622.512C807.359 609.803 796.189 597.529 784.704 585.53Z"></path>
<path fill="#F4EBE7" d="M408.33 597.45C434.301 603.37 460.744 606.883 487.307 609.291C487.149 621.921 484.189 636.09 491.925 647.26C502.345 662.85 516.435 676.072 532.577 685.623C553.377 697.661 578.282 695.806 601.253 699.595C602.713 731.644 603.148 763.811 601.214 795.859C596.359 810.976 589.728 825.658 580.137 838.446C571.415 846.932 561.626 862.127 547.536 856.286C533.88 852.536 520.145 848.195 505.818 848.629C488.451 848.195 471.914 854.273 454.982 857.154C447.088 848.274 438.366 840.104 430.038 831.657C418.789 815.988 411.211 797.793 407.343 778.927C395.226 718.974 404.265 657.719 408.33 597.45Z"></path>
<path fill="#B75136" d="M694.399 617.539C700.596 637.826 687.097 657.442 671.705 669.401C662.114 676.663 649.76 684.676 637.288 679.979C626.158 676.782 618.935 667.151 611.436 659.06C609.502 660.797 607.568 662.534 605.713 664.349C604.292 659.376 602.911 654.443 601.569 649.549C600.385 645.207 599.201 640.905 598.096 636.642C608.476 645.681 617.751 656.692 630.539 662.455C648.576 668.928 668.942 661.034 681.532 647.457C689.347 639.405 691.044 627.801 694.399 617.539Z"></path>
<path fill="#C45532" d="M773.85 622.355C786.756 627.525 799.544 632.933 812.411 638.261C812.213 653.298 812.174 668.375 812.055 683.452C798.715 687.439 785.138 690.636 771.324 692.412C770.258 669.007 770.1 645.483 773.85 622.355Z"></path>
<path fill="#E7B37E" d="M519.869 651.956C532.262 646.825 544.931 642.365 558.114 639.839C559.337 644.023 560.601 648.246 561.785 652.509C550.931 656.1 540.077 659.692 529.262 663.323C526.105 659.455 522.987 655.666 519.869 651.956Z"></path>
<path fill="#D56B41" d="M564.35 662.1C577.414 660.047 590.044 655.982 601.569 649.549C602.911 654.443 604.292 659.376 605.713 664.349C583.492 679.979 550.417 681.716 529.262 663.323C540.077 659.692 550.931 656.101 561.784 652.509C562.613 655.666 563.482 658.863 564.35 662.1Z"></path>
<path fill="#E6904E" d="M271.177 745.537C283.293 716.961 292.963 687.36 306.383 659.337C307.685 704.884 305.633 750.549 309.264 796.017C288.543 790.373 293.792 763.416 289.451 747.076C284.912 760.495 286.925 774.665 287.556 788.518C274.65 778.414 266.756 761.916 271.177 745.537Z"></path>
<path fill="#DE8447" d="M574.691 683.926C586.216 680.532 597.464 676.269 608.634 671.888C618.777 679.032 629.157 685.899 639.696 692.53C635.709 700.187 631.684 707.844 627.776 715.58C646.879 705.634 666.574 696.398 687.926 692.333C688.953 701.213 689.86 710.133 690.729 719.093C664.206 738.195 635.946 754.654 607.765 771.112C613.252 771.27 618.777 771.388 624.303 771.507C618.619 773.48 613.015 775.77 607.45 778.019C605.358 783.9 603.266 789.86 601.214 795.859C603.148 763.811 602.713 731.644 601.253 699.595C601.016 698.056 600.503 694.977 600.266 693.438C591.899 689.807 583.374 686.61 574.691 683.926Z"></path>
<path fill="#C25734" d="M770.574 712.343C786.322 718.224 801.399 725.763 815.766 734.485C816.16 747.549 814.937 760.692 810.95 773.243C797.057 763.692 781.467 756.824 767.969 746.839C767.298 735.274 769.311 723.75 770.574 712.343Z"></path>
<path fill="#CD663A" d="M668.113 761.758C676.757 759.627 685.519 757.732 694.281 755.956C694.123 763.218 694.005 770.52 693.847 777.861C690.61 779.756 687.413 781.69 684.256 783.624C680.349 775.296 675.139 767.678 668.113 761.758Z"></path>
<path fill="#B44F2F" d="M756.286 775.454C759.404 769.376 762.562 763.377 765.798 757.417C779.06 767.284 793.742 776.756 801.951 791.676C801.201 798.977 795.518 804.148 791.295 809.713C780.441 797.478 768.758 785.992 756.286 775.454Z"></path>
<path fill="#E58B4B" d="M624.303 771.507C639.025 768.783 653.628 765.547 668.113 761.758C675.139 767.678 680.349 775.296 684.256 783.624C662.588 796.609 639.341 806.989 619.251 822.5C643.722 821.987 667.995 818.83 692.465 818.08C681.769 841.998 655.088 849.536 634.723 862.68C641.748 863.587 648.774 864.416 655.878 864.929C652.918 882.966 649.05 900.885 644.235 918.528C637.13 918.962 630.026 919.08 622.961 919.317C622.487 906.687 622.211 894.057 621.659 881.506C619.33 893.978 617.712 906.529 615.699 919.12C605.95 918.212 596.28 916.988 586.61 915.686C586.295 905.543 585.9 895.478 585.308 885.414C583.334 895.399 581.637 905.424 579.545 915.449C563.008 909.963 563.719 890.466 561.666 876.296C557.601 860.43 572.796 850.365 580.137 838.446C589.728 825.658 596.359 810.976 601.214 795.859C603.266 789.86 605.358 783.9 607.45 778.019C613.015 775.769 618.619 773.48 624.303 771.507Z"></path>
<path fill="#AD4B2B" d="M733.039 794.675C738.92 791.32 744.84 788.005 750.76 784.769C763.627 795.07 772.547 809.515 774.442 826.053C769.35 828.263 764.298 830.513 759.207 832.802C750.761 819.896 741.998 807.226 733.039 794.675Z"></path>
<path fill="#BA4F2D" d="M703.911 801.108C724.277 801.898 743.183 824.632 732.802 844.169C729.921 844.682 724.238 845.669 721.356 846.182C714.449 831.578 708.49 816.58 703.911 801.108Z"></path>
<path fill="#DB6A3D" d="M429.446 916.16C428.893 887.979 425.933 859.641 430.038 831.657C438.366 840.104 447.089 848.273 454.982 857.154C450.207 875.98 452.061 897.412 438.958 913.16C436.471 904.674 434.893 895.991 432.446 887.584C431.261 897.057 430.63 906.608 429.446 916.16Z"></path>
<path fill="#93A180" d="M199.896 836.156C222.196 837.262 228.826 861.614 241.535 875.744C243.469 875.388 247.337 874.639 249.271 874.244C250.416 863.272 246.43 852.536 245.64 841.643C258.152 844.958 265.177 856.522 273.742 865.284C289.293 863.548 304.804 861.061 320.354 859.009C320.71 855.575 321.42 848.786 321.815 845.353C323.038 849.615 324.064 853.957 324.933 858.377C323.512 866.745 321.46 875.033 319.368 883.282C320.236 883.835 321.973 884.979 322.841 885.532C320.828 891.807 317.355 897.964 317.552 904.753C320.354 911.976 328.327 915.094 334.524 918.962C339.931 920.304 345.417 921.488 350.982 922.435C376.676 927.25 403.436 928.474 429.17 923.264C439.708 921.409 446.97 913.081 454.351 906.095C459.679 900.806 466.349 897.057 473.967 896.899C501.91 894.333 530.012 894.768 558.035 893.702C559.416 904.122 561.784 916.949 573.349 920.659C603.621 931.592 636.696 926.264 667.837 922.119C703.477 918.291 730.513 886.203 739.157 853.049C732.092 850.76 725.066 848.471 717.923 846.537L721.356 846.182C724.238 845.669 729.921 844.682 732.802 844.169C741.051 842.274 749.221 840.103 757.431 837.933C750.563 850.01 747.721 863.745 746.577 877.48C749.182 877.243 754.352 876.77 756.918 876.533C768.956 862.482 782.257 846.024 802.741 846.774C801.754 862.324 790.348 874.007 785.019 888.058C802.82 882.138 815.884 864.456 836.289 867.14C837.671 871.323 839.052 875.546 840.433 879.809C833.408 884.269 826.501 888.847 819.594 893.505C829.303 898.043 843.196 900.017 845.485 912.607C824.054 926.974 797.926 930.21 773.179 934.947C713.423 944.182 653.036 947.853 592.767 951.129C484.584 952.037 375.65 955.352 268.414 938.42C239.325 933.684 209.724 930.605 181.582 921.685C171.992 918.607 158.257 912.292 163.901 899.898C170.847 894.333 179.096 890.742 186.95 886.677C180.438 879.572 173.965 872.428 167.887 865.008C187.069 856.246 201.79 874.757 217.499 882.374C210.789 867.258 198.83 853.681 199.896 836.156Z"></path>
<path fill="#81886E" d="M694.439 842.708C702.253 843.932 710.108 845.234 717.923 846.537C725.066 848.471 732.092 850.76 739.157 853.049C730.513 886.203 703.477 918.291 667.837 922.119C689.781 901.359 687.334 869.705 694.439 842.708Z"></path>
<path fill="#757C62" d="M488.768 856.246C507.989 854.352 528.789 855.536 545.8 865.521C556.259 870.85 555.983 883.756 558.035 893.702C530.012 894.768 501.911 894.334 473.967 896.899C466.349 897.057 459.679 900.806 454.351 906.095C455.574 893.663 455.614 880.638 460.784 869.074C466.902 860.035 478.703 857.786 488.768 856.246Z"></path>
<path fill="#696656" d="M324.933 858.377C327.814 878.585 329.117 899.149 334.524 918.962C328.327 915.094 320.355 911.976 317.552 904.753C317.355 897.965 320.828 891.807 322.841 885.532C321.973 884.979 320.236 883.835 319.368 883.282C321.46 875.033 323.512 866.745 324.933 858.377Z"></path>
<path fill="#D0603A" d="M655.878 864.929C664.245 865.364 672.573 865.561 680.98 865.916C679.046 878.388 678.493 891.531 672.731 903.056C667.442 913.634 654.457 915.489 644.234 918.528C649.05 900.885 652.918 882.967 655.878 864.929Z"></path>
</svg>
