<svg xmlns="http://www.w3.org/2000/svg" fill="none" viewBox="0 0 1024 1024" height="1024" width="1024">
<rect fill="white" height="1024" width="1024"></rect>
<path fill="#FDFDFD" d="M410.913 245.393C417.762 238.544 427.292 237.513 436.41 236.605C436.245 239.328 435.874 244.733 435.709 247.456C427.292 248.694 418.587 250.096 410.913 245.393Z"></path>
<path fill="#311728" d="M613.328 333.397C633.421 332.201 653.184 324.485 673.442 327.662C655.659 333.727 637.052 336.615 618.527 339.132C601.899 341.319 585.602 345.156 569.016 347.177C583.415 341.566 598.268 337.028 613.328 333.397Z"></path>
<path fill="#442031" d="M398.205 330.262C400.474 329.561 404.971 328.117 407.199 327.415C406.58 329.767 405.301 334.512 404.641 336.863C416.606 338.555 428.53 340.288 440.536 341.98C440.371 343.3 440.041 345.982 439.876 347.343C425.724 345.693 411.696 343.135 397.503 341.98C397.751 338.06 397.957 334.14 398.205 330.262Z"></path>
<path fill="#442031" d="M307.394 349.488C336.977 343.547 366.972 349.984 396.76 349.612C396.513 351.551 396.018 355.388 395.77 357.328C372.376 356.131 348.942 355.966 325.548 355.182C318.947 355.388 312.923 352.665 307.394 349.488Z"></path>
<path fill="#96A584" d="M854.031 822.519C860.055 819.218 871.154 813.855 873.835 823.715C873.299 837.62 864.263 849.75 864.676 863.901C878.291 854.494 892.567 838.115 910.927 844.221C917.611 855.155 901.437 861.962 896.032 870.09C905.852 876.362 926.935 879.497 922.521 895.093C917.652 904.335 906.1 907.141 897.064 910.813C852.381 924.18 805.841 930.41 759.466 934C780.261 923.933 802.747 915.64 820.075 899.796C832.04 889.193 834.062 872.69 837.28 857.96C840.911 845.624 842.767 830.482 854.031 822.519Z"></path>
<path fill="#31192A" d="M250.334 86.7531C269.478 77.016 291.758 75.6545 312.8 78.2951C333.594 82.0496 351.789 94.0559 367.88 107.259C396.142 92.323 426.096 80.0279 457.824 75.1594C525.694 66.7426 597.402 74.2929 657.804 108.125C666.304 115.964 674.638 105.773 681.9 101.4C706.49 82.8748 739.125 76.5209 768.997 83.4111C827.46 100.245 856.754 179.049 822.592 229.632C814.464 246.094 797.548 254.593 781.209 260.782C784.304 266.682 787.481 272.582 790.534 278.523C792.184 281.824 793.834 285.125 795.526 288.467C800.147 297.255 803.489 306.62 806.088 316.234C806.253 318.462 806.624 322.918 806.831 325.104C805.345 352.17 827.914 371.809 847.842 386.332C849.575 387.157 853.04 388.725 854.773 389.509C839.59 423.218 812.236 448.757 787.646 475.492C769.285 495.626 746.469 511.222 722.127 523.27C736.279 556.896 750.884 590.769 755.257 627.365C757.857 642.549 756.124 658.392 761.9 672.956C771.307 667.964 780.343 662.311 789.007 656.04L787.811 658.351C784.964 663.632 782.034 668.872 779.188 674.153C785.046 684.344 790.946 694.576 796.97 704.725C798.125 706.664 800.436 710.584 801.591 712.523C786.779 719.29 770.688 722.302 754.473 722.343C753.813 748.13 741.436 771.647 739.538 797.186C757.238 794.752 775.392 788.233 793.215 793.844C810.874 797.64 823.376 817.609 819.415 834.938C803.448 879.786 761.364 911.844 716.186 923.644C698.774 917.991 688.006 902.767 674.514 891.627C655.989 886.924 636.597 888.244 617.784 885.397C601.321 883.54 585.643 877.682 569.222 875.99C553.874 876.114 539.392 882.261 524.209 883.953C495.41 888.285 466.983 875.33 438.226 880.941C409.799 886.429 381.124 891.833 352.037 889.977C343.826 900.951 335.285 911.761 326.662 922.406C313.295 921.746 299.514 920.797 287.591 914.196C259.287 899.177 232.428 880.487 211.716 855.815C210.891 854.866 209.282 853.05 208.456 852.143C192.448 835.103 203.835 811.915 218.4 798.506L221.329 798.878C223.763 799.208 228.632 799.827 231.066 800.115C224.712 804.943 218.689 810.141 212.83 815.587C223.392 818.475 233.995 821.322 244.393 824.912C240.844 825.159 233.748 825.613 230.159 825.861C223.97 826.067 217.781 826.727 211.757 828.048C208.415 838.156 216.749 846.861 221.247 855.154C234.821 874.216 255.574 886.016 274.677 898.724C287.673 906.356 301.618 915.846 317.42 914.608C332.439 910.854 343.867 896.207 345.559 881.106C337.885 867.986 326.58 857.424 318.741 844.386C319.442 842.653 320.845 839.105 321.546 837.331C333.058 852.679 343.166 870.338 359.752 880.776C395.606 887.419 430.758 871.245 466.653 871.204C497.473 877.31 530.81 878.383 560.145 865.634C596.865 873.721 633.833 881.89 671.709 881.766C684.746 851.689 706.201 826.562 721.962 798.052C703.602 808.656 685.572 821.405 663.787 823.427C684.623 792.235 721.508 775.979 740.363 743.096C706.283 741.982 672.492 749.739 638.413 746.232C643.24 744.292 648.067 742.395 652.977 740.538C684.499 729.357 716.392 718.547 745.19 701.095C745.562 694.988 746.015 688.923 746.469 682.858C721.508 682.734 696.464 683.518 671.544 681.29C691.925 665.406 716.763 655.875 735.866 638.299C743.746 632.151 742.88 621.548 743.911 612.677C710.698 615.524 679.424 628.686 646.252 631.739C669.316 606.2 700.549 590.026 724.974 565.89C723.612 560.609 722.25 555.328 720.93 550.088C696.629 553.182 674.679 564.817 651.162 570.882C656.773 562.012 662.714 553.389 668.614 544.683C646.417 549.923 624.426 555.947 602.023 560.32C577.35 564.982 552.43 569.975 527.138 569.026C593.895 555.617 663.086 545.508 723.447 511.882C716.804 499.257 709.502 486.962 700.714 475.74C681.363 446.859 650.956 429.406 622.858 410.386C656.072 424.29 687.841 444.548 708.099 474.997C714.824 486.219 720.848 497.854 727.325 509.242C747.666 499.959 765.201 485.724 779.848 468.891C760.415 449.169 738.011 432.625 712.967 420.742C715.649 420.288 721.013 419.339 723.695 418.885C749.481 414.182 775.268 419.628 800.931 422.103C799.652 410.964 803.778 395.904 792.72 388.725C766.15 370.654 733.349 366.281 701.993 364.341C677.65 358.441 652.565 355.718 627.644 359.679C615.762 360.917 603.879 361.99 591.997 362.402C584.24 362.196 576.525 361.495 568.892 360.463C587.417 357.534 606.107 355.347 624.88 353.944C643.488 352.418 662.261 349.942 680.909 352.583C694.607 353.944 708.14 358.235 722.044 357.245C736.196 355.388 749.234 349.241 762.932 345.404C775.433 343.341 788.099 342.433 800.766 341.443C797.671 329.148 793.504 317.183 788.512 305.589C768.625 305.341 748.78 307.239 728.976 308.271C722.952 305.878 717.341 302.701 711.73 299.648C729.017 288.838 747.872 279.349 761.24 263.546C764.953 260.081 764.499 254.923 764.664 250.302C748.821 209.085 717.341 177.563 690.275 143.731C691.802 142.617 694.814 140.389 696.299 139.275C707.48 130.982 719.858 122.277 734.422 122.607C754.391 121.41 774.36 137.955 774.195 158.502C776.464 176.491 764.953 191.385 757.815 206.774C752.699 214.696 760.621 222.865 762.89 230.498C784.881 220.266 803.613 199.884 803.819 174.51C808.027 133.829 771.142 95.2937 730.544 97.109C710.698 97.3153 692.297 107.259 678.97 121.575C676.783 123.68 674.679 125.866 672.575 128.053C653.266 114.768 632.596 103.339 610.275 95.9951C618.196 105.856 625.953 115.841 633.627 125.908C625.004 122.483 616.216 119.471 607.469 116.418C613.286 124.629 619.145 132.839 624.633 141.297C607.923 135.645 592.492 124.67 574.627 123.432C567.531 127.187 561.672 132.674 555.483 137.584C573.926 143.814 591.502 153.51 603.219 169.518C600.29 169.188 594.39 168.487 591.461 168.156C570.543 161.761 548.717 160.07 527.427 165.681C526.066 137.419 526.355 106.929 543.766 83.0811C525.983 82.2147 508.159 81.8433 490.377 82.3797C501.145 107.424 509.026 134.077 506.385 161.72C491.573 160.441 476.885 158.048 462.032 157.718C446.56 157.182 432.574 164.526 418.917 170.714C444.992 185.774 469.912 209.58 469.046 242.175C456.586 226.661 451.717 205.537 435.214 193.365C424.239 184.907 409.964 183.876 396.802 181.607C410.335 174.345 421.97 164.361 433.234 154.087C447.179 141.421 465.333 135.48 482.125 127.723C471.769 126.031 461.042 123.102 450.645 125.99C436.369 129.951 424.116 138.574 410.913 144.887C422.548 129.332 437.69 117.037 451.057 103.05C428.86 105.815 408.85 117.202 386.529 118.976C392.594 115.387 398.7 111.838 404.806 108.249C410.954 104.412 416.772 100.08 422.548 95.6237C413.223 97.4803 403.899 99.667 395.069 103.133C364.125 115.345 340.237 139.317 320.68 165.475C303.847 188.621 283.3 209.951 272.779 236.976C271.004 242.546 267.745 248.776 271.252 254.428C281.814 275.099 298.689 291.685 310.035 311.943C283.341 310.581 258.297 301.051 232.675 294.49C227.972 308.271 223.846 322.258 220.133 336.368C246.662 350.726 275.337 360.422 302.279 373.872C272.902 377.874 243.361 381.711 214.893 390.293C216.172 399.081 217.492 407.869 219.019 416.616C245.878 411.459 272.449 419.215 299.267 419.834C301.206 420.288 305.084 421.237 307.065 421.732C305.208 422.516 301.536 424.125 299.679 424.909C296.337 426.353 292.995 427.756 289.653 429.241C269.437 436.255 250.54 447.89 239.194 466.58C253.924 480.65 270.097 493.11 287.137 504.291C293.779 508.747 300.422 513.161 307.271 517.37C306.157 517.865 303.929 518.855 302.774 519.391L299.308 520.794C255.079 498.267 219.019 462.537 186.466 425.693C167.61 404.775 153.005 380.721 136.171 358.318C121.978 366.116 106.094 375.811 89.3014 370.159C73.0042 362.443 70.8175 342.392 65 327.332C65.6601 314.418 74.6546 304.186 84.6392 296.883C81.9574 290.818 78.4091 284.671 79.193 277.822C78.1203 263.34 93.4273 256.615 98.5846 244.65C102.545 235.161 110.508 227.981 120.369 224.97C132.169 219.565 144.753 225.836 156.594 228.064C167.817 218.987 183.536 213.5 197.11 220.803C210.354 226.703 205.816 247.084 219.72 252.654C228.178 256.986 238.245 265.981 247.57 258.554C224.217 239.163 203.134 214.036 199.998 182.679C194.511 144.35 215.635 103.958 250.334 86.7531ZM233.707 174.84C237.791 196.46 254.914 212.221 272.119 224.351C274.223 218.987 277.4 213.912 278.142 208.095C270.922 194.397 259.576 181.937 258.173 165.887C258.132 144.721 274.099 121.08 297.204 121.988C313.047 119.43 326.332 129.208 338.463 137.873C345.435 130.941 352.284 123.927 358.968 116.707C342.011 102.266 319.69 92.2817 297.08 95.3761C259.865 99.7908 227.724 136.924 233.707 174.84ZM262.175 166.465C263.289 181.648 272.573 194.892 283.836 204.547C298.896 183.505 315.811 163.907 333.965 145.464C325.507 133.705 312.758 123.597 297.369 125.825C275.914 124.587 261.804 147.115 262.175 166.465ZM700.796 142.906C714.865 165.929 734.05 185.237 751.42 205.743C760.951 193.159 770.482 178.801 770.193 162.298C771.059 143.484 752.988 126.815 734.463 128.012C721.962 129.373 711.193 136.47 700.796 142.906ZM155.522 253.067C155.398 261.69 157.956 270.107 160.514 278.235C168.807 281.824 177.801 283.309 186.589 285.372C199.421 271.386 206.6 250.344 197.936 232.479C192.118 221.586 178.585 225.96 168.766 225.547C164.186 234.665 158.74 243.371 155.522 253.067ZM107.703 241.514C110.715 249.271 115.996 255.872 120.534 262.804C105.64 261.03 86.7847 268.085 87.0322 285.62C93.7987 300.184 108.734 306.992 124.33 306.208C132.788 297.626 141.824 289.539 151.478 282.278C148.796 266.476 152.716 249.477 146.362 234.542C134.438 225.919 116.037 229.508 107.703 241.514ZM211.056 255.872C206.105 267.301 200.164 278.235 194.057 289.044C201.154 296.017 208.085 303.196 215.058 310.375C222.195 296.842 230.406 283.928 238.781 271.179C229.663 265.816 220.463 260.7 211.056 255.872ZM147.228 293.046C138.935 299.111 126.888 307.693 130.931 319.534C129.24 318.297 125.815 315.78 124.124 314.542C111.499 310.045 97.4295 301.009 83.9791 307.57C73.2931 310.788 74.3244 324.238 71.1062 332.82C79.0279 335.914 87.3209 338.101 95.6552 339.916C90.7041 344.248 85.6705 348.498 80.6782 352.789C93.6747 373.542 137.368 362.774 127.878 335.584C132.087 350.437 147.27 357.41 155.274 369.829C162.866 381.051 170.375 392.397 178.874 403.042C186.837 397.431 195.006 390.953 198.142 381.299C204.331 362.155 209.983 342.722 213.614 322.918C205.527 297.379 172.066 278.028 147.228 293.046ZM812.236 362.856C811.41 389.097 810.998 415.378 807.532 441.454C823.004 429.901 832.617 412.862 842.932 396.936C834.02 384.476 824.077 372.634 812.236 362.856ZM187.291 409.025C192.613 418.267 200.741 425.445 208.704 432.418C207.136 419.092 204.702 405.93 201.814 392.851C196.657 397.885 190.138 402.176 187.291 409.025ZM759.218 676.917C757.65 688.428 757.568 700.063 758.269 711.698C764.541 711.657 770.812 711.574 777.125 711.45C773.824 698.99 773.618 681.951 759.218 676.917ZM753.071 802.013C758.269 810.76 768.213 813.648 777.207 816.99C777.702 819.466 778.651 824.458 779.146 826.975L776.341 827.759C764.788 818.641 752.865 809.399 738.878 804.448C736.279 805.562 731.039 807.748 728.439 808.862C719.569 821.9 708.924 833.617 700.177 846.738C692.462 856.764 682.642 866.996 681.817 880.24C683.797 891.998 692.462 901.653 701.332 909.162C715.071 919.972 733.143 911.431 746.965 905.16C773.989 890.018 798.538 867.573 810.379 838.362C810.792 832.462 811.163 826.562 811.493 820.662C803.2 822.23 794.99 823.757 786.655 824.582C793.587 819.218 800.972 814.432 808.522 809.894C800.56 801.725 790.245 800.775 781.58 808.12C781.003 805.561 779.806 800.487 779.229 797.97C770.399 798.671 761.653 799.909 753.071 802.013Z"></path>
<path fill="#E4904E" d="M490.377 82.3797C508.159 81.8433 525.983 82.2147 543.765 83.0812C526.354 106.929 526.065 137.419 527.427 165.681C548.716 160.07 570.542 161.761 591.46 168.157C588.902 172.117 586.386 176.078 583.91 180.08C585.849 183.835 587.871 187.589 589.893 191.385C584.034 203.433 577.267 214.985 569.882 226.166C557.463 214.036 546.695 200.462 535.472 187.3C543.188 209.621 560.764 225.877 573.637 245.063C567.572 267.012 566.953 291.355 581.682 310.169C571.326 309.839 561.053 309.302 550.738 309.014C519.093 304.351 486.911 305.383 455.348 310.086C438.638 313.882 423.661 322.711 407.199 327.415C404.971 328.116 400.474 329.56 398.205 330.262C397.957 334.14 397.751 338.06 397.503 341.979C397.338 343.877 396.967 347.714 396.761 349.612C366.972 349.983 336.977 343.547 307.394 349.488C312.923 352.665 318.947 355.388 325.548 355.182C348.942 355.966 372.377 356.131 395.77 357.328L395.275 361.33C363.011 367.23 326.91 366.982 299.514 387.24C328.56 380.102 357.359 371.067 387.436 369.54C385.126 375.853 385.497 385.012 377.328 386.704C351.294 397.72 324.476 406.962 299.267 419.834C272.448 419.215 245.878 411.459 219.018 416.616C217.492 407.869 216.172 399.081 214.893 390.293C243.361 381.711 272.902 377.874 302.278 373.872C275.336 360.422 246.662 350.726 220.133 336.368C223.846 322.258 227.972 308.271 232.675 294.491C258.297 301.051 283.341 310.581 310.035 311.943C298.689 291.685 281.814 275.099 271.252 254.428C267.745 248.776 271.004 242.546 272.778 236.976C272.82 238.915 272.902 242.793 272.944 244.691C281.732 238.998 291.469 233.716 297.369 224.681C305.579 211.107 307.518 194.686 315.811 181.112C322.248 171.168 331.366 163.412 340.03 155.408C354.718 142.287 368.911 128.177 386.529 118.976C408.849 117.202 428.86 105.815 451.057 103.05C437.689 117.037 422.547 129.332 410.913 144.887C424.115 138.574 436.369 129.951 450.645 125.99C461.042 123.102 471.769 126.031 482.125 127.723C465.333 135.48 447.179 141.421 433.233 154.087C421.97 164.361 410.335 174.345 396.802 181.607C409.963 183.876 424.239 184.907 435.214 193.365C451.717 205.537 456.586 226.661 469.046 242.175C469.912 209.58 444.992 185.774 418.917 170.715C432.573 164.526 446.56 157.182 462.032 157.718C476.885 158.048 491.573 160.441 506.385 161.72C509.025 134.077 501.145 107.424 490.377 82.3797ZM469.252 207.765C483.28 200.421 496.359 189.322 500.196 173.231C486.539 181.236 475.688 193.366 469.252 207.765ZM354.017 249.56C337.266 252.902 320.473 250.179 304.052 246.754C315.399 263.423 340.195 266.93 355.791 254.098C356.327 266.022 357.07 277.987 358.143 289.911C351.005 287.27 343.785 284.63 336.482 282.567C345.765 294.532 361.278 297.667 374.357 303.774C389.045 310.829 405.673 310.334 421.598 309.467C415.74 307.363 409.922 305.383 403.94 303.939C409.757 304.104 415.575 304.104 421.475 303.98L419.37 301.133C426.632 299.813 436.122 300.556 440.33 293.046C450.686 276.337 448.664 255.253 446.931 236.563C444.126 213.582 420.526 192.458 396.884 200.338C373.573 206.156 362.392 229.302 354.017 249.56Z"></path>
<path fill="#D67A45" d="M233.707 174.84C227.725 136.924 259.865 99.7907 297.08 95.376C319.69 92.2816 342.011 102.266 358.968 116.707C352.284 123.927 345.436 130.941 338.463 137.873C326.333 129.208 313.048 119.43 297.204 121.988C274.099 121.08 258.132 144.721 258.173 165.887C259.576 181.937 270.922 194.397 278.143 208.095C277.4 213.912 274.223 218.987 272.119 224.351C254.914 212.221 237.792 196.46 233.707 174.84Z"></path>
<path fill="#AD7856" d="M395.07 103.133C403.899 99.6673 413.224 97.4805 422.548 95.6239C416.772 100.08 410.954 104.412 404.807 108.249C402.372 106.97 397.504 104.412 395.07 103.133Z"></path>
<path fill="#CC653F" d="M610.275 95.9952C632.596 103.339 653.266 114.768 672.575 128.053C674.679 125.866 676.783 123.68 678.97 121.576C684.664 127.517 690.44 133.417 696.299 139.276C694.814 140.39 691.802 142.617 690.275 143.731C717.341 177.564 748.821 209.085 764.665 250.303C759.837 253.562 755.092 256.821 750.43 260.163C726.5 230.457 708.883 196.254 684.375 167.043C670.553 149.838 651.409 138.45 633.627 125.908C625.953 115.841 618.196 105.856 610.275 95.9952Z"></path>
<path fill="#D77640" d="M678.97 121.575C692.297 107.259 710.698 97.3152 730.544 97.1089C771.142 95.2936 808.027 133.829 803.819 174.51C803.613 199.884 784.881 220.266 762.89 230.498C760.621 222.865 752.699 214.696 757.815 206.774C764.953 191.385 776.465 176.491 774.195 158.502C774.36 137.955 754.391 121.41 734.422 122.607C719.858 122.277 707.48 130.982 696.299 139.275C690.44 133.417 684.664 127.517 678.97 121.575Z"></path>
<path fill="#30182D" d="M313.46 462.124C337.225 440.134 361.732 417.235 392.058 404.734C364.703 424.992 338.792 447.148 314.821 471.366C307.147 478.793 299.225 486.013 291.84 493.729C294.934 486.838 298.565 480.154 302.815 473.924C306.198 469.84 309.747 465.92 313.46 462.124Z"></path>
<path fill="#F3D9BA" d="M320.68 165.475C340.237 139.317 364.126 115.345 395.07 103.133C397.504 104.412 402.372 106.97 404.807 108.249C398.7 111.838 392.594 115.387 386.529 118.976C368.912 128.177 354.719 142.287 340.031 155.408C331.366 163.412 322.248 171.168 315.812 181.112C307.519 194.686 305.58 211.107 297.369 224.681C291.469 233.716 281.732 238.998 272.944 244.691C272.903 242.793 272.82 238.915 272.779 236.976C283.3 209.951 303.847 188.621 320.68 165.475Z"></path>
<path fill="#E58746" d="M607.469 116.418C616.216 119.471 625.004 122.483 633.627 125.908C651.41 138.45 670.554 149.838 684.375 167.043C708.883 196.254 726.501 230.457 750.431 260.163C755.093 256.821 759.838 253.562 764.665 250.303C764.5 254.924 764.954 260.081 761.24 263.547C747.873 279.349 729.017 288.838 711.73 299.648C717.341 302.701 722.952 305.878 728.976 308.271C740.157 312.892 752.411 311.943 764.252 311.654C762.395 322.835 761.901 334.14 762.932 345.404C749.234 349.241 736.196 355.388 722.045 357.245C708.14 358.235 694.608 353.944 680.91 352.583C662.261 349.942 643.488 352.418 624.881 353.944C622.694 348.993 620.59 344.084 618.527 339.133C637.052 336.616 655.66 333.728 673.442 327.663C653.184 324.486 633.421 332.201 613.328 333.398C612.297 331.128 610.192 326.59 609.12 324.362C624.55 319.328 641.013 317.142 655.783 310.128C669.11 303.444 672.658 287.6 678.228 275.017C698.61 273.696 719.858 268.621 732.359 250.921C716.31 258.183 699.559 265.197 681.529 263.01C673.813 241.143 666.057 214.284 641.796 205.619C622.983 196.666 602.972 205.042 584.736 210.983C592.575 202.113 600.208 190.766 612.957 189.116C636.02 185.196 657.145 197.409 677.238 206.94C657.145 181.689 616.753 169.559 589.893 191.385C587.872 187.589 585.85 183.835 583.911 180.08C586.386 176.078 588.903 172.117 591.461 168.157C594.39 168.487 600.29 169.188 603.22 169.518C591.502 153.51 573.926 143.814 555.483 137.584C561.672 132.674 567.531 127.187 574.627 123.432C592.492 124.67 607.923 135.645 624.633 141.297C619.146 132.839 613.287 124.629 607.469 116.418Z"></path>
<path fill="#E0AEA0" d="M262.175 166.465C261.804 147.114 275.914 124.587 297.369 125.825C312.758 123.597 325.507 133.705 333.965 145.464C315.811 163.907 298.896 183.505 283.836 204.547C272.573 194.892 263.289 181.648 262.175 166.465ZM278.225 138.409C275.708 152.726 271.995 169.353 284.001 180.658C293.573 172.2 308.88 162.793 303.97 147.651C300.628 136.387 287.549 136.594 278.225 138.409Z"></path>
<path fill="#DFBDB4" d="M700.796 142.906C711.194 136.47 721.962 129.373 734.463 128.012C752.988 126.815 771.06 143.484 770.193 162.298C770.482 178.801 760.951 193.159 751.421 205.743C734.051 185.238 714.866 165.929 700.796 142.906Z"></path>
<path fill="#F1EAE6" d="M278.224 138.409C287.549 136.594 300.628 136.387 303.97 147.651C308.88 162.793 293.573 172.2 284.001 180.658C271.994 169.353 275.708 152.726 278.224 138.409Z"></path>
<path fill="#763F30" d="M469.252 207.765C475.688 193.366 486.539 181.236 500.196 173.231C496.359 189.322 483.28 200.421 469.252 207.765Z"></path>
<path fill="#33162B" d="M589.893 191.385C616.752 169.559 657.144 181.689 677.237 206.94C657.144 197.409 636.02 185.196 612.956 189.116C600.207 190.766 592.575 202.112 584.736 210.983C602.972 205.042 622.982 196.666 641.796 205.619C666.056 214.284 673.813 241.143 681.528 263.01C699.558 265.197 716.309 258.183 732.359 250.921C719.858 268.621 698.609 273.696 678.228 275.016C672.658 287.6 669.109 303.444 655.783 310.128C641.012 317.141 624.55 319.328 609.119 324.362C607.469 321.597 605.819 318.916 604.209 316.234C610.646 314.913 617.123 313.511 623.601 312.19C636.061 309.467 650.089 307.157 658.919 297.048C682.972 268.621 664.983 216.058 627.149 211.189C605.323 206.733 583.415 219.895 575.205 240.194C574.792 241.391 574.008 243.825 573.637 245.063C560.764 225.877 543.188 209.621 535.473 187.3C546.695 200.462 557.463 214.036 569.882 226.166C577.268 214.985 584.034 203.433 589.893 191.385Z"></path>
<path fill="#321728" d="M354.017 249.56C362.393 229.302 373.574 206.156 396.885 200.338C420.526 192.458 444.126 213.582 446.932 236.563C448.665 255.254 450.686 276.337 440.33 293.047C436.122 300.556 426.633 299.813 419.371 301.133C407.406 286.982 395.977 266.27 408.437 248.693C413.141 235.573 426.344 231.53 438.845 229.467C431.996 218.946 422.672 207.27 408.52 208.838C374.647 210.158 357.978 252.242 367.303 281.04C373.079 296.1 389.706 300.844 403.94 303.939C409.923 305.383 415.74 307.363 421.599 309.467C405.673 310.334 389.046 310.829 374.358 303.774C361.279 297.668 345.765 294.532 336.482 282.567C343.785 284.63 351.005 287.27 358.143 289.911C357.07 277.987 356.328 266.022 355.791 254.098C340.195 266.93 315.399 263.423 304.053 246.754C320.474 250.179 337.266 252.902 354.017 249.56ZM410.913 245.393C418.587 250.096 427.293 248.693 435.71 247.456C435.875 244.733 436.246 239.328 436.411 236.605C427.293 237.512 417.762 238.544 410.913 245.393Z"></path>
<path fill="#F6F3F0" d="M367.302 281.04C357.978 252.242 374.646 210.158 408.52 208.838C422.671 207.27 431.996 218.946 438.845 229.467C426.343 231.53 413.141 235.573 408.437 248.694C395.977 266.27 407.406 286.982 419.371 301.133L421.475 303.98C415.575 304.104 409.758 304.104 403.94 303.939C389.706 300.845 373.079 296.1 367.302 281.04Z"></path>
<path fill="#F5F0EE" d="M575.205 240.194C583.416 219.895 605.324 206.733 627.15 211.189C664.984 216.058 682.973 268.621 658.919 297.048C650.089 307.157 636.062 309.467 623.601 312.19C617.825 311.819 612.09 311.241 606.355 310.829C614.607 290.488 618.815 265.073 604.87 246.177C599.259 234.583 585.19 240.524 575.205 240.194Z"></path>
<path fill="#3A2334" d="M821.437 249.477C827.708 235.986 833.113 218.409 850.276 215.851C866.491 210.364 876.311 226.62 886.914 235.243C897.518 235.532 909.482 231.447 919.013 237.966C932.876 245.31 935.228 262.267 944.552 273.696C951.731 281.453 950.122 292.139 950.741 301.834C953.258 311.489 961.51 319.7 959.694 330.344C958.498 341.443 959.736 354.357 951.484 363.104C941.747 374.574 924.418 373.006 911.504 368.797C903.913 366.982 896.239 360.711 888.482 365.001C874.537 368.839 864.552 379.607 854.773 389.509C853.041 388.725 849.575 387.157 847.842 386.332C860.055 372.882 875.774 363.599 891.741 355.306C892.319 352.624 893.474 347.219 894.052 344.537C896.734 333.521 898.013 322.216 898.755 310.953C887.863 302.907 878.415 291.726 865.088 287.889C844.706 282.814 833.03 303.609 819.126 314.253C815.042 317.925 810.916 321.515 806.831 325.104C806.625 322.918 806.253 318.462 806.088 316.234C817.682 307.239 828.327 297.09 839.054 287.064C833.855 277.162 829.193 267.012 824.861 256.739C812.855 264.908 799.899 273.779 795.526 288.467C793.834 285.125 792.184 281.824 790.534 278.523C798.703 266.682 811.37 259.421 821.437 249.477ZM835.093 266.311C840.086 274.851 846.109 286.61 858.157 284.052C865.831 285.909 869.297 279.307 872.845 273.902C877.301 256.574 880.766 227.94 858.115 222.494C836.166 220.72 827.625 249.271 835.093 266.311ZM893.804 243.082C880.271 251.416 881.716 269.777 876.063 282.938C885.057 291.231 893.598 300.597 904.779 306.002C918.807 307.528 931.143 299.029 943.892 294.614C942.036 288.549 940.097 282.525 938.199 276.543C929.988 274.109 921.695 271.881 913.443 269.777C917.198 264.083 921.076 258.513 924.996 252.902C917.115 244.279 905.48 237.512 893.804 243.082ZM902.386 314.46C901.19 326.631 894.712 339.256 898.755 351.304C911.092 368.302 946.863 367.89 952.309 344.702C945.254 341.608 938.157 338.596 931.762 334.346C938.735 332.325 945.873 330.592 953.052 328.983C951.69 322.258 951.731 313.552 944.057 310.746C930.566 304.97 915.878 311.943 902.386 314.46Z"></path>
<path fill="#F5ECE9" d="M835.093 266.311C827.625 249.271 836.165 220.72 858.115 222.494C880.766 227.94 877.3 256.574 872.844 273.902C860.343 270.808 847.759 268.25 835.093 266.311Z"></path>
<path fill="#F8F3EF" d="M155.522 253.067C158.74 243.371 164.186 234.666 168.766 225.547C178.585 225.96 192.118 221.587 197.936 232.479C206.6 250.344 199.421 271.386 186.59 285.372C177.801 283.309 168.807 281.824 160.514 278.235C157.956 270.107 155.398 261.69 155.522 253.067Z"></path>
<path fill="#F5E6E1" d="M107.703 241.515C116.037 229.508 134.438 225.919 146.362 234.542C152.716 249.477 148.796 266.476 151.478 282.278C141.823 289.54 132.788 297.626 124.33 306.208C108.734 306.992 93.7984 300.184 87.032 285.62C86.7844 268.085 105.64 261.03 120.534 262.804C115.996 255.873 110.714 249.271 107.703 241.515Z"></path>
<path fill="#281728" d="M575.205 240.194C585.189 240.524 599.259 234.583 604.87 246.177C618.815 265.073 614.607 290.488 606.355 310.829C598.103 310.375 589.893 310.375 581.682 310.169C566.953 291.355 567.572 267.012 573.637 245.063C574.008 243.825 574.792 241.391 575.205 240.194ZM578.547 258.678C587.665 259.049 596.783 259.214 605.984 259.091C602.435 251.87 600.414 240.483 589.975 241.927C583.786 245.517 581.765 252.778 578.547 258.678Z"></path>
<path fill="#F3E6E1" d="M893.803 243.082C905.479 237.512 917.114 244.279 924.995 252.902C921.075 258.513 917.197 264.083 913.442 269.777C921.694 271.881 929.987 274.109 938.198 276.543C940.095 282.525 942.035 288.549 943.891 294.614C931.142 299.029 918.806 307.528 904.778 306.002C893.597 300.597 885.056 291.231 876.062 282.938C881.714 269.777 880.27 251.416 893.803 243.082Z"></path>
<path fill="#DDD9D9" d="M578.546 258.678C581.765 252.778 583.786 245.516 589.975 241.927C600.413 240.483 602.435 251.87 605.983 259.09C596.783 259.214 587.665 259.049 578.546 258.678Z"></path>
<path fill="#F9F5F2" d="M211.056 255.872C220.463 260.7 229.663 265.816 238.782 271.179C230.406 283.928 222.196 296.842 215.058 310.375C208.085 303.196 201.154 296.017 194.057 289.044C200.164 278.234 206.105 267.301 211.056 255.872Z"></path>
<path fill="#F9F7F6" d="M795.526 288.467C799.899 273.779 812.854 264.908 824.861 256.739C829.193 267.012 833.855 277.162 839.054 287.064C828.326 297.09 817.682 307.239 806.088 316.234C803.489 306.621 800.147 297.255 795.526 288.467Z"></path>
<path fill="#CBA2A7" d="M835.093 266.311C847.76 268.25 860.343 270.808 872.845 273.902C869.297 279.307 865.831 285.908 858.157 284.052C846.109 286.61 840.086 274.851 835.093 266.311Z"></path>
<path fill="#F0EAE7" d="M819.125 314.253C833.03 303.609 844.706 282.814 865.087 287.889C878.414 291.726 887.862 302.907 898.755 310.953C898.012 322.216 896.733 333.521 894.051 344.537C872.803 351.551 846.48 357.451 827.748 341.195C818.3 335.419 819.332 323.825 819.125 314.253Z"></path>
<path fill="#F0DFD7" d="M147.229 293.046C172.066 278.028 205.527 297.378 213.614 322.918C206.187 338.72 202.02 363.764 181.638 366.858C157.791 362.526 133.531 345.362 130.931 319.534C126.888 307.693 138.936 299.111 147.229 293.046Z"></path>
<path fill="#F4E7E3" d="M83.9794 307.569C97.4297 301.009 111.499 310.045 124.124 314.542C125.32 321.556 126.558 328.57 127.878 335.584C137.368 362.773 93.675 373.542 80.6785 352.789C85.6708 348.498 90.7044 344.248 95.6554 339.916C87.3212 338.101 79.0281 335.914 71.1064 332.82C74.3246 324.238 73.2934 310.788 83.9794 307.569Z"></path>
<path fill="#EFE8ED" d="M407.199 327.415C423.661 322.712 438.638 313.882 455.348 310.086C486.911 305.383 519.092 304.351 550.738 309.014C529.655 316.853 506.963 315.986 484.931 318.173C479.732 317.802 474.533 317.389 469.376 316.977C467.478 316.812 463.682 316.399 461.784 316.193C467.767 340.04 492.109 348.952 511.212 359.968C499.577 382.124 476.926 404.115 449.819 398.875C440.33 398.297 436.163 389.592 432.367 382.289C417.72 382.124 403.115 382.372 388.509 382.619C388.757 378.988 389.293 371.727 389.582 368.096C408.561 367.023 427.828 368.344 446.477 363.846C429.561 361.123 412.356 360.628 395.275 361.33L395.77 357.328C396.018 355.388 396.513 351.551 396.761 349.612C396.967 347.714 397.338 343.877 397.503 341.979C411.696 343.135 425.724 345.693 439.876 347.343C440.041 345.981 440.371 343.3 440.536 341.979C428.53 340.288 416.606 338.555 404.641 336.863C405.301 334.511 406.58 329.767 407.199 327.415Z"></path>
<path fill="#CA8C80" d="M550.739 309.014C561.053 309.302 571.327 309.839 581.683 310.169C589.893 310.375 598.104 310.375 606.355 310.829C612.09 311.242 617.825 311.819 623.601 312.191C617.124 313.511 610.646 314.914 604.21 316.234C605.819 318.916 607.469 321.597 609.12 324.362C593.483 321.556 576.278 317.76 561.672 326.218C560.022 326.879 556.68 328.199 555.03 328.859C532.09 322.711 508.325 321.432 484.931 318.173C506.963 315.986 529.655 316.853 550.739 309.014Z"></path>
<path fill="#CB683B" d="M728.975 308.271C748.78 307.239 768.625 305.342 788.512 305.589C793.504 317.183 797.671 329.148 800.766 341.443C788.099 342.433 775.433 343.341 762.931 345.404C761.9 334.14 762.395 322.835 764.251 311.654C752.41 311.943 740.156 312.892 728.975 308.271Z"></path>
<path fill="#F0E1DD" d="M902.385 314.46C915.877 311.943 930.565 304.97 944.056 310.747C951.731 313.552 951.689 322.258 953.051 328.983C945.872 330.592 938.734 332.325 931.761 334.347C938.157 338.596 945.253 341.608 952.308 344.702C946.862 367.89 911.091 368.302 898.755 351.304C894.711 339.256 901.189 326.631 902.385 314.46Z"></path>
<path fill="#BB8787" d="M124.124 314.542C125.815 315.78 129.24 318.297 130.931 319.534C133.531 345.362 157.791 362.526 181.638 366.858C202.02 363.764 206.187 338.72 213.614 322.918C209.983 342.722 204.331 362.155 198.142 381.299C195.006 390.953 186.837 397.431 178.874 403.042C170.375 392.397 162.866 381.051 155.274 369.829C147.27 357.41 132.087 350.437 127.878 335.584C126.558 328.57 125.32 321.556 124.124 314.542Z"></path>
<path fill="#3D1628" d="M461.785 316.193C463.683 316.399 467.479 316.812 469.376 316.977C474.575 335.914 492.275 348.87 511.625 349.571C527.964 347.673 540.96 336.409 555.03 328.859C556.68 328.199 560.022 326.879 561.672 326.219C550.45 342.144 532.75 350.767 515.751 358.978C522.146 382 546.117 395.409 569.305 391.985C580.032 393.058 587.871 385.837 594.06 378.122C606.933 380.432 619.847 382.413 632.596 385.26C663.416 395.121 694.566 404.527 723.695 418.885C721.013 419.339 715.649 420.288 712.968 420.742C707.48 419.628 702.034 418.514 696.629 417.235C665.933 400.319 632.224 389.468 597.98 382.66C585.396 415.255 571.533 452.346 537.495 468.066C523.549 476.153 507.376 473.223 493.719 466.416C504.983 465.962 516.494 467.406 527.634 464.971C538.815 461.217 547.727 453.171 556.804 445.992C539.475 439.226 520.125 432.171 501.558 438.277C488.067 443.022 474.864 449.004 460.506 450.737C447.592 429.984 435.586 408.612 425.395 386.374C383.063 386.002 345.518 407.168 307.065 421.732C305.084 421.237 301.206 420.288 299.267 419.834C324.476 406.962 351.294 397.72 377.328 386.704C385.498 385.012 385.126 375.853 387.437 369.54C357.359 371.067 328.561 380.102 299.515 387.24C326.91 366.982 363.012 367.23 395.276 361.33C412.357 360.628 429.562 361.123 446.478 363.846C427.829 368.344 408.561 367.023 389.582 368.096C389.293 371.727 388.757 378.988 388.51 382.619C403.115 382.372 417.721 382.124 432.368 382.289C436.163 389.592 440.33 398.297 449.82 398.875C476.927 404.115 499.578 382.124 511.213 359.968C492.11 348.952 467.767 340.04 461.785 316.193Z"></path>
<path fill="#D4ACA8" d="M806.831 325.104C810.916 321.515 815.042 317.925 819.126 314.253C819.333 323.825 818.301 335.419 827.749 341.195C846.481 357.451 872.804 351.551 894.052 344.537C893.474 347.219 892.319 352.624 891.741 355.306C875.774 363.599 860.055 372.882 847.842 386.332C827.914 371.809 805.346 352.17 806.831 325.104Z"></path>
<path fill="#AE3D58" d="M469.376 316.977C474.533 317.389 479.732 317.802 484.931 318.173C508.324 321.432 532.089 322.711 555.029 328.859C540.96 336.409 527.963 347.673 511.625 349.571C492.274 348.869 474.575 335.914 469.376 316.977Z"></path>
<path fill="#F0E8EA" d="M561.672 326.219C576.278 317.761 593.483 321.556 609.12 324.362C610.192 326.59 612.297 331.128 613.328 333.398C598.269 337.028 583.416 341.567 569.016 347.178C585.602 345.156 601.899 341.319 618.527 339.133C620.59 344.084 622.694 348.993 624.88 353.944C606.108 355.347 587.418 357.534 568.892 360.463C576.525 361.495 584.241 362.196 591.997 362.402C592.492 366.322 593.565 374.202 594.06 378.122C587.871 385.837 580.032 393.058 569.305 391.985C546.118 395.409 522.146 382 515.751 358.978C532.75 350.768 550.45 342.144 561.672 326.219Z"></path>
<path fill="#ECDFDE" d="M591.997 362.402C603.879 361.989 615.762 360.917 627.644 359.679C629.336 368.178 630.986 376.678 632.595 385.259C619.846 382.413 606.932 380.432 594.06 378.122C593.564 374.202 592.492 366.322 591.997 362.402Z"></path>
<path fill="#D97A43" d="M627.644 359.679C652.565 355.718 677.65 358.441 701.992 364.341C733.349 366.281 766.15 370.654 792.72 388.725C803.778 395.904 799.652 410.964 800.931 422.104C775.268 419.628 749.481 414.182 723.695 418.885C694.566 404.527 663.416 395.12 632.595 385.26C630.986 376.678 629.336 368.178 627.644 359.679Z"></path>
<path fill="#D1663C" d="M812.235 362.856C824.077 372.635 834.02 384.476 842.932 396.936C832.617 412.862 823.004 429.901 807.532 441.454C810.998 415.378 811.41 389.097 812.235 362.856Z"></path>
<path fill="#F4ECE9" d="M597.98 382.66C632.224 389.468 665.933 400.319 696.629 417.235C708.842 430.644 720.27 445.167 725.799 462.702C719.858 466.828 713.999 470.913 708.099 474.997C687.841 444.548 656.072 424.29 622.859 410.386C650.956 429.406 681.363 446.859 700.714 475.74C680.497 496.122 653.225 506.436 627.232 517.205C579.042 536.844 526.355 546.292 474.369 542.29C415.245 536.762 359.752 509.407 314.821 471.367C338.793 447.148 364.703 424.992 392.058 404.734C361.733 417.235 337.225 440.134 313.46 462.125C307.643 457.132 301.412 452.47 296.998 446.199C297.08 439.02 298.483 431.923 299.679 424.909C301.536 424.125 305.208 422.516 307.065 421.732C345.518 407.168 383.063 386.002 425.395 386.374C435.586 408.612 447.592 429.984 460.506 450.737C474.864 449.004 488.067 443.022 501.558 438.277C520.124 432.171 539.475 439.226 556.803 445.992C547.727 453.171 538.815 461.217 527.634 464.971C516.494 467.406 504.983 465.962 493.719 466.416C507.376 473.223 523.549 476.153 537.494 468.066C571.533 452.346 585.396 415.255 597.98 382.66Z"></path>
<path fill="#E7713E" d="M187.291 409.024C190.138 402.175 196.657 397.885 201.814 392.851C204.702 405.93 207.136 419.091 208.704 432.418C200.741 425.445 192.613 418.266 187.291 409.024Z"></path>
<path fill="#D67343" d="M696.629 417.235C702.034 418.514 707.48 419.628 712.967 420.742C738.011 432.625 760.415 449.169 779.848 468.891C765.201 485.725 747.666 499.959 727.326 509.242C720.848 497.855 714.824 486.22 708.099 474.997C713.999 470.913 719.858 466.828 725.799 462.702C720.27 445.167 708.842 430.644 696.629 417.235Z"></path>
<path fill="#E6B484" d="M289.654 429.241C292.996 427.756 296.338 426.353 299.679 424.909C298.483 431.923 297.08 439.02 296.998 446.199C301.412 452.47 307.643 457.132 313.46 462.124C309.747 465.92 306.198 469.84 302.815 473.924C297.658 469.221 292.542 464.559 287.426 459.855C288.664 449.664 289.447 439.432 289.654 429.241Z"></path>
<path fill="#DB8652" d="M239.194 466.58C250.54 447.89 269.437 436.255 289.654 429.241C289.447 439.432 288.663 449.664 287.426 459.855C292.542 464.558 297.658 469.221 302.815 473.924C298.565 480.154 294.935 486.838 291.84 493.728C290.19 497.194 288.622 500.742 287.137 504.291C270.097 493.11 253.924 480.649 239.194 466.58Z"></path>
<path fill="#301228" d="M850.73 487.375C872.349 470.624 901.189 466.663 927.719 469.427C957.961 473.099 968.152 526.364 937.662 535.895C924.129 535.152 910.72 533.749 897.27 532.512C895.413 524.26 893.515 516.008 891.658 507.798C889.513 497.318 886.748 487.003 883.654 476.813C873.009 481.268 862.612 486.22 852.628 491.955C852.133 490.799 851.225 488.53 850.73 487.375Z"></path>
<path fill="#C9A39C" d="M291.84 493.729C299.225 486.013 307.147 478.793 314.821 471.366C359.752 509.407 415.245 536.761 474.368 542.29C526.354 546.292 579.041 536.844 627.232 517.205C653.225 506.436 680.496 496.122 700.713 475.74C709.501 486.962 716.804 499.257 723.447 511.882C663.085 545.508 593.895 555.617 527.138 569.026C552.43 569.975 577.35 564.982 602.023 560.32C604.911 567.582 607.799 574.843 610.315 582.311L611.347 585.653C540.836 598.608 468.344 594.4 398.617 579.01C401.794 573.523 405.012 568.118 408.313 562.672C425.394 565.354 442.599 567.54 459.928 567.788C435.461 558.381 408.808 557.762 383.805 550.212C356.74 543.239 331.325 531.357 307.271 517.37C300.422 513.161 293.779 508.747 287.136 504.291C288.622 500.743 290.189 497.194 291.84 493.729Z"></path>
<path fill="#DF8D4D" d="M852.627 491.955C862.612 486.22 873.009 481.269 883.654 476.813C886.748 487.004 889.513 497.318 891.658 507.798C892.236 516.586 892.401 525.457 892.607 534.286C886.583 535.276 880.642 536.308 874.742 537.339C866.985 522.362 859.518 507.262 852.627 491.955Z"></path>
<path fill="#2A192E" d="M807.904 558.216C811.782 529.665 830.101 506.189 850.73 487.375C851.226 488.53 852.133 490.799 852.628 491.955C859.519 507.261 866.986 522.362 874.743 537.339C880.643 536.308 886.584 535.276 892.608 534.286C892.402 525.456 892.237 516.586 891.659 507.798C893.516 516.008 895.414 524.26 897.27 532.512C910.721 533.749 924.13 535.152 937.663 535.895C915.754 543.982 888.152 531.357 870.163 549.799C852.835 565.725 856.094 590.893 856.177 612.058C857.043 651.749 838.683 694.493 801.592 712.523C800.436 710.584 798.126 706.665 796.971 704.725C803.283 701.59 809.513 698.413 815.826 695.153C809.596 680.795 801.138 667.139 787.811 658.351L789.007 656.04C805.593 626.251 805.057 591.182 807.904 558.216ZM829.647 516.586C825.604 523.476 821.643 530.408 817.847 537.422C829.978 546.333 840.952 556.731 850.4 568.531C855.021 560.733 859.725 552.976 864.552 545.302C853.412 535.111 841.901 525.374 829.647 516.586ZM811.906 570.181C811.7 581.816 807.987 595.142 815.001 605.54C823.706 615.937 838.353 615.112 850.607 616.226C850.813 604.467 849.41 592.832 847.677 581.238C836.538 575.379 824.449 571.501 811.906 570.181ZM808.771 637.102C805.635 641.187 802.499 645.23 799.446 649.315C808.11 660.001 817.27 670.274 826.47 680.465C833.113 672.337 838.312 663.137 841.984 653.317C831.504 646.716 820.323 641.352 808.771 637.102Z"></path>
<path fill="#431B28" d="M168.229 500.412C187.332 515.843 204.248 533.873 222.484 550.335C227.765 558.34 217.616 567.458 216.295 575.833C204.537 603.394 207.466 633.843 213.614 662.353C198.265 654.926 197.605 635.122 196.161 620.392C193.933 596.504 202.639 573.481 215.305 553.636C207.012 547.076 200.122 537.916 190.014 534.162C178.833 536.555 168.435 542.95 156.759 542.868C149.003 541.382 141.7 538.37 134.356 535.606C134.108 533.461 133.572 529.128 133.283 526.983C150.075 532.47 168.312 533.667 184.939 526.859C178.585 518.566 172.025 510.273 168.229 500.412Z"></path>
<path fill="#34162B" d="M302.774 519.391C303.929 518.855 306.157 517.865 307.271 517.37C331.325 531.356 356.74 543.239 383.806 550.211C408.808 557.762 435.462 558.381 459.928 567.788C442.599 567.54 425.394 565.353 408.313 562.672C381.578 558.009 356.286 547.942 330.046 541.423C338.091 548.685 346.384 555.74 354.264 563.29C352.325 563.084 348.447 562.713 346.549 562.548C335.285 559.371 324.063 556.318 312.635 554.09C321.34 586.684 356.286 599.433 376.544 623.611C354.718 620.269 333.759 612.801 311.933 609.624C301.412 607.767 291.716 613.42 282.144 616.72C302.031 648.118 335.12 666.767 363.341 689.624C333.553 689.006 304.218 682.569 276.781 671.058C278.596 681.579 276.203 694.699 285.074 702.538C312.222 726.592 348.488 735.958 377.493 757.082C347.25 758.65 317.586 748.707 287.302 752.049C296.544 771.894 317.132 781.342 333.181 794.71C350.386 808.697 368.664 821.405 385.167 836.258C357.194 833.823 333.883 817.196 308.674 806.593C312.882 816.866 317.379 827.016 321.546 837.331C320.845 839.105 319.442 842.653 318.741 844.386C310.076 832.462 303.599 818.64 292.418 808.862C280.04 805.52 267.91 810.801 256.77 815.546C263 817.485 269.313 819.383 275.749 820.703C266.59 823.261 257.265 824.953 247.858 826.191C254.542 817.361 261.845 809.151 269.189 800.899C256.481 799.703 243.774 799.455 231.066 800.115C228.632 799.826 223.763 799.207 221.329 798.877C241.628 783.694 267.374 795.164 289.406 799.207C285.569 778.908 275.543 760.383 271.83 740.043C264.568 702.745 263.331 663.838 271.458 626.581C277.276 597.411 284.042 568.035 297.41 541.258C301.082 534.492 303.104 527.065 302.774 519.391Z"></path>
<path fill="#D4753E" d="M829.647 516.586C841.901 525.374 853.412 535.111 864.552 545.302C859.725 552.976 855.021 560.733 850.4 568.53C840.952 556.73 829.977 546.333 817.847 537.421C821.643 530.407 825.604 523.476 829.647 516.586Z"></path>
<path fill="#D36F41" d="M330.046 541.424C356.286 547.943 381.578 558.01 408.313 562.672C405.013 568.118 401.794 573.523 398.618 579.01L397.132 581.61C380.216 575.297 363.3 569.108 346.549 562.548C348.447 562.713 352.325 563.084 354.264 563.291C346.384 555.74 338.091 548.685 330.046 541.424Z"></path>
<path fill="#D4723F" d="M602.023 560.32C624.427 555.947 646.418 549.923 668.615 544.683C662.715 553.389 656.774 562.012 651.162 570.882C674.68 564.817 696.629 553.182 720.931 550.088C722.251 555.328 723.613 560.609 724.974 565.89C700.549 590.026 669.316 606.2 646.253 631.739C679.425 628.686 710.699 615.524 743.912 612.677C742.88 621.548 743.747 632.151 735.867 638.299C716.764 655.875 691.926 665.406 671.544 681.29C696.464 683.518 721.508 682.735 746.47 682.858C746.016 688.923 745.562 694.988 745.191 701.095C716.392 718.547 684.499 729.357 652.978 740.538C656.361 686.035 642.869 632.688 630.45 580.124C623.684 580.826 617 581.527 610.316 582.311C607.799 574.843 604.912 567.582 602.023 560.32Z"></path>
<path fill="#E1904F" d="M312.634 554.09C324.063 556.318 335.285 559.371 346.549 562.548C363.3 569.108 380.216 575.297 397.132 581.61C370.19 648.82 364.084 726.593 391.026 794.793C405.549 828.13 431.253 859.322 466.653 871.204C430.758 871.246 395.605 887.419 359.752 880.776C343.166 870.338 333.057 852.679 321.546 837.331C317.379 827.016 312.882 816.867 308.673 806.593C333.882 817.197 357.194 833.824 385.167 836.258C368.664 821.405 350.386 808.697 333.181 794.711C317.131 781.343 296.543 771.895 287.301 752.049C317.585 748.707 347.25 758.651 377.493 757.083C348.488 735.958 312.222 726.593 285.074 702.539C276.203 694.7 278.596 681.579 276.781 671.058C304.218 682.57 333.552 689.006 363.341 689.625C335.12 666.768 302.031 648.119 282.144 616.721C291.716 613.42 301.412 607.768 311.933 609.624C333.759 612.801 354.718 620.269 376.544 623.611C356.286 599.433 321.34 586.685 312.634 554.09Z"></path>
<path fill="#3C111B" d="M150.158 576.205C161.051 567.582 173.139 560.196 186.796 556.854C179.039 569.108 167.899 578.557 159.153 590.026C156.842 590.068 152.18 590.15 149.869 590.192C149.911 585.488 150.034 580.867 150.158 576.205Z"></path>
<path fill="#D8713A" d="M811.906 570.181C824.449 571.501 836.538 575.379 847.678 581.238C849.411 592.832 850.813 604.467 850.607 616.226C838.353 615.112 823.706 615.937 815.001 605.54C807.987 595.142 811.7 581.816 811.906 570.181Z"></path>
<path fill="#F4EBE9" d="M397.133 581.61L398.618 579.01C468.345 594.4 540.836 598.608 611.347 585.653C627.108 649.439 645.716 718.96 620.796 782.911C610.399 814.309 590.759 841.828 565.757 863.283C564.354 863.902 561.548 865.057 560.146 865.634C530.811 878.383 497.474 877.311 466.654 871.204C431.254 859.322 405.549 828.13 391.026 794.793C364.084 726.593 370.191 648.82 397.133 581.61Z"></path>
<path fill="#E39752" d="M610.316 582.311C617 581.527 623.683 580.825 630.45 580.124C642.869 632.688 656.36 686.035 652.977 740.538C648.067 742.394 643.24 744.292 638.413 746.231C637.01 746.685 634.163 747.552 632.719 748.006C639.279 749.821 645.839 751.678 652.441 753.534C655.123 784.437 649.553 817.485 631.151 843.024C614.854 861.467 587.5 857.258 565.756 863.282C590.759 841.828 610.398 814.308 620.796 782.91C645.716 718.959 627.108 649.439 611.347 585.653L610.316 582.311Z"></path>
<path fill="#D0663B" d="M808.77 637.102C820.322 641.352 831.504 646.716 841.983 653.317C838.311 663.136 833.113 672.337 826.47 680.465C817.269 670.274 808.11 660.001 799.446 649.315C802.499 645.23 805.634 641.187 808.77 637.102Z"></path>
<path fill="#CF6438" d="M787.81 658.351C801.137 667.139 809.595 680.795 815.825 695.153C809.512 698.413 803.283 701.59 796.97 704.725C790.946 694.576 785.046 684.343 779.188 674.153C782.034 668.871 784.964 663.632 787.81 658.351Z"></path>
<path fill="#E0743E" d="M759.218 676.917C773.618 681.951 773.824 698.99 777.125 711.45C770.812 711.574 764.541 711.657 758.269 711.698C757.568 700.063 757.65 688.428 759.218 676.917Z"></path>
<path fill="#D3703F" d="M632.72 748.006C634.164 747.552 637.01 746.686 638.413 746.232C672.493 749.739 706.284 741.982 740.363 743.096C721.508 775.979 684.623 792.235 663.787 823.427C685.572 821.405 703.602 808.656 721.962 798.053C706.201 826.562 684.747 851.689 671.709 881.767C633.833 881.89 596.866 873.721 560.146 865.634C561.548 865.057 564.354 863.902 565.757 863.283C587.5 857.259 614.855 861.467 631.152 843.025C649.553 817.486 655.123 784.437 652.441 753.535C645.84 751.678 639.28 749.821 632.72 748.006Z"></path>
<path fill="#E5D2D9" d="M231.066 800.115C243.774 799.455 256.482 799.703 269.189 800.899C261.845 809.151 254.543 817.362 247.859 826.191C241.959 826.315 236.059 825.985 230.159 825.861C233.748 825.613 240.845 825.159 244.393 824.912C233.996 821.322 223.392 818.476 212.83 815.587C218.689 810.141 224.713 804.943 231.066 800.115Z"></path>
<path fill="#F1D9D5" d="M753.071 802.014C761.653 799.909 770.399 798.672 779.229 797.97C779.806 800.487 781.003 805.562 781.58 808.12C790.245 800.776 800.56 801.725 808.522 809.894C800.972 814.432 793.587 819.218 786.655 824.582C784.758 825.16 781.003 826.356 779.146 826.975C778.651 824.458 777.702 819.466 777.207 816.991C768.213 813.649 758.269 810.76 753.071 802.014Z"></path>
<path fill="#C0807C" d="M728.439 808.862C731.038 807.748 736.278 805.562 738.878 804.448C752.864 809.399 764.788 818.641 776.34 827.759C757.527 834.732 740.198 822.519 728.439 808.862Z"></path>
<path fill="#CCA29C" d="M256.77 815.546C267.91 810.801 280.04 805.52 292.418 808.862C303.599 818.64 310.077 832.462 318.741 844.386C326.58 857.424 337.885 867.986 345.559 881.106C343.868 896.207 332.439 910.854 317.421 914.608C301.619 915.846 287.673 906.356 274.677 898.724C255.574 886.016 234.821 874.216 221.247 855.154C256.069 861.467 283.671 886.717 318.617 893.154C320.103 886.635 323.898 879.91 321.382 873.184C314.491 852.101 301.165 833.824 286.931 817.155C283.176 818.393 279.463 819.589 275.75 820.703C269.313 819.383 263.001 817.485 256.77 815.546Z"></path>
<path fill="#F0EAE8" d="M700.177 846.738C708.924 833.618 719.568 821.9 728.439 808.863C740.198 822.519 757.527 834.732 776.341 827.759L779.146 826.975C781.003 826.356 784.757 825.16 786.655 824.582C794.989 823.757 803.2 822.23 811.493 820.662C811.163 826.562 810.792 832.462 810.379 838.362C784.716 849.379 763.468 868.027 738.383 879.91C726.211 886.14 710.657 881.148 702.735 870.503C698.279 863.448 700.012 854.577 700.177 846.738Z"></path>
<path fill="#96A487" d="M149.621 815.051C173.056 814.845 182.257 839.352 194.098 855.278C198.843 854.123 203.629 853.092 208.456 852.143C209.281 853.05 210.89 854.866 211.716 855.815C199.709 859.363 187.909 863.695 176.398 868.605C183.701 882.674 193.974 895.423 208.25 902.932C233.088 916.754 259.534 927.646 285.734 938.703C244.31 935.403 202.969 929.709 162.618 919.889C141.824 914.154 118.595 909.863 104.031 892.411C110.962 882.592 121.153 876.238 131.798 871.039C125.32 862.581 119.379 853.71 115.047 843.973C134.686 841.457 149.498 854.948 165.176 864.149C160.019 847.769 150.158 832.669 149.621 815.051Z"></path>
<path fill="#EEE5E9" d="M275.749 820.704C279.463 819.59 283.176 818.393 286.93 817.155C301.165 833.824 314.491 852.101 321.381 873.185C323.898 879.91 320.102 886.635 318.617 893.154C283.671 886.717 256.069 861.467 221.246 855.155C216.749 846.862 208.415 838.156 211.757 828.048C217.781 826.727 223.97 826.067 230.158 825.861C236.058 825.985 241.958 826.315 247.858 826.191C257.265 824.953 266.59 823.262 275.749 820.704Z"></path>
<path fill="#818B6A" d="M716.185 923.644C761.364 911.844 803.448 879.786 819.415 834.938C823.912 843.643 830.266 851.111 837.28 857.96C834.061 872.689 832.04 889.193 820.075 899.796C802.746 915.639 780.26 923.932 759.466 934C748.945 937.589 737.764 939.033 726.748 939.157C716.928 938.703 707.191 937.878 697.454 937.218C707.315 934 717.176 930.864 727.036 927.687C725.139 927.027 721.425 925.665 719.527 925.005L716.185 923.644Z"></path>
<path fill="#CCA8A9" d="M738.383 879.91C763.468 868.027 784.717 849.378 810.38 838.362C798.538 867.573 773.989 890.018 746.965 905.16C733.143 911.431 715.072 919.972 701.333 909.162C692.462 901.653 683.798 891.998 681.817 880.24C682.643 866.996 692.462 856.763 700.178 846.738C700.013 854.577 698.28 863.447 702.736 870.503C710.657 881.147 726.212 886.14 738.383 879.91Z"></path>
<path fill="#7C8969" d="M211.716 855.814C232.428 880.487 259.287 899.177 287.591 914.196C299.514 920.797 313.295 921.746 326.662 922.406C318.741 923.396 310.902 924.675 303.063 925.913C306.157 929.956 309.251 933.958 312.387 938.043C309.499 938.497 303.723 939.446 300.835 939.941C295.677 940.477 290.644 940.106 285.734 938.703C259.535 927.646 233.088 916.754 208.25 902.932C193.975 895.423 183.701 882.674 176.398 868.605C187.91 863.695 199.71 859.363 211.716 855.814Z"></path>
<path fill="#7A8167" d="M524.209 883.953C539.392 882.262 553.874 876.114 569.222 875.99C585.643 877.682 601.322 883.541 617.784 885.397C636.598 888.244 655.989 886.924 674.514 891.627C688.006 902.767 698.775 917.992 716.186 923.644L719.528 925.006C620.177 931.112 520.455 932.267 421.021 926.903C389.5 926.161 358.184 918.239 326.663 922.406C335.286 911.761 343.826 900.952 352.037 889.977C381.124 891.833 409.799 886.429 438.226 880.941C466.983 875.33 495.411 888.285 524.209 883.953Z"></path>
<path fill="#909F7D" d="M326.662 922.406C358.184 918.239 389.5 926.161 421.021 926.904C520.455 932.267 620.177 931.112 719.528 925.006C721.425 925.666 725.139 927.027 727.037 927.687C717.176 930.864 707.315 934 697.454 937.218C707.191 937.878 716.928 938.704 726.748 939.157C684.499 947.12 641.219 947.822 598.351 949.431C546.159 953.02 493.801 952.113 441.527 951.081C394.657 947.533 346.962 949.967 300.835 939.941C303.723 939.446 309.499 938.497 312.387 938.043C309.251 933.959 306.157 929.957 303.063 925.913C310.902 924.676 318.741 923.397 326.662 922.406Z"></path>
</svg>
