<svg xmlns="http://www.w3.org/2000/svg" fill="none" viewBox="0 0 1024 1024" height="1024" width="1024">
<rect fill="white" height="1024" width="1024"></rect>
<path fill="#FDFDFD" d="M777.788 568.889C784.248 568.974 786.543 578.579 783.185 583.127C775.067 587.93 769.542 571.269 777.788 568.889Z"></path>
<path fill="#311728" d="M138.497 493.191C139.475 494.338 141.387 496.718 142.322 497.908C139.347 503.094 135.989 508.024 132.674 513.04C134.969 516.27 137.222 519.5 139.517 522.773C134.077 523.623 128.551 524.218 123.068 524.77C121.326 511.595 129.741 501.734 138.497 493.191Z"></path>
<path fill="#311728" d="M811.45 527.406C823.776 530.423 835.082 543.089 829.769 556.223C817.188 557.328 804.565 556.308 791.984 557.073C791.176 551.717 790.411 546.404 789.646 541.092C799.677 548.572 811.578 552.95 824.286 551.845C820.248 543.514 815.573 535.609 811.45 527.406Z"></path>
<path fill="#442031" d="M106.96 381.79C110.275 377.497 120.688 376.307 121.453 383.278C120.561 391.311 101.434 391.226 106.96 381.79Z"></path>
<path fill="#442031" d="M843.115 431.689C861.773 432.369 879.157 440.444 895.011 449.71C901.641 452.175 898.156 459.613 898.071 464.671C880.815 451.835 858.756 446.607 843.115 431.689Z"></path>
<path fill="#442031" d="M106.493 449.412C115.461 443.929 124.727 438.532 135.182 436.576C129.742 442.782 123.366 448.052 117.034 453.365C123.664 453.79 130.252 454.343 136.84 455.065C127.702 459.613 117.586 461.016 107.47 460.166C107.258 457.488 106.748 452.09 106.493 449.412Z"></path>
<path fill="#442031" d="M587.883 442.017C606.372 447.457 625.414 450.432 644.2 454.513C654.528 456.468 664.006 462.121 670.169 470.749C670.764 472.236 671.912 475.254 672.465 476.742C649.3 461.016 621.886 454.683 594.386 451.835C575.43 448.392 556.006 447.755 537.347 442.909C554.136 441.039 571.052 442.399 587.883 442.017Z"></path>
<path fill="#442031" d="M107.045 480.27C120.349 474.404 133.61 467.816 148.188 465.904C135.437 481.162 115.928 488.77 96.8445 492.213C98.3321 486.815 101.35 481.8 107.045 480.27Z"></path>
<path fill="#442031" d="M818.803 486.348C830.619 492.595 839.8 503.774 840.947 517.46C827.644 512.912 821.396 499.098 818.803 486.348Z"></path>
<path fill="#442031" d="M151.333 504.539C163.149 498.673 166.04 512.997 167.825 521.413C169.355 528.043 162.554 532.378 159.707 537.521C154.521 529.361 155.541 519.67 153.459 510.702C152.949 509.172 151.886 506.069 151.333 504.539Z"></path>
<path fill="#F5EAE6" d="M444.181 812.092C449.961 814.217 455.784 816.342 461.607 818.552C460.842 820.975 459.312 825.863 458.504 828.328C452.979 828.753 447.453 829.433 441.928 830.071C442.651 824.078 443.288 818.042 444.181 812.092Z"></path>
<path fill="#35152B" d="M157.751 157.458C168.25 115.847 204.122 80.9098 246.668 73.4718C284.963 66.8838 322.919 83.2049 352.458 106.624C371.372 98.4636 389.649 87.7528 410.093 84.055C415.108 85.3726 420.123 86.8177 425.139 88.3053C420.889 89.8355 416.681 91.3231 412.473 92.8107C404.865 94.0858 397.214 95.1909 389.776 97.3585C373.625 101.354 358.026 107.772 344.128 117.038C322.579 102.799 297.969 90.1329 271.362 92.0881C235.532 93.0231 204.335 120.608 193.922 154.058C190.564 166.639 189.331 181.005 195.792 192.863C203.187 207.059 215.343 217.898 227.372 228.183C229.157 225.718 232.77 220.745 234.597 218.28C226.309 197.453 211.645 174.799 221.379 151.848C227.839 130.469 250.408 119.29 271.447 118.525C289.766 116.442 307.065 123.838 323.386 131.234C301.54 147.597 282.158 167.234 265.795 189.08C254.871 204.126 243.055 219.045 236.255 236.514C241.313 263.546 259.079 286.243 267.367 312.339C244.033 306.262 221.506 296.996 201.742 283.012C198.81 288.538 195.707 294.021 193.412 299.886C204.122 333.421 237.955 350.295 259.759 375.627C252.916 376.689 245.903 376.774 239.188 374.947C216.491 369.506 193.922 363.471 171.097 358.328C171.82 369.846 169.482 383.532 178.791 392.373C196.004 411.032 221.634 417.79 245.435 423.74C271.15 430.413 297.672 424.675 323.769 424.208C336.392 424.378 349.058 425.568 361.469 428.033C357.261 428.628 348.846 429.818 344.595 430.371C343.108 430.371 340.09 430.371 338.602 430.371C302.007 430.031 265.497 437.001 230.687 448.052C216.491 452.727 203.442 460.208 191.456 469.006C191.626 473.299 191.754 477.592 191.839 481.885C191.839 483.755 191.881 487.453 191.881 489.28C159.962 458.55 149.633 411.117 154.691 368.231C161.109 327.216 183.933 291.598 206.715 257.85C196.387 247.012 183.083 239.107 174.2 226.823C159.452 207.527 150.526 181.43 157.751 157.458ZM253.469 128.301C238.592 135.824 224.141 149.935 225.756 167.999C223.674 183.937 231.622 198.346 240.718 210.672C255.424 192.566 269.917 174.204 286.153 157.416C295.972 150.36 305.152 142.412 313.611 133.784C295.887 122.223 272.935 119.205 253.469 128.301ZM171.82 428.416C173.988 440.529 178.663 451.962 185.549 462.206C205.568 451.495 226.989 443.887 247.348 433.984C222.484 429.011 197.067 428.671 171.82 428.416Z"></path>
<path fill="#35152B" d="M82.6912 273.704C95.8246 280.76 102.795 294.786 114.696 303.371C125.067 312.17 138.88 317.312 145.893 329.596C124.429 326.195 106.366 311.957 92.212 296.188C86.134 290.195 84.2638 281.78 82.6912 273.704Z"></path>
<path fill="#F5ECEB" d="M230.687 448.052C265.497 437.001 302.007 430.031 338.602 430.371C342.045 444.099 345.02 459.826 358.069 467.944C382.211 487.113 417.021 484.307 441.715 467.689C452.851 479.76 464.794 492.638 481.243 497.016C510.273 506.579 545.55 495.018 559.789 467.094C575.6 475.297 597.617 478.569 603.44 498.078C601.187 501.054 598.977 503.986 596.767 506.962C597.362 507.684 598.594 509.087 599.189 509.809C608.157 527.363 616.36 545.384 622.991 564.001C616.53 568.676 609.942 573.096 603.099 577.219C536.667 594.051 465.899 590.778 399.424 575.562C344.595 561.196 287.556 535.439 255.509 486.475C274.55 473.002 295.972 463.566 315.353 450.687C293.932 459.018 272.255 467.646 253.213 480.737C245.903 477.592 236.51 476.572 231.919 469.389C230.814 462.333 230.899 455.15 230.687 448.052Z"></path>
<path fill="#F2ECEA" d="M559.533 346.257C561.829 333.124 577.342 330.404 582.358 343.92C574.792 345.067 567.142 345.79 559.533 346.257Z"></path>
<path fill="#2F1C2A" d="M599.189 509.81C613.682 523.411 620.738 542.409 626.773 560.856C625.838 561.621 623.925 563.236 622.99 564.001C616.36 545.385 608.157 527.363 599.189 509.81Z"></path>
<path fill="#2F1C2A" d="M678.33 519.16C680.242 518.267 684.11 516.44 686.023 515.547C708.465 517.927 728.994 527.448 750.075 534.674C758.108 538.414 763.591 529.488 769.371 525.578C770.647 527.916 773.239 532.634 774.514 535.014C756.153 558.731 731.161 575.647 704.214 588.185C719.983 607.227 731.161 629.753 736.772 653.81C743.062 675.657 740.469 698.523 741.234 720.88C762.188 727.681 784.545 732.143 803.289 744.257C803.629 754.755 803.672 765.338 803.927 775.879C810.642 774.562 817.358 773.286 824.116 772.011C820.078 763.086 816.04 754.203 811.025 745.787C816.763 745.404 822.543 745.064 828.323 744.724C830.704 753.097 833.424 761.386 836.186 769.674C841.882 767.464 847.535 765.253 853.23 763.001C847.705 754.415 841.032 746.297 831.214 742.599C849.618 729.976 851.105 705.239 844.985 685.645C837.632 666.646 825.986 648.412 826.326 627.288C825.773 590.013 842.775 549.932 876.65 531.486C890.251 522.943 907.209 520.265 922.808 524.09C935.516 529.828 934.156 545.682 932.159 557.158C921.023 566.296 906.232 569.229 894.076 576.794C896.073 561.111 889.74 546.32 883.705 532.251C875.204 538.287 866.789 544.449 858.458 550.74C867.511 560.898 876.735 571.014 887.488 579.429C871.124 597.578 873.887 624.865 880.347 646.585C866.491 650.112 853.698 656.785 841.924 664.776C844.857 670.174 847.662 675.742 851.105 680.885C860.158 682.67 869.169 678.249 878.052 676.804C879.412 669.154 880.815 661.546 882.09 653.938C888.295 669.494 891.016 686.112 893.821 702.561C881.282 700.053 868.701 697.716 856.078 695.973C859.138 702.774 858.543 713.23 866.831 716.162C875.289 719.01 884.343 717.99 893.141 718.245C889.57 744.214 870.954 765.423 847.662 776.262C817.91 785.782 786.033 784.252 755.516 779.705C744.847 778.387 734.051 776.134 723.256 777.409C709.867 784.847 706.424 802.996 693.333 810.859C670.084 817.915 645.305 815.535 621.29 816.257C607.264 836.659 590.603 857.23 564.846 862.203L565.739 857.953C566.929 857.018 569.309 855.233 570.457 854.298C595.916 842.142 609.475 816.852 620.695 792.413C607.349 792.923 593.876 792.583 580.827 789.395C579.595 787.908 577.087 784.932 575.855 783.445C591.836 773.754 609.772 768.356 627.071 761.726C636.379 758.878 637.824 747.955 641.905 740.474C618.613 736.224 594.981 735.289 571.392 734.566C580.572 724.025 592.771 717.14 604.927 710.679C618.57 713.442 632.256 716.12 645.9 719.052C644.157 708.257 642.415 697.461 640.587 686.665C633.319 688.96 626.136 691.425 618.868 693.636C595.661 700.181 568.884 702.689 551.628 721.433C550.65 719.052 548.738 714.335 547.76 711.954C555.963 693.211 555.581 672.341 553.668 652.407C552.393 641.994 550.31 631.708 548.483 621.423C543.127 621.338 537.814 621.21 532.501 621.083C515.84 620.148 499.221 618.915 482.815 616.11C534.584 615.132 586.905 615.09 637.697 603.656C652.828 600.596 667.661 596.048 681.773 589.8C683.515 588.993 687.043 587.42 688.786 586.613C701.961 580.492 714.712 573.522 727.166 566.041C714.882 546.66 695.841 533.356 678.33 519.16ZM840.862 584.53C834.741 599.321 829.174 614.835 831.086 631.156C842.647 629.541 854.165 627.628 865.641 625.716C867.299 614.325 868.489 602.891 869.084 591.458C859.648 589.163 850.255 586.783 840.862 584.53ZM676.035 615.685C666.599 630.348 647.43 626.566 632.724 626.778C642.415 655.808 651.638 685.56 653.04 716.375C656.781 750.547 631.916 777.834 623.798 809.499C645.857 811.029 668.724 810.944 690.018 804.229C700.049 793.178 705.022 778.004 713.735 765.721C698.349 767.974 683.303 771.799 668.001 774.392C685.555 754.245 715.307 748.252 728.866 723.855C709.059 720.71 689.508 726.788 669.787 725.513C686.618 708.214 712.035 702.689 728.101 684.582C728.101 679.652 727.336 674.764 726.783 669.919C705.957 670.599 685.938 676.294 665.961 681.607C680.625 662.183 700.856 648.2 717.518 630.603C711.44 617.555 705.872 603.741 695.501 593.413C684.365 594.348 682.963 608.799 676.035 615.685ZM556.941 620.403C557.238 633.366 558.131 646.287 559.703 659.123C574.962 641.782 593.791 628.606 613.98 617.64C594.896 616.11 575.812 617.767 556.941 620.403ZM560.638 696.908C582.953 685.857 604.927 672.001 621.29 653.088C596.851 657.805 565.144 668.729 560.638 696.908ZM854.165 719.435C852.125 725.343 850.213 731.251 848.257 737.201C853.145 744.002 858.033 750.802 862.964 757.645C870.104 751.95 879.625 744.554 875.757 734.056C870.954 726.235 861.943 723.218 854.165 719.435ZM730.906 767.123C738.599 766.868 751.903 772.054 753.305 760.536C758.576 748.805 758.958 729.721 742.892 727.213C732.776 736.776 734.264 754.033 730.906 767.123ZM773.834 736.181C770.902 747.997 768.139 759.856 765.249 771.714C772.304 772.989 779.36 774.264 786.458 775.582C787.605 761.386 790.071 742.684 773.834 736.181Z"></path>
<path fill="#2F1C2A" d="M769.627 564.299C777.32 564.129 785.098 564.809 791.899 568.719C791.516 576.072 791.091 583.51 790.709 590.906C786.543 591.458 782.42 591.883 778.298 592.096C768.054 586.57 770.094 573.989 769.627 564.299ZM777.788 568.889C769.542 571.269 775.067 587.93 783.185 583.128C786.543 578.58 784.248 568.974 777.788 568.889Z"></path>
<path fill="#2F1428" d="M410.093 84.0553C520.346 51.2003 645.475 93.1084 722.066 176.967C759.129 156.311 806.775 146.747 845.623 168.297C903.937 198.771 912.863 292.151 860.244 332.189C843.497 346.98 820.716 349.318 799.719 352.845C819.738 413.242 809.325 482.012 774.515 535.014C773.24 532.634 770.647 527.916 769.372 525.578C765.759 519.543 761.721 513.805 756.876 508.704C745.613 499.651 731.417 490.598 734.264 473.852C752.583 475.892 770.137 481.502 787.691 486.773C787.946 478.612 788.201 470.494 788.456 462.376C760.871 445.162 725.424 451.453 698.732 432.836C730.864 420.765 764.526 413.242 798.614 409.672C796.276 400.364 799.464 386.253 787.776 382.683C767.629 374.649 745.485 373.629 724.998 366.489C733.032 359.943 741.362 353.695 750.415 348.595C762.401 342.347 774.302 335.929 785.863 328.916C775.28 290.323 759.894 253.005 740.13 218.238C720.196 181.77 689.296 151.465 652.871 131.616C657.886 142.795 663.114 153.93 668.639 164.896C643.69 148.193 615.935 132.211 584.908 132.976C604.885 151.04 626.051 169.147 636.804 194.606C620.908 184.363 606.372 170.974 587.713 166.044C567.014 160.519 545.423 163.154 524.299 162.984C534.669 136.122 555.666 115.975 576.917 97.4863C555.326 91.5784 533.394 86.7755 511.208 83.6728C509.465 108.155 507.127 132.721 500.624 156.481C485.196 147.003 471.042 134.804 453.573 129.279C437.422 124.348 421.356 131.574 405.842 135.442C404.015 135.654 400.317 136.122 398.489 136.334C419.911 116.74 448.345 109.43 476.313 105.264C463.732 101.269 450.556 96.0412 437.167 99.2289C420.973 102.417 405.502 108.495 389.521 112.49C396.959 105.647 404.567 99.0589 412.473 92.8109C416.68 91.3233 420.888 89.8357 425.139 88.3056C420.123 86.818 415.108 85.3729 410.093 84.0553ZM727.209 188.486C732.394 194.521 734.859 204.892 742.977 207.485C762.189 201.874 781.825 196.901 802.099 198.686C817.953 206.379 833.807 221.001 830.661 240.424C833.849 266.691 813.278 286.158 793.811 299.971C786.033 303.584 785.481 314.635 794.109 317.738C819.696 312.595 846.685 299.461 858.246 274.682C873.93 243.91 861.264 203.107 832.277 185.085C818.293 175.692 801.334 173.312 785.098 170.932C764.697 172.249 744.72 177.817 727.209 188.486ZM745.953 214.115C760.064 241.827 773.495 269.837 784.885 298.781C790.071 296.529 795.256 294.319 800.484 292.108L799.209 289.133C808.602 282.418 817.358 274.342 822.288 263.674C831.724 245.142 828.111 219.343 808.22 209.355C788.966 196.434 765.292 206.804 745.953 214.115Z"></path>
<path fill="#E38D4A" d="M511.207 83.6722C533.394 86.775 555.325 91.5778 576.917 97.4858C555.665 115.975 534.669 136.121 524.298 162.983C545.422 163.153 567.014 160.518 587.713 166.043C606.372 170.974 620.908 184.362 636.804 194.606C626.051 169.146 604.884 151.04 584.908 132.976C615.935 132.211 643.69 148.192 668.639 164.896C685.3 182.535 704.129 198.176 719.303 217.26C734.391 235.876 743.147 258.87 747.992 282.162C747.95 301.713 740.554 321.052 723.213 331.466C706.382 337.756 689.168 342.984 671.444 346.002C662.731 327.428 650.235 310.299 632.044 300.141C633.871 300.353 637.569 300.736 639.439 300.948C633.021 295.083 625.243 289.855 622.225 281.312C616.062 265.033 609.262 248.882 604.842 232.008C604.077 222.148 605.479 210.672 597.319 203.361C579.765 185.255 554.56 176.372 529.994 173.311C518.943 169.784 517.03 183.512 513.375 190.653C506.829 186.275 499.689 182.535 491.656 182.365C493.271 175.989 494.843 169.614 496.459 163.281C471.339 152.697 443.117 149.552 417.36 159.838C422.078 149.68 411.877 142.072 405.842 135.441C421.355 131.573 437.422 124.348 453.573 129.278C471.042 134.803 485.195 147.002 500.624 156.48C507.127 132.721 509.465 108.154 511.207 83.6722Z"></path>
<path fill="#D4763F" d="M193.922 154.058C204.335 120.608 235.532 93.0232 271.362 92.0881C297.969 90.133 322.579 102.799 344.128 117.038C337.115 121.585 330.187 126.303 323.386 131.234C307.065 123.838 289.766 116.442 271.447 118.525C250.408 119.29 227.839 130.469 221.379 151.848C211.645 174.799 226.309 197.453 234.597 218.28C232.769 220.745 229.157 225.718 227.372 228.183C215.343 217.898 203.187 207.059 195.792 192.863C189.331 181.005 190.564 166.639 193.922 154.058Z"></path>
<path fill="#E39350" d="M389.776 97.3584C397.214 95.1908 404.865 94.0856 412.473 92.8105C404.567 99.0585 396.959 105.647 389.521 112.49C405.502 108.494 420.973 102.416 437.167 99.2286C450.555 96.0408 463.732 101.269 476.312 105.264C448.345 109.429 419.911 116.74 398.489 136.334C400.317 136.121 404.014 135.654 405.842 135.441C411.878 142.072 422.078 149.68 417.361 159.838C408.265 166.511 400.359 174.629 393.389 183.47C407.415 177.562 421.186 168.806 436.912 169.231C456.038 169.571 472.7 180.962 491.656 182.365C499.689 182.535 506.83 186.275 513.375 190.653C535.434 201.874 561.489 198.473 584.185 207.867C594.429 212.202 599.317 223.04 604.842 232.008C609.262 248.882 616.063 265.033 622.226 281.312C625.243 289.855 633.022 295.083 639.44 300.949C637.569 300.736 633.872 300.354 632.044 300.141C613.428 298.058 592.856 296.953 576.492 307.664C559.619 319.097 548.228 338.819 548.313 359.433C548.143 371.674 548.015 386.508 558.428 395.051C581.465 409.714 612.535 399.428 634.722 416.09C614.618 418.81 594.386 415.962 574.24 417.025C553.966 399.811 527.104 398.281 501.772 398.153C497.734 392.118 494.334 385.317 488.341 381.025C478.82 376.477 468.662 373.672 458.419 371.631C435.509 367.339 412.09 360.24 388.756 365.893C385.398 363.386 382.04 360.878 378.725 358.413C396.449 338.394 396.704 309.704 390.924 284.967C383.783 264.863 364.444 248.372 342.852 247.012C324.534 246.63 310.168 259.763 296.567 270.219C290.021 256.873 283.263 243.612 274.89 231.371C277.398 246.205 282.838 260.273 287.641 274.469C293.761 292.873 283.901 314.21 295.206 331.253C304.727 347.022 323.896 350.975 340.642 354.12C344.595 356.118 348.548 358.158 352.501 360.241C350.886 365.426 349.228 370.611 347.4 375.754C346.55 378.049 344.808 382.555 343.915 384.85C320.581 371.461 296.439 357.733 269.322 354.163C287.768 375.329 320.921 375.372 335.797 400.661C313.738 398.961 292.231 393.733 271.022 387.868C267.282 383.745 263.584 379.622 259.759 375.627C237.955 350.295 204.122 333.421 193.411 299.886C195.707 294.021 198.809 288.538 201.742 283.012C221.506 296.996 244.033 306.261 267.367 312.339C259.079 286.242 241.312 263.546 236.255 236.514C243.055 219.045 254.871 204.126 265.794 189.08C266.134 191.12 266.814 195.286 267.112 197.368C283.263 185.595 296.991 171.059 311.528 157.5C335.627 134.804 366.697 121.245 389.776 97.3584Z"></path>
<path fill="#E5C6A4" d="M344.128 117.038C358.027 107.772 373.625 101.354 389.776 97.3586C366.697 121.245 335.627 134.804 311.528 157.501C296.992 171.059 283.263 185.595 267.112 197.369C266.815 195.286 266.135 191.121 265.795 189.08C282.158 167.234 301.54 147.597 323.386 131.234C330.187 126.303 337.115 121.585 344.128 117.038Z"></path>
<path fill="#D6A6A0" d="M253.469 128.301C272.935 119.205 295.887 122.223 313.611 133.784C305.153 142.412 295.972 150.36 286.154 157.416C282.286 148.235 278.503 139.012 274.763 129.831C267.665 129.236 260.567 128.641 253.469 128.301Z"></path>
<path fill="#E6E1E2" d="M225.757 167.999C224.142 149.935 238.593 135.824 253.469 128.301C260.567 128.641 267.665 129.236 274.763 129.831C278.503 139.011 282.286 148.235 286.154 157.415C269.918 174.204 255.424 192.565 240.718 210.672C231.622 198.346 223.674 183.937 225.757 167.999Z"></path>
<path fill="#CB673E" d="M652.871 131.616C689.296 151.465 720.196 181.77 740.13 218.237C759.894 253.005 775.28 290.323 785.863 328.916C774.302 335.929 762.401 342.347 750.415 348.595C743.827 326.875 754.113 304.136 747.993 282.162C743.147 258.87 734.392 235.876 719.303 217.26C704.129 198.176 685.301 182.535 668.639 164.896C663.114 153.93 657.886 142.794 652.871 131.616Z"></path>
<path fill="#2A122D" d="M417.361 159.838C443.118 149.553 471.34 152.698 496.459 163.281C494.844 169.614 493.271 175.99 491.656 182.365C472.7 180.963 456.039 169.572 436.912 169.232C421.186 168.807 407.415 177.562 393.389 183.47C400.359 174.629 408.265 166.511 417.361 159.838Z"></path>
<path fill="#2D162D" d="M513.375 190.653C517.03 183.512 518.943 169.784 529.994 173.312C554.561 176.372 579.765 185.255 597.319 203.361C605.479 210.672 604.077 222.148 604.842 232.009C599.316 223.04 594.429 212.202 584.185 207.867C561.489 198.474 535.434 201.874 513.375 190.653Z"></path>
<path fill="#C76437" d="M727.209 188.485C744.72 177.817 764.697 172.249 785.098 170.932C788.541 176.329 792.069 181.77 795.596 187.21C793.046 188.74 790.538 190.27 788.031 191.843C792.706 194.096 797.424 196.306 802.099 198.686C781.825 196.901 762.189 201.874 742.977 207.484C734.859 204.892 732.394 194.521 727.209 188.485Z"></path>
<path fill="#D47542" d="M785.098 170.932C801.334 173.312 818.293 175.692 832.276 185.085C861.263 203.106 873.929 243.909 858.246 274.682C846.685 299.461 819.695 312.595 794.108 317.737C785.48 314.635 786.033 303.584 793.811 299.971C813.277 286.158 833.849 266.691 830.661 240.424C833.806 221 817.953 206.379 802.099 198.686C797.424 196.306 792.706 194.096 788.03 191.843C790.538 190.27 793.046 188.74 795.596 187.21C792.068 181.77 788.54 176.329 785.098 170.932Z"></path>
<path fill="#CAA19F" d="M745.952 214.115C765.291 206.805 788.965 196.434 808.219 209.355C797.806 211.99 787.52 214.88 777.192 217.558C779.572 242.72 789.093 266.224 799.209 289.133L800.484 292.108C795.256 294.319 790.07 296.529 784.885 298.781C773.494 269.837 760.063 241.827 745.952 214.115Z"></path>
<path fill="#DBC3C0" d="M777.192 217.558C787.521 214.88 797.806 211.99 808.22 209.354C828.111 219.343 831.724 245.142 822.288 263.674C817.358 274.342 808.602 282.417 799.209 289.133C789.093 266.224 779.573 242.719 777.192 217.558Z"></path>
<path fill="#F5ECE9" d="M492.123 397.516C494.546 397.686 499.349 397.983 501.772 398.153C527.104 398.281 553.965 399.811 574.239 417.025C557.578 418.937 540.195 420.17 525.276 428.628C543.807 427.821 562.126 424.42 580.742 424.845C582.528 429.138 586.098 437.724 587.883 442.017C571.052 442.399 554.136 441.039 537.347 442.909C556.006 447.754 575.43 448.392 594.386 451.835C595.236 459.783 596.171 467.774 597.191 475.807C577.64 468.921 559.193 458.89 538.749 454.81C544.402 459.145 550.183 463.353 555.921 467.646C548.525 473.809 541.385 480.397 533.054 485.37C506.999 501.096 469.257 492.17 452.51 466.923C446.305 458.168 448.728 447.032 448.685 437.086C469.767 431.348 495.609 428.033 506.872 406.441C501.984 403.339 497.096 400.363 492.123 397.516Z"></path>
<path fill="#351322" d="M274.89 231.371C283.263 243.612 290.021 256.873 296.567 270.219C310.168 259.763 324.534 246.63 342.853 247.012C364.444 248.373 383.783 264.864 390.924 284.968C396.704 309.705 396.449 338.394 378.725 358.413C369.97 359.008 361.257 359.646 352.501 360.241C343.66 344.132 338.05 325.431 345.785 307.707C354.456 311.915 370.607 322.796 375.878 308.982C372.86 304.434 369.12 300.396 365.634 296.316C373.668 296.614 381.743 296.784 389.819 296.869C383.273 276.255 365.677 257.936 343.448 255.768C311.315 255.853 289.086 295.041 303.622 323.051C311.528 337.714 327.552 344.897 340.643 354.121C323.896 350.975 304.727 347.022 295.207 331.254C283.901 314.21 293.762 292.873 287.641 274.469C282.838 260.273 277.398 246.205 274.89 231.371Z"></path>
<path fill="#F6EDEB" d="M303.622 323.051C289.086 295.041 311.315 255.853 343.447 255.768C365.677 257.936 383.273 276.255 389.818 296.869C381.743 296.784 373.667 296.614 365.634 296.316C369.119 300.396 372.86 304.434 375.877 308.982C370.607 322.796 354.456 311.915 345.785 307.707C338.049 325.431 343.66 344.132 352.501 360.241C348.548 358.158 344.595 356.118 340.642 354.12C327.551 344.897 311.528 337.714 303.622 323.051Z"></path>
<path fill="#DF8346" d="M747.992 282.162C754.113 304.136 743.827 326.876 750.415 348.595C741.362 353.695 733.031 359.943 724.998 366.489C745.485 373.629 767.629 374.649 787.775 382.682C799.464 386.253 796.276 400.364 798.614 409.672C764.526 413.242 730.864 420.765 698.731 432.836C725.423 451.452 760.871 445.162 788.456 462.376C788.2 470.494 787.945 478.612 787.69 486.773C770.137 481.502 752.583 475.892 734.264 473.852C731.416 490.598 745.612 499.651 756.876 508.704C754.453 512.359 751.988 516.057 749.565 519.755C733.201 517.545 715.223 517.375 701.452 507.089C689.041 496.803 680.752 482.692 670.169 470.749C664.006 462.121 654.528 456.468 644.2 454.513C625.413 450.432 606.372 447.457 587.883 442.017C586.098 437.724 582.528 429.138 580.742 424.845C606.287 424.633 631.789 426.716 657.248 428.161C664.389 429.011 670.722 425.398 676.842 422.38C666.684 420.935 656.483 420 646.325 419.32C660.733 399.939 667.661 376.477 670.934 352.845C693.631 350.422 716.625 345.024 734.986 330.701C732.054 330.913 726.146 331.296 723.213 331.466C740.554 321.053 747.95 301.714 747.992 282.162Z"></path>
<path fill="#351F26" d="M576.492 307.664C592.856 296.953 613.428 298.059 632.044 300.141C650.235 310.299 662.731 327.428 671.445 346.002C689.168 342.984 706.382 337.757 723.213 331.466C726.146 331.296 732.054 330.914 734.987 330.701C716.625 345.025 693.631 350.422 670.934 352.845C667.662 376.477 660.734 399.939 646.325 419.32C656.483 420 666.684 420.935 676.842 422.38C670.722 425.398 664.389 429.011 657.248 428.161C631.789 426.716 606.287 424.633 580.743 424.846C562.126 424.42 543.808 427.821 525.276 428.628C540.195 420.17 557.578 418.938 574.24 417.025C594.386 415.962 614.618 418.81 634.722 416.09C612.535 399.429 581.465 409.714 558.429 395.051C548.015 386.508 548.143 371.674 548.313 359.433C548.228 338.819 559.619 319.098 576.492 307.664ZM567.779 326.918C576.705 331.509 588.181 335.419 590.221 346.81C598.042 366.234 584.823 384.298 572.752 398.324C596.554 398.409 619.931 403.169 643.605 405.167C659.331 382.98 666.684 349.657 647.643 327.216C628.686 302.309 586.353 300.736 567.779 326.918ZM559.534 346.257C567.142 345.79 574.792 345.067 582.358 343.919C577.342 330.403 561.829 333.124 559.534 346.257Z"></path>
<path fill="#F3F0EF" d="M567.779 326.918C586.353 300.736 628.686 302.308 647.643 327.215C666.684 349.657 659.331 382.979 643.605 405.166C619.93 403.168 596.554 398.408 572.752 398.323C584.823 384.297 598.041 366.233 590.221 346.809C588.181 335.419 576.705 331.508 567.779 326.918Z"></path>
<path fill="#471D31" d="M78.6101 342.559C94.6763 327.301 121.113 336.949 135.819 349.912C116.65 348.892 96.8865 349.19 78.6101 342.559Z"></path>
<path fill="#95584E" d="M269.323 354.163C296.44 357.733 320.581 371.461 343.916 384.85C348.378 387.613 352.714 390.588 357.092 393.521C351.184 395.858 345.276 398.153 339.368 400.491C349.696 404.911 360.067 409.374 369.885 414.9C353.011 413.285 336.648 408.779 320.071 405.549C321.006 410.437 321.942 415.282 322.919 420.213C300.647 401.596 271.235 398.834 243.608 395.816C252.576 392.628 261.629 389.695 271.023 387.868C292.232 393.733 313.738 398.961 335.798 400.661C320.921 375.372 287.769 375.329 269.323 354.163Z"></path>
<path fill="#452736" d="M98.7143 361.941C107.555 361.983 116.396 362.068 125.236 362.196C125.491 364.279 126.001 368.486 126.214 370.569C116.821 370.654 107.385 370.782 97.9917 370.824C98.1617 368.614 98.5443 364.151 98.7143 361.941Z"></path>
<path fill="#DB8C4D" d="M171.097 358.328C193.921 363.471 216.491 369.507 239.187 374.947C245.903 376.775 252.916 376.69 259.759 375.627C263.584 379.622 267.282 383.745 271.022 387.868C261.629 389.696 252.576 392.628 243.608 395.816C271.235 398.834 300.647 401.596 322.918 420.213L323.768 424.208C297.672 424.676 271.15 430.414 245.435 423.741C221.633 417.79 196.004 411.032 178.79 392.373C169.482 383.533 171.82 369.847 171.097 358.328Z"></path>
<path fill="#DBB095" d="M352.501 360.241C361.256 359.646 369.97 359.008 378.725 358.413C382.04 360.878 385.398 363.386 388.756 365.894C388.884 369.591 389.181 376.902 389.351 380.557C387.651 376.222 385.951 371.929 384.251 367.636C371.882 369.974 359.599 372.737 347.4 375.754C349.228 370.612 350.886 365.426 352.501 360.241Z"></path>
<path fill="#F4EDE9" d="M369.077 627.841C425.946 652.833 492.548 676.634 553.668 652.408C555.58 672.342 555.963 693.211 547.76 711.955C535.816 733.206 519.155 752.077 497.436 763.596C472.912 764.531 449.11 772.224 424.543 771.289C415.957 767.124 407.287 763.128 398.786 758.835C383.103 749.655 370.224 736.266 360.108 721.305C361.894 703.071 363.169 684.88 364.401 666.646C366.059 653.725 367.759 640.804 369.077 627.841Z"></path>
<path fill="#C96E58" d="M388.756 365.894C412.09 360.241 435.51 367.339 458.419 371.631C468.662 373.672 478.82 376.477 488.341 381.025C457.951 381.62 426.456 370.059 397.002 380.897C395.897 382.895 393.686 386.975 392.581 388.973C391.774 386.89 390.159 382.682 389.351 380.557C389.181 376.902 388.884 369.591 388.756 365.894Z"></path>
<path fill="#F4EBEA" d="M347.401 375.754C359.599 372.737 371.882 369.974 384.251 367.636C385.951 371.929 387.651 376.222 389.351 380.557C390.159 382.682 391.774 386.89 392.581 388.973C403.08 411.712 426.031 422.763 444.775 437.256C444.478 446.692 442.523 457.148 434.915 463.608C404.567 488.26 348.973 471.854 344.595 430.371C348.846 429.818 357.261 428.628 361.469 428.033C349.058 425.568 336.392 424.378 323.769 424.208L322.919 420.213C321.941 415.282 321.006 410.437 320.071 405.549C336.647 408.779 353.011 413.285 369.885 414.9C360.067 409.374 349.696 404.912 339.368 400.491C345.275 398.154 351.183 395.858 357.091 393.521C352.713 390.588 348.378 387.613 343.915 384.85C344.808 382.555 346.55 378.05 347.401 375.754Z"></path>
<path fill="#DED0CF" d="M397.002 380.897C426.456 370.059 457.951 381.62 488.341 381.025C494.334 385.317 497.734 392.118 501.772 398.153C499.349 397.983 494.547 397.686 492.124 397.516C460.629 390.8 428.922 385.147 397.002 380.897Z"></path>
<path fill="#3B1B28" d="M392.581 388.973C393.686 386.975 395.896 382.895 397.001 380.897C428.921 385.147 460.629 390.8 492.124 397.516C497.096 400.363 501.984 403.339 506.872 406.441C495.609 428.033 469.767 431.348 448.685 437.086C448.728 447.032 446.305 458.168 452.511 466.923C469.257 492.17 507 501.096 533.054 485.37C541.385 480.397 548.525 473.809 555.921 467.646C550.183 463.353 544.402 459.145 538.75 454.81C559.194 458.89 577.64 468.921 597.191 475.807C627.539 487.197 657.758 499.438 686.023 515.547C684.11 516.44 680.243 518.267 678.33 519.16C671.997 516.312 665.706 513.422 659.501 510.447C643.137 502.286 626.689 494.083 608.922 489.365C626.859 511.934 649.895 529.743 667.704 552.482C673.527 564.553 680.88 575.774 688.786 586.612C687.043 587.42 683.515 588.992 681.773 589.8C676.035 579.387 670.297 568.973 663.751 559.113C647.43 535.396 626.731 514.909 603.439 498.078C597.616 478.569 575.6 475.296 559.789 467.093C545.55 495.018 510.272 506.579 481.243 497.016C464.794 492.638 452.851 479.759 441.715 467.688C417.02 484.307 382.21 487.112 358.069 467.944C345.02 459.825 342.045 444.099 338.602 430.371C340.09 430.371 343.107 430.371 344.595 430.371C348.973 471.854 404.567 488.26 434.914 463.608C442.522 457.148 444.477 446.692 444.775 437.256C426.031 422.763 403.079 411.712 392.581 388.973Z"></path>
<path fill="#44262F" d="M839.375 405.549C865.939 404.104 891.399 396.495 915.201 384.85C913.713 399.641 898.624 404.741 886.468 408.269C870.487 413.327 853.571 412.137 837.08 412.264C837.632 410.564 838.822 407.206 839.375 405.549Z"></path>
<path fill="#422432" d="M96.5899 402.616C106.748 399.471 117.459 399.769 128 400.024C128.552 401.851 129.615 405.506 130.167 407.334C110.021 408.949 91.1919 417.407 71.0454 418.64C73.8931 406.739 86.8141 405.634 96.5899 402.616Z"></path>
<path fill="#DC824A" d="M171.82 428.416C197.067 428.671 222.484 429.011 247.349 433.984C226.99 443.887 205.568 451.495 185.549 462.206C178.663 451.962 173.988 440.529 171.82 428.416Z"></path>
<path fill="#CF8862" d="M191.456 469.006C203.442 460.208 216.491 452.728 230.687 448.052C230.899 455.15 230.814 462.333 231.919 469.389C236.51 476.572 245.903 477.592 253.213 480.737C244.203 487.198 236.34 495.273 230.942 504.964C229.624 507.132 227.074 511.467 225.799 513.677C214.451 503.094 203.867 491.703 191.839 481.885C191.754 477.592 191.626 473.299 191.456 469.006Z"></path>
<path fill="#2F1C2D" d="M253.213 480.737C272.254 467.646 293.931 459.018 315.353 450.687C295.971 463.566 274.549 473.001 255.508 486.475C247.007 492.213 238.719 498.291 230.941 504.964C236.339 495.273 244.202 487.198 253.213 480.737Z"></path>
<path fill="#D97643" d="M594.386 451.835C621.886 454.683 649.3 461.016 672.465 476.742C671.912 475.254 670.764 472.237 670.169 470.749C680.753 482.692 689.041 496.803 701.452 507.089C715.223 517.375 733.201 517.545 749.565 519.755C751.988 516.057 754.453 512.359 756.876 508.704C761.721 513.805 765.759 519.543 769.372 525.578C763.591 529.488 758.108 538.414 750.075 534.674C728.994 527.448 708.465 517.927 686.023 515.547C657.758 499.438 627.539 487.198 597.191 475.807C596.171 467.774 595.236 459.783 594.386 451.835Z"></path>
<path fill="#492538" d="M835.081 452.898C846.005 454.598 856.163 460.081 863.431 468.454C865.811 478.612 864.706 489.238 864.919 499.609C849.022 499.864 833.126 492.511 825.221 478.315C836.527 481.8 847.28 486.943 858.883 489.663C858.798 472.917 843.497 465.096 835.081 452.898Z"></path>
<path fill="#331D29" d="M191.839 481.885C203.867 491.703 214.45 503.094 225.799 513.677C255.381 540.327 291.339 558.518 327.041 575.477C367.674 594.688 412.133 602.764 454.466 617.045C451.065 617.343 444.222 618.023 440.78 618.363C417.615 611.69 393.984 606.802 370.904 599.874C361.469 596.898 352.246 593.371 342.98 589.886C348.973 619.51 358.324 648.667 359.599 679.1C345.36 662.311 334.267 642.76 316.755 628.946C315.863 636.767 313.865 645.225 317.861 652.578C329.379 676.932 345.955 698.439 360.109 721.305C370.225 736.266 383.103 749.655 398.787 758.836C404.609 776.134 410.645 793.391 417.148 810.477C429.814 805.802 441.715 799.256 452.851 791.606C467.684 782.255 482.645 773.074 497.436 763.596C519.156 752.078 535.817 733.206 547.76 711.955C548.738 714.335 550.65 719.053 551.628 721.433C538.495 741.664 521.961 759.856 500.454 771.332C481.455 784.338 456.761 791.606 444.18 812.092C443.287 818.043 442.65 824.078 441.927 830.071C447.453 829.433 452.978 828.753 458.504 828.328C459.864 828.286 462.499 828.243 463.816 828.243C459.354 832.324 454.933 836.404 450.513 840.569C455.911 845.074 461.394 849.58 466.877 854.085C473.677 848.517 480.435 842.907 487.151 837.169C489.106 837.977 492.974 839.549 494.929 840.357C488.936 846.01 483.028 851.748 477.332 857.656C492.804 863.393 506.702 855.743 517.71 845.245C512.143 840.357 506.575 835.511 501.134 830.581C512.143 834.619 522.811 839.634 533.522 844.437C534.967 845.032 537.857 846.18 539.302 846.732C531.014 851.11 523.236 856.253 515.67 861.651C532.459 862.416 549.163 860.291 565.739 857.953L564.846 862.203L563.954 866.029C533.139 869.301 502.112 867.686 471.212 866.794C457.568 855.743 444.35 844.139 432.789 830.878C435.169 823.143 437.592 815.407 439.93 807.672C420.421 816.002 402.399 827.266 383.4 836.616C362.021 847.37 337.412 845.074 314.673 850.642C303.92 844.139 287.981 840.952 284.283 827.138C278.758 809.542 274.72 791.563 269.449 773.924C262.394 749.612 263.669 723.983 265.582 699.034C270.087 681.012 280.288 665.201 288.363 648.667C265.199 656.7 242.162 665.244 218.743 672.512C184.401 685.008 143.258 650.793 148.188 615.047C154.096 595.793 175.56 589.63 191.839 581.98C216.193 570.334 242.885 565.744 268.727 558.731C263.882 553.078 258.314 548.062 252.023 544.152C229.581 529.914 208.5 512.827 192.051 491.873L191.881 489.281C191.881 487.453 191.839 483.755 191.839 481.885ZM232.642 574.882C242.97 598.429 253.171 622.018 263.839 645.437C273.147 642.334 282.328 638.849 291.424 635.109C278.078 613.687 265.327 591.713 256.358 568.039C248.368 570.037 240.462 572.332 232.642 574.882ZM291.424 570.632C298.989 585.295 308.935 598.599 320.326 610.542C323.598 603.189 326.744 595.751 329.846 588.355C318.243 580.025 305.28 573.862 291.424 570.632ZM181.638 594.051C170.247 600.214 158.814 607.524 153.628 620.063C160.471 620.573 167.314 621.04 174.2 621.423C168.547 626.183 162.767 630.774 157.029 635.406C158.899 638.297 162.681 644.035 164.552 646.925C171.735 644.162 178.96 641.442 186.356 639.232C181 643.907 175.432 648.285 169.992 652.79C177.77 658.146 185.463 664.139 194.771 666.689C210.497 668.686 225.544 661.886 240.207 657.211C243.65 655.765 247.135 654.363 250.621 653.003C236.042 632.814 223.248 611.392 208.755 591.161C202.082 580.875 190.394 592.308 181.638 594.051ZM271.702 713.4C278.375 715.61 285.006 717.863 291.636 720.37C285.261 724.578 278.673 728.531 272 732.271C271.065 751.95 283.093 768.611 285.728 787.653C287.258 793.136 286.961 800.064 291.849 804.016C286.536 818.17 294.016 835.299 310.38 835.341C311.698 834.534 314.333 832.919 315.608 832.069C323.896 838.614 334.309 839.294 344.467 839.464C342.852 833.726 341.365 828.031 339.495 822.463L341.535 824.801C348.59 829.476 354.753 840.144 364.529 835.979C373.2 835.554 370.437 825.438 370.735 819.87C376.557 825.566 386.418 834.449 392.199 823.228C396.874 820.295 401.507 817.447 406.225 814.642C404.142 808.522 405.417 800.531 400.317 795.941C396.534 782.552 393.899 767.464 382.465 758.198C351.311 730.613 323.428 699.544 292.444 671.747C280.458 682.67 272.85 697.121 271.702 713.4Z"></path>
<path fill="#CCA69A" d="M230.941 504.964C238.72 498.291 247.008 492.213 255.508 486.475C287.556 535.439 344.595 561.196 399.424 575.562C465.899 590.778 536.667 594.051 603.099 577.219C619.718 573.904 636.592 571.779 652.785 566.679C646.367 578.367 641.862 590.99 637.697 603.656C586.906 615.09 534.584 615.132 482.815 616.11C499.221 618.915 515.84 620.148 532.501 621.083C528.209 624.525 524.596 630.178 518.39 629.541C492.251 629.243 465.304 628.351 440.78 618.362C444.222 618.022 451.065 617.342 454.466 617.045C412.132 602.764 367.674 594.688 327.041 575.477C291.338 558.518 255.381 540.327 225.799 513.677C227.074 511.467 229.624 507.132 230.941 504.964Z"></path>
<path fill="#C3B4B8" d="M136.584 490.81C139.007 491.278 143.937 492.17 146.36 492.638C148.102 496.548 149.76 500.501 151.333 504.539C151.885 506.069 152.948 509.172 153.458 510.702C148.782 514.655 144.107 518.692 139.517 522.773C137.222 519.5 134.969 516.27 132.674 513.039C135.989 508.024 139.347 503.094 142.322 497.908C141.387 496.718 139.474 494.338 138.497 493.191L136.584 490.81Z"></path>
<path fill="#EBD6B6" d="M608.922 489.365C626.689 494.083 643.137 502.286 659.501 510.447C664.686 523.835 668.044 537.989 667.704 552.482C649.895 529.743 626.859 511.934 608.922 489.365Z"></path>
<path fill="#ECE2DE" d="M603.44 498.079C626.732 514.91 647.431 535.396 663.752 559.113C660.096 561.621 656.441 564.128 652.786 566.679C636.592 571.779 619.719 573.904 603.1 577.219C609.943 573.097 616.531 568.676 622.991 564.001C623.926 563.236 625.839 561.621 626.774 560.856C620.739 542.409 613.683 523.411 599.19 509.81C598.595 509.087 597.362 507.684 596.767 506.962C598.977 503.987 601.187 501.054 603.44 498.079Z"></path>
<path fill="#D37C4C" d="M659.501 510.447C665.707 513.422 671.997 516.312 678.33 519.16C695.842 533.356 714.883 546.66 727.166 566.041C714.713 573.522 701.962 580.492 688.786 586.613C680.88 575.774 673.527 564.553 667.704 552.483C668.044 537.989 664.687 523.836 659.501 510.447Z"></path>
<path fill="#D9713C" d="M858.458 550.74C866.789 544.449 875.205 538.286 883.705 532.251C889.741 546.32 896.074 561.111 894.076 576.794C892.461 577.432 889.146 578.749 887.488 579.429C876.735 571.014 867.512 560.898 858.458 550.74Z"></path>
<path fill="#C5866F" d="M663.751 559.113C670.297 568.974 676.035 579.387 681.773 589.8C667.661 596.048 652.828 600.596 637.697 603.656C641.862 590.99 646.367 578.367 652.785 566.678C656.441 564.128 660.096 561.621 663.751 559.113Z"></path>
<path fill="#DF8553" d="M232.642 574.882C240.462 572.332 248.368 570.036 256.358 568.039C265.327 591.713 278.078 613.687 291.424 635.109C282.328 638.849 273.147 642.334 263.839 645.437C253.171 622.018 242.97 598.429 232.642 574.882Z"></path>
<path fill="#CE6F3E" d="M291.424 570.631C305.28 573.862 318.243 580.025 329.847 588.355C326.744 595.751 323.599 603.189 320.326 610.542C308.935 598.598 298.99 585.295 291.424 570.631Z"></path>
<path fill="#CF5836" d="M840.862 584.53C850.255 586.783 859.648 589.163 869.084 591.458C868.489 602.891 867.299 614.325 865.641 625.716C854.165 627.628 842.647 629.541 831.086 631.156C829.174 614.835 834.742 599.321 840.862 584.53Z"></path>
<path fill="#D99773" d="M181.638 594.051C190.394 592.308 202.082 580.875 208.755 591.16C223.249 611.392 236.042 632.813 250.621 653.002C247.135 654.362 243.65 655.765 240.207 657.21C226.606 631.411 206.842 609.012 181.638 594.051Z"></path>
<path fill="#D67942" d="M342.98 589.885C352.246 593.37 361.469 596.898 370.905 599.873C366.314 621.847 363.382 644.119 364.402 666.646C363.169 684.88 361.894 703.071 360.109 721.305C345.955 698.438 329.379 676.932 317.861 652.577C313.866 645.224 315.863 636.766 316.756 628.946C334.267 642.759 345.36 662.31 359.599 679.099C358.324 648.667 348.973 619.51 342.98 589.885Z"></path>
<path fill="#D46C3A" d="M676.035 615.685C682.963 608.799 684.366 594.348 695.502 593.413C705.872 603.741 711.44 617.555 717.518 630.603C700.857 648.2 680.626 662.183 665.962 681.607C685.939 676.294 705.958 670.599 726.784 669.919C727.337 674.764 728.102 679.652 728.102 684.582C712.035 702.689 686.619 708.214 669.787 725.513C689.509 726.788 709.06 720.71 728.867 723.855C715.308 748.252 685.556 754.245 668.002 774.392C683.303 771.799 698.349 767.974 713.736 765.721C705.022 778.004 700.05 793.178 690.019 804.229C668.725 810.944 645.858 811.029 623.799 809.499C631.917 777.834 656.781 750.547 653.041 716.375C651.638 685.56 642.415 655.808 632.725 626.778C647.431 626.566 666.6 630.348 676.035 615.685Z"></path>
<path fill="#F2E6DC" d="M153.628 620.062C158.814 607.524 170.247 600.213 181.638 594.05C206.842 609.012 226.606 631.411 240.207 657.21C225.544 661.886 210.498 668.686 194.771 666.688C185.463 664.138 177.77 658.145 169.992 652.79C175.433 648.284 181.001 643.907 186.356 639.231C178.96 641.441 171.735 644.162 164.552 646.924C162.682 644.034 158.899 638.296 157.029 635.406C162.767 630.773 168.547 626.183 174.2 621.422C167.314 621.04 160.471 620.572 153.628 620.062Z"></path>
<path fill="#D1AEA4" d="M370.905 599.873C393.984 606.801 417.616 611.689 440.78 618.362C465.304 628.35 492.251 629.243 518.391 629.541C524.596 630.178 528.209 624.525 532.502 621.082C537.815 621.21 543.127 621.337 548.483 621.422C550.31 631.708 552.393 641.994 553.668 652.407C492.549 676.634 425.946 652.832 369.077 627.84C367.759 640.804 366.059 653.725 364.402 666.646C363.382 644.119 366.314 621.847 370.905 599.873Z"></path>
<path fill="#D77B47" d="M556.941 620.403C575.813 617.768 594.896 616.11 613.98 617.64C593.791 628.606 574.962 641.782 559.704 659.123C558.131 646.287 557.239 633.366 556.941 620.403Z"></path>
<path fill="#C85A2F" d="M880.347 646.585L883.153 645.777C882.898 647.817 882.345 651.897 882.09 653.938C880.815 661.546 879.412 669.154 878.052 676.804C869.169 678.249 860.158 682.67 851.105 680.885C847.663 675.742 844.857 670.174 841.925 664.776C853.698 656.785 866.491 650.112 880.347 646.585Z"></path>
<path fill="#E37D42" d="M560.639 696.908C565.144 668.729 596.851 657.805 621.291 653.087C604.927 672.001 582.953 685.857 560.639 696.908Z"></path>
<path fill="#E29751" d="M271.702 713.4C272.85 697.121 280.458 682.67 292.444 671.746C323.429 699.544 351.311 730.613 382.466 758.198C393.899 767.464 396.534 782.552 400.317 795.941C394.409 792.625 388.374 789.608 382.253 786.845C365.847 787.143 351.906 796.026 339.07 805.291C339.92 811.794 340.728 818.255 341.535 824.8L339.495 822.463C332.907 813.75 324.194 807.034 314.078 803.039C314.461 812.687 315.056 822.378 315.608 832.068C314.333 832.918 311.698 834.534 310.38 835.341C307.873 822.973 302.517 811.412 291.849 804.016C286.961 800.064 287.259 793.136 285.729 787.653C283.093 768.611 271.065 751.95 272 732.271C278.673 728.531 285.261 724.578 291.636 720.37C285.006 717.862 278.375 715.61 271.702 713.4Z"></path>
<path fill="#C9653C" d="M618.868 693.636C626.136 691.426 633.319 688.96 640.587 686.665C642.415 697.461 644.157 708.257 645.9 719.053C632.256 716.12 618.57 713.442 604.927 710.68C612.662 705.579 619.93 699.799 627.028 693.891C624.988 693.806 620.908 693.678 618.868 693.636Z"></path>
<path fill="#E18E4E" d="M551.628 721.433C568.885 702.689 595.662 700.181 618.868 693.636C620.908 693.678 624.989 693.806 627.029 693.891C619.931 699.799 612.663 705.579 604.927 710.679C592.771 717.14 580.573 724.025 571.392 734.566C594.982 735.289 618.613 736.224 641.905 740.474C637.825 747.955 636.38 758.878 627.072 761.726C609.773 768.356 591.836 773.754 575.855 783.445C577.088 784.932 579.595 787.908 580.828 789.395C584.101 793.476 587.289 797.641 590.519 801.806C576.62 821.953 556.304 836.064 533.522 844.437C522.811 839.634 512.143 834.619 501.135 830.581C506.575 835.511 512.143 840.357 517.711 845.244C506.703 855.743 492.804 863.393 477.333 857.655C483.028 851.748 488.936 846.01 494.929 840.357C492.974 839.549 489.106 837.976 487.151 837.169C479.415 834.024 471.765 830.708 463.817 828.243C462.499 828.243 459.864 828.286 458.504 828.328C459.312 825.863 460.842 820.975 461.607 818.552C455.784 816.342 449.961 814.217 444.18 812.092C456.761 791.606 481.456 784.337 500.455 771.332C521.961 759.856 538.495 741.664 551.628 721.433Z"></path>
<path fill="#BF552C" d="M856.079 695.973C868.702 697.716 881.283 700.053 893.821 702.561C893.651 706.471 893.311 714.334 893.141 718.245C884.343 717.99 875.29 719.01 866.832 716.162C858.544 713.229 859.139 702.774 856.079 695.973Z"></path>
<path fill="#91A181" d="M258.144 758.07C264.179 739.624 255.976 717.565 265.582 699.033C263.669 723.983 262.394 749.612 269.45 773.924C274.72 791.563 278.758 809.541 284.283 827.138C287.981 840.951 303.92 844.139 314.673 850.642L310.423 852.172C285.261 850.77 259.037 849.069 236.425 836.828C217.213 826.585 193.624 828.328 173.988 836.446C173.52 841.121 175.518 844.224 179.896 845.712C201.147 852.725 225.119 846.264 245.478 856.762C258.824 863.393 273.063 868.281 287.939 870.023C330.314 875.591 372.52 884.092 415.448 884.857C455.741 885.452 496.162 886.515 536.412 883.157C583.931 877.759 631.449 872.361 678.585 864.115C705.872 858.718 734.902 869.768 761.126 857.825C768.905 855.402 769.967 846.307 773.027 839.931C774.77 839.294 778.255 837.976 780.04 837.339C797.297 853.575 827.006 847.539 838.312 827.18C859.904 821.272 880.39 810.477 895.139 793.22C916.773 798.958 937.642 808.819 954.728 823.482C964.122 832.281 973.43 846.264 967.352 859.483C959.616 878.142 939.937 887.705 922.766 895.993C869.637 918.095 812.385 927.828 755.601 935.053C689.509 945.169 622.609 946.997 555.964 950.992C463.647 953.84 370.99 950.992 279.481 938.071C220.869 930.293 161.449 921.155 106.578 898.203C88.3438 889.575 67.9848 880.522 57.359 862.415C49.2834 848.814 57.019 832.706 67.3473 822.887C84.136 806.481 107.64 800.956 127.659 789.777C121.071 780.214 114.271 770.821 107.683 761.3C129.104 748.209 140.793 781.532 160.642 781.064C154.989 765.211 142.705 751.397 144.363 733.503C165.147 738.264 173.52 758.878 186.781 772.989C192.817 773.839 198.299 770.439 203.952 768.908C221.379 762.405 240.59 764.02 258.144 758.07ZM197.407 801.338C209.69 817.447 231.792 813.239 249.388 813.324C249.728 810.476 250.366 804.739 250.663 801.848C232.982 800.446 215.046 798.108 197.407 801.338ZM124.812 826.5C137.52 830.198 151.036 832.238 164.212 829.688C169.44 829.858 174.795 824.8 172.5 819.53C157.199 812.262 137.222 814.769 124.812 826.5ZM83.4559 840.739C86.7286 846.689 89.1089 855.912 97.6521 855.7C105.218 855.87 118.734 855.19 118.011 844.777C107.853 837.339 95.0593 839.081 83.4559 840.739ZM561.149 899.351C577.003 910.061 596.639 904.408 614.023 901.646C623.544 900.286 632.427 896.035 637.74 887.747C612.365 887.705 582.698 883.114 561.149 899.351ZM688.531 895.398C688.786 898.118 689.339 903.558 689.594 906.236C710.165 912.782 731.119 905.386 750.416 898.246C750.033 895.823 749.226 890.977 748.801 888.555C728.399 885.282 707.913 888.98 688.531 895.398ZM472.02 912.739C469.597 922.047 481.413 922.77 487.874 923.492C498.287 924.385 507.043 918.095 514.821 912.059C500.922 908.106 485.578 906.746 472.02 912.739Z"></path>
<path fill="#C0512E" d="M854.166 719.435C861.944 723.218 870.955 726.235 875.757 734.056C879.625 744.554 870.105 751.95 862.964 757.645C858.034 750.802 853.146 744.002 848.258 737.201C850.213 731.251 852.126 725.343 854.166 719.435Z"></path>
<path fill="#C65833" d="M730.906 767.124C734.264 754.033 732.776 736.776 742.892 727.213C758.958 729.721 758.576 748.805 753.305 760.536C751.903 772.054 738.599 766.869 730.906 767.124Z"></path>
<path fill="#C2522F" d="M773.835 736.181C790.071 742.684 787.606 761.385 786.458 775.581C779.36 774.264 772.305 772.989 765.249 771.714C768.139 759.855 770.902 747.997 773.835 736.181Z"></path>
<path fill="#B94E2A" d="M827.091 740.474L831.214 742.599C841.032 746.297 847.705 754.415 853.23 763.001C847.535 765.253 841.882 767.463 836.186 769.674C833.424 761.385 830.703 753.097 828.323 744.724L827.091 740.474Z"></path>
<path fill="#C6562D" d="M803.29 744.257C805.245 744.639 809.113 745.405 811.025 745.787C816.041 754.203 820.078 763.086 824.116 772.012C817.358 773.287 810.643 774.562 803.927 775.879C803.672 765.339 803.63 754.755 803.29 744.257Z"></path>
<path fill="#CF8D86" d="M398.786 758.835C407.287 763.128 415.957 767.123 424.543 771.289C434.531 777.197 443.754 784.337 452.85 791.605C441.714 799.256 429.813 805.801 417.148 810.477C410.645 793.39 404.609 776.134 398.786 758.835Z"></path>
<path fill="#E3CDCF" d="M424.543 771.289C449.11 772.224 472.912 764.531 497.436 763.596C482.645 773.074 467.684 782.255 452.851 791.605C443.755 784.337 434.532 777.197 424.543 771.289Z"></path>
<path fill="#7D876B" d="M723.256 777.409C734.051 776.134 744.847 778.387 755.516 779.705C786.033 784.252 817.91 785.782 847.662 776.262C863.134 782.85 879.285 787.61 895.138 793.221C880.39 810.477 859.903 821.273 838.312 827.181C818.378 826.586 798.061 828.031 780.04 837.339C778.255 837.976 774.77 839.294 773.027 839.932C740.385 843.544 708.295 851.195 675.482 853.023C638.079 855.19 600.974 860.503 563.954 866.029L564.846 862.203C590.603 857.23 607.265 836.659 621.291 816.257C645.305 815.535 670.084 817.915 693.334 810.859C706.424 802.996 709.867 784.847 723.256 777.409ZM726.571 806.864C727.124 811.667 727.718 816.512 728.314 821.358C738.132 821.145 760.871 821.953 757.853 807.799C747.483 806.354 736.984 806.822 726.571 806.864Z"></path>
<path fill="#D2BEB9" d="M339.07 805.292C351.906 796.026 365.847 787.143 382.253 786.845C386.163 798.789 389.691 810.859 392.199 823.228C386.418 834.449 376.558 825.566 370.735 819.87C370.437 825.438 373.2 835.554 364.529 835.979C354.753 840.144 348.59 829.476 341.535 824.801C340.727 818.255 339.92 811.795 339.07 805.292Z"></path>
<path fill="#C4937F" d="M382.253 786.845C388.373 789.608 394.409 792.626 400.317 795.941C405.417 800.531 404.142 808.522 406.225 814.642C401.507 817.447 396.874 820.295 392.199 823.228C389.691 810.859 386.163 798.789 382.253 786.845Z"></path>
<path fill="#D6613C" d="M580.828 789.395C593.876 792.583 607.35 792.923 620.696 792.413C609.475 816.852 595.916 842.141 570.457 854.297C572.667 848.262 574.665 842.226 576.748 836.191C564.252 839.634 551.756 843.204 539.302 846.732C537.857 846.179 534.967 845.032 533.522 844.437C556.303 836.063 576.62 821.952 590.518 801.806C587.288 797.641 584.101 793.475 580.828 789.395Z"></path>
<path fill="#F9F8F5" d="M197.407 801.339C215.046 798.108 232.982 800.446 250.663 801.849C250.366 804.739 249.728 810.477 249.388 813.324C231.792 813.239 209.69 817.447 197.407 801.339Z"></path>
<path fill="#CAA398" d="M291.849 804.016C302.517 811.412 307.873 822.973 310.38 835.341C294.016 835.299 286.536 818.17 291.849 804.016Z"></path>
<path fill="#CCB0A3" d="M314.078 803.039C324.193 807.034 332.907 813.749 339.495 822.463C341.365 828.03 342.852 833.726 344.467 839.464C334.309 839.294 323.896 838.614 315.608 832.068C315.055 822.377 314.46 812.687 314.078 803.039Z"></path>
<path fill="#E8E8E6" d="M726.571 806.864C736.985 806.822 747.483 806.354 757.854 807.799C760.871 821.953 738.132 821.145 728.314 821.358C727.719 816.513 727.124 811.667 726.571 806.864Z"></path>
<path fill="#89956E" d="M383.401 836.616C402.4 827.266 420.421 816.002 439.93 807.672C437.592 815.407 435.17 823.143 432.789 830.878C444.35 844.139 457.569 855.743 471.212 866.794C417.446 865.646 362.744 866.454 310.423 852.172L314.673 850.642C337.412 845.074 362.022 847.37 383.401 836.616Z"></path>
<path fill="#F6F7F4" d="M124.811 826.5C137.222 814.769 157.199 812.262 172.5 819.53C174.795 824.8 169.44 829.858 164.212 829.688C151.036 832.238 137.52 830.198 124.811 826.5Z"></path>
<path fill="#E8A96A" d="M463.816 828.243C471.765 830.708 479.415 834.024 487.151 837.169C480.435 842.907 473.677 848.517 466.877 854.085C461.394 849.58 455.911 845.074 450.513 840.569C454.933 836.404 459.354 832.323 463.816 828.243Z"></path>
<path fill="#F8F8F7" d="M780.04 837.339C798.061 828.03 818.378 826.585 838.312 827.18C827.006 847.539 797.296 853.575 780.04 837.339Z"></path>
<path fill="#FAFAF9" d="M173.988 836.446C193.624 828.328 217.214 826.586 236.425 836.829C259.037 849.07 285.261 850.77 310.423 852.173C362.745 866.454 417.446 865.646 471.213 866.794C502.112 867.686 533.14 869.301 563.955 866.029C600.975 860.503 638.08 855.19 675.483 853.023C708.295 851.195 740.385 843.544 773.028 839.932C769.967 846.307 768.905 855.403 761.127 857.825C734.902 869.769 705.873 858.718 678.586 864.116C631.45 872.362 583.931 877.76 536.412 883.157C496.162 886.515 455.741 885.453 415.448 884.858C372.52 884.092 330.315 875.592 287.939 870.024C273.063 868.281 258.824 863.393 245.478 856.763C225.119 846.265 201.147 852.725 179.896 845.712C175.518 844.225 173.52 841.122 173.988 836.446Z"></path>
<path fill="#EFCC83" d="M539.303 846.732C551.756 843.204 564.252 839.634 576.748 836.191C574.665 842.227 572.668 848.262 570.458 854.298C569.31 855.233 566.93 857.018 565.74 857.953C549.163 860.29 532.46 862.416 515.671 861.651C523.236 856.253 531.015 851.11 539.303 846.732Z"></path>
<path fill="#F2F2EF" d="M83.4553 840.739C95.0587 839.081 107.852 837.339 118.01 844.777C118.733 855.19 105.217 855.87 97.6515 855.7C89.1084 855.913 86.7281 846.69 83.4553 840.739Z"></path>
<path fill="#F5F6F7" d="M561.149 899.351C582.698 883.115 612.365 887.705 637.74 887.748C632.427 896.036 623.544 900.286 614.023 901.646C596.639 904.409 577.003 910.062 561.149 899.351Z"></path>
<path fill="#FBFBFB" d="M688.531 895.398C707.912 888.98 728.399 885.282 748.8 888.555C749.225 890.978 750.033 895.823 750.416 898.246C731.119 905.386 710.165 912.782 689.594 906.237C689.339 903.559 688.786 898.118 688.531 895.398Z"></path>
<path fill="#F4F5F6" d="M472.019 912.739C485.578 906.746 500.922 908.106 514.82 912.059C507.042 918.094 498.286 924.385 487.873 923.492C481.413 922.77 469.597 922.047 472.019 912.739Z"></path>
</svg>
