<svg xmlns="http://www.w3.org/2000/svg" fill="none" viewBox="0 0 1024 1024" height="1024" width="1024">
<rect fill="white" height="1024" width="1024"></rect>
<path fill="#FDFDFD" d="M423.451 278.92C423.238 266.197 435.79 265.599 445.31 265.599C445.225 268.631 445.011 274.693 444.926 277.767C437.967 280.073 430.239 284.043 423.451 278.92Z"></path>
<path fill="#311728" d="M850.86 498.622C861.832 498.409 874.726 505.667 871.438 518.433C863.583 512.925 856.453 506.435 850.86 498.622Z"></path>
<path fill="#442031" d="M309.117 334.251C337.636 329.213 365.217 340.015 393.267 343.089C410.686 347.87 430.069 349.92 444.115 362.429C424.988 359.312 406.715 352.097 387.247 350.902C361.246 345.01 334.093 343.857 309.117 334.251Z"></path>
<path fill="#442031" d="M93 342.321C109.053 348.767 123.697 358.8 140.774 362.686C149.569 365.888 161.054 365.888 166.135 375.067C145.172 374.426 123.612 370.114 105.381 359.398C98.721 355.897 95.2201 349.152 93 342.321Z"></path>
<path fill="#442031" d="M873.615 354.104C894.151 356.281 914.217 362.685 931.423 374.298C931.508 376.945 931.679 382.239 931.764 384.886C914.772 373.7 895.09 368.705 876.091 362.301C875.451 360.252 874.213 356.153 873.615 354.104Z"></path>
<path fill="#442031" d="M876.732 385.014C888.43 388.472 899.36 394.065 909.991 399.957C910.204 402.86 910.546 408.624 910.759 411.527C898.293 404.653 880.19 400.982 876.732 385.014Z"></path>
<path fill="#442031" d="M104.911 428.22C111.358 407.343 139.921 407.514 158.065 405.123C144.916 419.81 122.971 422.329 104.911 428.22Z"></path>
<path fill="#442031" d="M887.96 423.482C898.762 428.904 910.759 433.002 919.597 441.541C919.298 444.316 918.7 449.866 918.401 452.642C908.155 447.006 898.25 440.73 888.345 434.497C888.259 431.764 888.089 426.257 887.96 423.482Z"></path>
<path fill="#442031" d="M852.909 448.927C869.09 452.812 887.79 458.234 895.56 474.543C885.357 470.018 875.622 464.425 865.12 460.454C874.555 477.318 889.754 490.511 896.884 508.698C895.518 510.79 892.828 514.932 891.462 517.024C879.721 493.67 859.399 474.757 852.909 448.927Z"></path>
<path fill="#F5EAE6" d="M197.344 126.801C212.415 110.919 234.274 103.448 255.664 101.569C228.596 115.018 202.98 132.949 186.713 158.993C189.318 148.106 189.318 135.468 197.344 126.801Z"></path>
<path fill="#F5EAE6" d="M591.58 873.39C588.42 861.435 588.207 848.499 598.838 840.259C596.063 851.232 593.714 862.289 591.58 873.39Z"></path>
<path fill="#FDFCFC" d="M584.535 257.06C593.031 255.481 601.698 255.182 610.237 256.719C602.808 262.397 595.038 267.606 587.225 272.686C586.286 267.478 585.389 262.269 584.535 257.06Z"></path>
<path fill="#F3EBE7" d="M187.226 706.115C178.772 667.178 210.067 634.646 235.512 609.542C227.699 622.691 218.307 634.774 209.811 647.496C197.942 665.044 192.263 685.793 187.226 706.115Z"></path>
<path fill="#2E1729" d="M381.568 99.0078C414.528 85.4311 449.58 76.9776 485.144 74.6295C561.822 65.4076 643.581 80.009 707.237 125.307C731.487 105.284 760.349 89.2308 792.625 89.1881C822.767 88.8465 853.934 102.039 871.523 127.143C897.652 163.817 896.756 219.191 865.29 252.535C852.098 266.88 833.526 273.925 816.064 281.524C836.301 322.852 854.745 368.065 849.707 415.071C845.011 446.024 834.423 478.855 808.465 498.537C808.337 496.787 808.08 493.286 807.995 491.536C811.24 483.68 815.296 476.038 817.003 467.67C801.932 449.14 781.354 436.033 761.757 422.756C764.575 421.902 770.254 420.194 773.114 419.34C793.821 413.192 815.509 411.015 837.027 413.79C837.198 406.959 837.326 400.128 837.496 393.297C809.788 382.325 779.518 378.098 753.518 362.984C779.091 358.245 804.281 351.414 828.488 341.851C825.073 332.031 821.657 322.254 818.113 312.477C793.906 314.569 769.827 319.906 745.406 317.43C760.818 296.766 780.585 280.115 798.773 262.013C797.706 259.75 795.528 255.182 794.418 252.919C778.536 215.434 752.749 183.798 726.193 153.443C745.534 140.25 767.051 130.473 790.362 127.015C803.896 137.262 821.187 146.782 824.091 165.226C829.214 191.952 809.148 214.153 792.967 232.81C796.895 238.617 800.865 244.423 804.878 250.23C823.963 238.19 844.669 224.613 853.293 202.711C861.789 172.74 850.604 136.28 822.554 120.611C804.494 108.785 782.165 106.863 761.288 110.194C742.545 114.762 726.877 126.545 711.336 137.39C688.324 123.215 665.44 108.23 639.269 100.502C642.471 107.589 645.801 114.676 649.003 121.849C620.739 107.973 585.944 102.38 556.955 117.323C584.151 123.599 615.189 131.284 628.638 158.694C612.329 155.406 596.276 148.789 579.326 150.112C562.889 151.351 546.751 155.065 530.57 158.139C528.99 131.669 534.412 104.985 548.288 82.229C530.356 82.4424 512.425 82.6986 494.536 83.4671C499.788 107.034 504.441 130.9 504.954 155.108C487.15 153.015 469.219 150.582 451.245 151.82C433.612 152.759 419.053 163.817 403.556 171.032C411.027 160.231 418.925 148.96 430.709 142.513C447.317 133.334 466.23 129.747 483.905 123.258C466.316 109.212 442.194 110.194 421.743 116.427C405.776 121.849 392.114 132.095 377.555 140.421C390.491 123.599 407.27 110.535 422.81 96.318C414.101 99.9043 405.477 103.704 396.682 107.034C391.644 104.345 386.606 101.655 381.568 99.0078ZM736.653 155.577C753.347 179.657 774.309 200.576 788.953 226.193C793.394 223.119 797.834 220.13 802.231 217.099C813.502 202.327 825.03 183.285 818.199 164.159C815.338 153.229 806.543 145.758 798.432 138.67C775.932 128.936 753.987 142.001 736.653 155.577Z"></path>
<path fill="#E28E4D" d="M494.536 83.4669C512.425 82.6984 530.357 82.4422 548.288 82.2288C534.412 104.985 528.99 131.668 530.57 158.139C546.751 155.065 562.889 151.35 579.326 150.112C596.276 148.789 612.329 155.406 628.638 158.694C615.189 131.284 584.151 123.599 556.955 117.323C585.944 102.38 620.74 107.973 649.003 121.849C678.931 137.731 707.494 157.541 728.627 184.395C745.705 205.7 756.165 231.102 769.272 254.798C764.063 264.745 754.969 271.107 744.381 274.223C730.762 273.327 716.587 274.351 703.566 269.655C694.13 259.964 689.818 246.515 681.194 236.183C662.11 211.848 623.515 207.621 598.624 225.125C576.594 243.057 569.208 274.266 574.203 301.419C576.85 309.104 584.023 314.014 589.189 319.991C564.341 322.467 540.091 314.185 515.286 315.081C495.177 315.081 475.58 319.692 455.813 322.809C461.15 302.145 464.48 280.03 456.88 259.451C450.476 235.543 426.824 215.562 401.207 220.344C372.731 223.716 355.568 249.418 343.443 272.772C332.086 273.327 320.772 274.095 309.501 275.077C319.619 280.457 330.037 285.281 340.582 289.764C346.004 300.95 350.487 313.886 361.716 320.632C373.03 327.762 385.411 333.056 396.725 340.185L393.266 343.089C365.217 340.015 337.636 329.213 309.117 334.251C334.093 343.857 361.246 345.01 387.247 350.902C386.008 356.324 384.77 361.746 383.575 367.211C360.648 361.148 335.758 357.434 312.703 364.692C334.05 367.638 355.738 367.638 376.957 371.736C368.632 387.576 352.238 394.236 335.63 397.865C308.903 405.464 283.116 415.924 257.969 427.708C239.654 419.895 221.466 409.179 200.674 412.424C200.802 405.08 200.93 397.737 200.973 390.436C225.479 375.707 254.042 372.547 281.494 367.083C271.802 359.355 261.897 350.432 249.089 348.767C234.146 346.76 218.99 346.589 204.004 345.095C205.371 332.757 207.633 320.546 211.006 308.592C236.238 316.448 261.001 328.487 288.026 327.719C275.09 306.457 258.482 287.885 243.112 268.417C239.91 263.08 233.122 257.573 236.324 250.699C240.123 240.068 247.04 230.932 253.444 221.753C271.162 197.63 288.923 173.039 311.977 153.613C317.784 148.831 323.846 144.306 329.695 139.524C347.669 141.36 360.435 127.826 370.468 114.847C379.177 112.115 388.058 109.98 396.682 107.034C405.477 103.704 414.101 99.9041 422.811 96.3178C407.27 110.535 390.491 123.599 377.555 140.421C392.114 132.095 405.776 121.849 421.743 116.427C442.194 110.193 466.316 109.211 483.906 123.258C466.23 129.747 447.317 133.333 430.709 142.513C418.925 148.959 411.027 160.231 403.556 171.032C419.054 163.817 433.612 152.759 451.245 151.82C469.219 150.582 487.15 153.015 504.954 155.107C504.441 130.9 499.788 107.034 494.536 83.4669ZM454.66 195.581C461.662 197.204 468.749 198.74 475.794 200.32C485.998 192.08 496.031 183.456 503.289 172.398C485.528 175.558 466.401 180.852 454.66 195.581ZM534.968 176.113C537.358 182.175 537.444 191.525 545.812 192.294C567.458 196.862 589.231 200.875 610.152 208.304C591.195 187.683 562.42 177.906 534.968 176.113ZM312.618 379.763C327.774 381.598 343.058 381.641 358.215 380.019C344.126 372.974 324.529 364.436 312.618 379.763Z"></path>
<path fill="#30182D" d="M155.504 210.311C145.001 149.728 196.405 84.4919 259.293 86.7973C289.392 84.6199 314.112 104.814 335.544 123.258C350.572 114.548 365.772 106.18 381.568 99.0079C386.606 101.655 391.644 104.345 396.682 107.034C388.058 109.98 379.177 112.115 370.468 114.847C357.489 118.903 345.577 125.905 335.331 134.828C317.357 120.952 298.827 106.607 276.285 101.185C269.411 100.886 262.538 100.844 255.664 101.569C234.274 103.448 212.415 110.919 197.344 126.802C189.318 135.468 189.318 148.106 186.713 158.993C175.997 194.087 200.589 226.663 228.98 244.295C232.054 239.898 235.085 235.543 238.159 231.231C227.23 208.347 207.462 184.609 215.959 157.712C220.74 139.994 237.775 131.284 252.035 122.319C274.492 127.015 299.511 131.967 311.977 153.613C288.922 173.039 271.162 197.631 253.444 221.753C247.04 230.932 240.123 240.069 236.324 250.699C233.122 257.573 239.91 263.081 243.112 268.417C258.482 287.886 275.09 306.457 288.026 327.719C261.001 328.488 236.238 316.448 211.006 308.592C207.633 320.547 205.37 332.757 204.004 345.095C218.99 346.59 234.146 346.761 249.089 348.767C261.897 350.432 271.802 359.355 281.494 367.083C254.042 372.548 225.479 375.707 200.973 390.436C200.93 397.737 200.802 405.081 200.674 412.424C221.466 409.179 239.654 419.895 257.969 427.708C260.616 428.776 265.868 430.91 268.515 432.02C266.85 432.789 263.477 434.326 261.812 435.137C243.923 442.993 229.749 456.783 216.941 471.171C227.529 489.187 241.575 504.856 258.866 516.725C269.924 501.569 280.853 486.37 292.808 471.939C317.613 443.462 347.499 416.266 384.856 406.404C372.944 416.821 358.77 424.122 345.833 433.173C328.585 445.17 313.728 460.156 299.596 475.568C286.702 489.657 275.474 505.198 266.167 521.848C297.376 548.233 337.551 559.163 376.872 566.634C407.569 574.063 439.077 577.35 469.731 584.822C455.599 585.334 441.382 585.163 427.293 583.797C406.331 580.937 385.752 575.728 364.875 572.27C378.921 589.945 392.156 608.602 399.628 630.163C380.842 624.698 363.893 614.793 347.285 604.675C347.114 617.312 341.137 632.81 351.341 643.056C369.913 663.848 397.578 673.582 416.065 694.588C388.912 692.026 362.484 684.982 335.63 680.67C338.618 694.204 343.4 707.738 353.006 718.07C368.589 737.751 392.669 747.571 409.746 765.63C381.013 761.233 354.073 749.834 326.023 742.49C325.981 751.413 325.938 760.379 325.981 769.345C349.206 778.994 373.115 787.319 394.761 800.341C369.358 805.464 343.315 805.08 317.57 805.635C318.894 815.326 317.058 828.049 326.664 834.069C335.544 840.046 345.962 843.077 355.738 847.261C346.773 848.499 337.807 849.524 328.799 850.591C328.628 858.746 328.414 866.858 327.987 875.012C326.963 877.745 324.956 883.167 323.931 885.857C320.858 872.963 318.766 859.899 315.606 847.048C303.566 810.758 308.732 772.248 310.995 734.976C313.898 707.738 324.828 682.036 327.262 654.712C314.496 663.165 300.791 670.124 288.111 678.706C284.055 694.46 291.143 714.996 276.029 726.395C258.695 737.666 236.836 738.947 216.684 738.306C200.76 738.008 184.621 727.974 179.754 712.391C172.24 694.545 177.491 674.436 186.542 658.213C202.638 629.907 225.437 605.614 252.12 587.042C268.002 575.386 286.404 567.83 302.798 556.943C258.482 532.223 213.397 500.288 194.355 451.19C174.674 394.663 189.104 333.056 212.287 279.945C185.987 264.489 162.933 240.581 155.504 210.311ZM241.276 134.401C228.297 143.964 219.63 159.719 218.862 175.857C222.491 193.703 233.164 209.03 242.6 224.272C258.439 205.615 271.461 184.609 289.349 167.745C294.985 163.262 300.493 158.609 305.957 153.955C291.228 134.913 264.16 125.563 241.276 134.401ZM309.074 564.5C318.04 577.607 329.652 588.622 341.906 598.655C341.308 580.254 330.122 560.913 309.074 564.5ZM260.36 589.646C276.925 611.036 293.96 632.468 304.207 657.828C314.496 650.57 329.097 643.227 329.909 629.138C320.516 610.225 303.524 595.538 285.678 584.651C277.224 578.802 268.259 586.658 260.36 589.646ZM236.836 607.407L235.512 609.542C210.067 634.646 178.772 667.178 187.226 706.115C189.702 717.984 199.18 726.95 210.793 729.896C210.408 720.717 209.896 711.58 209.341 702.444C210.536 702.273 212.885 701.974 214.08 701.803C215.19 710.342 214.977 719.649 219.716 727.249C223.729 733.397 232.097 730.707 238.159 731.646C238.672 724.388 239.141 717.13 239.526 709.915C242.728 716.362 245.93 722.809 249.303 729.213C254.597 727.291 259.933 725.413 265.313 723.62C282.476 718.112 277.822 697.704 277.737 683.701C278.292 675.077 269.241 671.917 262.879 669.1C274.364 669.655 285.464 666.239 296.223 662.653C289.264 632.895 256.134 626.619 236.836 607.407Z"></path>
<path fill="#DB8044" d="M255.664 101.569C262.538 100.843 269.411 100.886 276.285 101.185C268.259 108.272 260.403 115.573 252.035 122.318C237.775 131.284 220.74 139.994 215.959 157.712C207.462 184.609 227.23 208.347 238.159 231.231C235.085 235.543 232.054 239.898 228.98 244.295C200.589 226.662 175.997 194.087 186.713 158.993C202.98 132.949 228.596 115.018 255.664 101.569Z"></path>
<path fill="#C66237" d="M276.285 101.185C298.828 106.607 317.357 120.952 335.331 134.828C333.922 136.023 331.104 138.372 329.695 139.524C323.846 144.306 317.784 148.831 311.977 153.613C299.511 131.967 274.492 127.015 252.035 122.319C260.403 115.573 268.259 108.272 276.285 101.185Z"></path>
<path fill="#C6603A" d="M639.269 100.502C665.44 108.229 688.324 123.215 711.336 137.389C726.877 126.545 742.545 114.762 761.288 110.193C771.919 113.95 781.482 120.098 790.363 127.015C767.052 130.473 745.534 140.25 726.194 153.442C752.749 183.798 778.536 215.434 794.418 252.919C790.533 255.353 786.691 257.829 782.848 260.305C778.323 258.469 773.797 256.591 769.272 254.798C756.165 231.103 745.705 205.7 728.627 184.395C707.494 157.541 678.931 137.731 649.003 121.849C645.801 114.676 642.471 107.589 639.269 100.502Z"></path>
<path fill="#D36F40" d="M761.288 110.193C782.165 106.863 804.494 108.784 822.554 120.611C850.604 136.279 861.79 172.74 853.293 202.711C844.669 224.613 823.963 238.19 804.879 250.229C800.865 244.423 796.895 238.617 792.967 232.81C809.148 214.153 829.214 191.952 824.091 165.226C821.188 146.782 803.897 137.261 790.363 127.015C781.482 120.098 771.919 113.95 761.288 110.193Z"></path>
<path fill="#D8BC9C" d="M335.331 134.828C345.577 125.905 357.489 118.903 370.468 114.847C360.435 127.826 347.669 141.36 329.695 139.524C331.104 138.372 333.922 136.023 335.331 134.828Z"></path>
<path fill="#D0ACAB" d="M241.276 134.401C264.16 125.563 291.228 134.913 305.957 153.955C300.492 158.608 294.985 163.262 289.349 167.745C277.181 151.82 261.513 138.371 241.276 134.401Z"></path>
<path fill="#F2E8E3" d="M218.862 175.857C219.63 159.718 228.297 143.964 241.276 134.401C261.513 138.371 277.181 151.82 289.349 167.745C271.46 184.609 258.439 205.614 242.599 224.272C233.164 209.03 222.491 193.703 218.862 175.857Z"></path>
<path fill="#C7A59D" d="M736.654 155.577C753.987 142 775.932 128.936 798.432 138.67C789.68 144.647 780.842 150.539 771.919 156.26C773.029 167.745 773.157 179.827 778.579 190.33C784.129 201.046 793.607 208.902 802.232 217.099C797.834 220.13 793.394 223.119 788.954 226.193C774.31 200.576 753.347 179.656 736.654 155.577Z"></path>
<path fill="#DAC6C2" d="M771.919 156.26C780.842 150.539 789.679 144.647 798.432 138.67C806.543 145.757 815.338 153.229 818.199 164.159C825.03 183.285 813.503 202.327 802.231 217.099C793.607 208.902 784.129 201.046 778.579 190.33C773.157 179.827 773.029 167.745 771.919 156.26Z"></path>
<path fill="#421A31" d="M454.66 195.581C466.401 180.852 485.528 175.558 503.289 172.398C496.031 183.456 485.998 192.08 475.794 200.32C468.749 198.74 461.662 197.204 454.66 195.581Z"></path>
<path fill="#321732" d="M534.968 176.113C562.42 177.906 591.195 187.683 610.152 208.304C589.231 200.875 567.458 196.862 545.812 192.294C537.444 191.525 537.358 182.175 534.968 176.113Z"></path>
<path fill="#371A30" d="M598.624 225.125C623.515 207.621 662.11 211.848 681.194 236.183C689.819 246.515 694.131 259.964 703.566 269.655C716.588 274.352 730.762 273.327 744.381 274.223C734.732 277.98 725.425 286.007 714.453 283.232C708.305 282.25 702.285 280.884 696.265 279.603C694.301 290.661 692.38 301.718 690.672 312.776C668.728 322.51 645.331 328.402 621.508 330.964C617.367 328.573 613.226 326.225 609.084 323.876C630.303 321.998 652.162 319.949 671.759 310.983C686.019 305.048 686.702 287.16 687.556 274.01C686.488 240.068 648.448 219.959 617.751 225.211C605.114 226.62 596.447 236.738 587.823 244.978C596.66 248.692 606.608 250.528 614.421 256.42C622.832 269.783 622.234 286.946 619.459 301.974C618.221 309.19 612.457 314.398 605.669 316.618C600.204 317.899 594.696 319.009 589.189 319.991C584.023 314.014 576.85 309.104 574.203 301.419C569.208 274.266 576.594 243.057 598.624 225.125ZM584.535 257.06C585.389 262.269 586.286 267.478 587.225 272.686C595.038 267.606 602.808 262.397 610.237 256.719C601.698 255.182 593.031 255.481 584.535 257.06Z"></path>
<path fill="#F5ECE9" d="M418.114 756.622C417.26 706.328 420.334 656.078 424.945 606.04C485.058 613.981 546.111 620.087 606.736 614.537C616.385 653.986 615.83 694.929 622.02 734.933C621.722 755.298 620.91 777.2 609.041 794.662C590.768 821.901 561.993 840.515 531.509 851.573C508.796 852.085 486.126 852.726 463.455 853.537C450.049 837.954 436.515 822.456 424.262 805.976C419.779 789.923 418.627 773.187 418.114 756.622Z"></path>
<path fill="#3D1A2E" d="M343.443 272.772C355.568 249.418 372.731 223.717 401.207 220.344C426.824 215.562 450.476 235.543 456.88 259.452C464.48 280.03 461.15 302.145 455.813 322.809C454.361 322.895 451.458 323.065 449.964 323.151C437.796 322.681 422.469 321.699 416.193 309.318C412.308 298.858 413.119 287.032 415.809 276.401C421.615 263.934 436.003 259.793 446.89 253.09C436.558 240.197 422.213 227.815 404.452 229.779C369.144 232.554 346.218 272.601 355.696 305.433C368.077 321.913 389.253 327.42 408.722 330.195C404.708 333.525 400.695 336.813 396.725 340.186C385.411 333.056 373.029 327.762 361.716 320.632C350.487 313.886 346.004 300.95 340.582 289.764C330.037 285.281 319.619 280.457 309.501 275.077C320.772 274.096 332.086 273.327 343.443 272.772ZM423.451 278.92C430.239 284.043 437.967 280.073 444.926 277.767C445.011 274.693 445.225 268.631 445.31 265.599C435.79 265.599 423.238 266.197 423.451 278.92Z"></path>
<path fill="#F1EAEA" d="M587.823 244.978C596.447 236.738 605.114 226.62 617.751 225.211C648.448 219.959 686.488 240.068 687.556 274.01C686.702 287.16 686.019 305.048 671.759 310.983C652.162 319.949 630.303 321.998 609.084 323.876C613.226 326.225 617.367 328.573 621.508 330.964C624.966 332.97 628.467 335.062 631.925 337.154C618.818 340.484 606.266 346.034 595.678 354.531C611.475 351.841 626.119 343.814 642.257 343.174C649.558 345.992 653.486 353.719 658.737 359.184C640.037 361.618 621.209 364.649 603.833 372.291C612.841 374.597 621.85 376.774 630.815 379.165C631.797 400.725 615.147 417.888 593.885 418.486C570.873 417.931 543.25 418.614 527.795 398.249C524.806 390.778 522.245 383.178 519.726 375.579C540.774 367.339 565.238 359.782 576.509 338.264C582.016 326.353 594.397 321.486 605.669 316.618C612.457 314.398 618.221 309.19 619.459 301.974C622.234 286.946 622.832 269.783 614.421 256.42C606.608 250.528 596.66 248.692 587.823 244.978Z"></path>
<path fill="#F4EEEB" d="M355.696 305.433C346.218 272.601 369.144 232.554 404.452 229.779C422.213 227.815 436.558 240.196 446.89 253.09C436.003 259.793 421.615 263.934 415.809 276.401C413.119 287.032 412.308 298.858 416.193 309.318C422.469 321.699 437.796 322.681 449.964 323.151C451.373 329.469 452.653 335.873 454.233 342.192C469.347 362.429 495.646 366.015 517.634 374.853C519.854 380.446 521.092 386.423 522.415 392.315C517.249 398.676 512.126 405.08 507.045 411.57C481.899 417.718 453.038 422.969 428.958 410.716C416.193 401.537 425.671 385.868 432.246 376.048C415.979 373.273 399.585 371.096 383.575 367.211C384.77 361.746 386.008 356.324 387.246 350.902C406.715 352.097 424.988 359.312 444.115 362.429C430.068 349.92 410.685 347.87 393.266 343.089L396.724 340.185C400.695 336.813 404.708 333.525 408.721 330.195C389.253 327.42 368.077 321.912 355.696 305.433Z"></path>
<path fill="#DC7C45" d="M769.272 254.797C773.797 256.591 778.323 258.469 782.848 260.305C786.691 257.829 790.533 255.352 794.418 252.919C795.528 255.182 797.706 259.75 798.773 262.013C780.585 280.115 760.818 296.766 745.406 317.43C769.827 319.906 793.906 314.569 818.113 312.477C821.657 322.254 825.073 332.031 828.488 341.85C804.281 351.414 779.091 358.245 753.518 362.984C779.518 378.097 809.788 382.324 837.497 393.297C837.326 400.128 837.198 406.959 837.027 413.79C815.509 411.014 793.821 413.192 773.114 419.34C744.296 406.019 713.599 397.481 684.61 384.715C698.442 383.562 712.361 383.007 726.193 381.556C707.75 375.194 688.153 377.5 669.112 378.354C667.575 375.322 664.543 369.217 663.049 366.186C684.311 364.478 707.28 367.936 726.791 357.476C706.341 355.171 685.72 359.312 665.355 356.622C658.097 353.036 652.803 346.632 646.954 341.295C671.332 333.184 697.973 337.367 721.967 327.889C691.654 324.73 661.128 329.128 631.925 337.154C628.467 335.062 624.966 332.97 621.508 330.963C645.331 328.402 668.727 322.51 690.672 312.776C692.38 301.718 694.301 290.66 696.265 279.603C702.285 280.883 708.305 282.25 714.453 283.232C725.425 286.007 734.732 277.98 744.381 274.223C754.969 271.107 764.063 264.745 769.272 254.797Z"></path>
<path fill="#422835" d="M858.929 331.86C880.361 324.389 903.031 321.144 924.421 313.374C924.25 316.021 923.909 321.358 923.738 324.005C902.903 332.33 880.66 335.831 858.843 340.613C858.843 338.435 858.886 334.038 858.929 331.86Z"></path>
<path fill="#6F2E36" d="M455.813 322.809C475.58 319.692 495.177 315.082 515.285 315.082C540.091 314.185 564.341 322.468 589.189 319.991C594.696 319.009 600.204 317.899 605.668 316.619C594.397 321.486 582.016 326.353 576.508 338.264C576.21 336.898 575.569 334.208 575.27 332.885C544.83 342.662 512.596 346.504 480.703 343.473C473.915 342.704 468.109 338.819 462.217 335.703C459.57 337.88 456.837 339.972 454.233 342.192C452.653 335.873 451.373 329.469 449.964 323.151C451.458 323.065 454.361 322.894 455.813 322.809ZM466.187 329.64C500.214 332.244 534.711 331.348 568.567 327.292C552.258 318.412 533.217 319.906 515.328 320.247C498.635 320.973 481.088 320.973 466.187 329.64Z"></path>
<path fill="#B49EA7" d="M466.187 329.64C481.088 320.973 498.635 320.973 515.328 320.247C533.217 319.906 552.258 318.411 568.567 327.292C534.711 331.348 500.214 332.244 466.187 329.64Z"></path>
<path fill="#3E1529" d="M631.925 337.154C661.128 329.128 691.654 324.73 721.967 327.89C697.973 337.368 671.332 333.184 646.954 341.296C652.803 346.632 658.097 353.036 665.355 356.623C685.72 359.312 706.341 355.171 726.791 357.477C707.28 367.937 684.311 364.478 663.049 366.186C651.308 366.143 639.525 366.741 627.997 369.047C640.763 375.28 654.98 377.713 669.112 378.354C688.153 377.5 707.75 375.195 726.193 381.556C712.361 383.008 698.442 383.563 684.61 384.715C713.599 397.481 744.296 406.02 773.114 419.34C770.254 420.194 764.575 421.902 761.758 422.756C757.232 420.834 752.664 419.127 748.095 417.504C710.098 406.532 675.687 384.929 636.494 378.098C636.536 387.405 637.433 397.054 633.676 405.849C622.703 436.973 612.201 469.249 591.964 495.805C577.021 515.572 553.283 529.234 528.051 528.466C495.006 529.448 470.03 502.892 451.586 478.599C431.264 452.769 425.073 419.895 412.735 390.223C416.321 386.508 419.907 382.794 423.494 379.08C406.459 375.792 383.489 367.296 371.919 385.27C380.33 387.875 388.826 390.265 397.28 392.87C351.853 395.986 309.287 412.808 268.515 432.02C265.868 430.91 260.616 428.775 257.969 427.708C283.116 415.925 308.903 405.465 335.63 397.865C352.238 394.236 368.632 387.576 376.957 371.736C355.738 367.638 334.05 367.638 312.703 364.692C335.758 357.434 360.648 361.148 383.575 367.211C399.585 371.096 415.98 373.273 432.246 376.048C425.671 385.868 416.193 401.537 428.958 410.716C453.038 422.969 481.899 417.718 507.046 411.57C511.571 414.43 516.097 417.376 520.665 420.279C499.702 418.572 478.782 421.688 458.332 426.086C471.866 447.646 500.343 447.262 521.391 438.211C528.179 437.186 535.053 436.546 541.927 436.375C555.887 439.961 570.361 446.579 584.919 442.309C588.762 437.827 590.427 432.148 592.007 426.641C592.476 424.591 593.415 420.493 593.885 418.486C615.147 417.888 631.797 400.726 630.815 379.165C621.85 376.774 612.841 374.597 603.833 372.291C621.209 364.649 640.037 361.618 658.737 359.184C653.486 353.72 649.558 345.992 642.257 343.174C626.119 343.815 611.475 351.841 595.678 354.531C606.266 346.035 618.818 340.484 631.925 337.154ZM496.5 512.925C519.939 529.832 555.204 524.581 572.495 501.526C558.876 490.255 541.756 482.015 523.696 486.412C508.924 487.01 501.367 500.885 496.5 512.925Z"></path>
<path fill="#321324" d="M480.703 343.473C512.596 346.504 544.83 342.662 575.27 332.885C575.569 334.208 576.21 336.898 576.509 338.264C565.237 359.782 540.774 367.339 519.726 375.579C522.245 383.178 524.806 390.778 527.795 398.249C526.471 396.755 523.782 393.809 522.415 392.315C521.092 386.423 519.854 380.446 517.634 374.853C495.646 366.015 469.347 362.429 454.233 342.192C456.837 339.972 459.57 337.88 462.217 335.703C468.109 338.819 473.915 342.704 480.703 343.473Z"></path>
<path fill="#F4EDE9" d="M627.998 369.047C639.525 366.741 651.308 366.144 663.049 366.186C664.544 369.218 667.575 375.323 669.112 378.354C654.98 377.714 640.763 375.28 627.998 369.047Z"></path>
<path fill="#F4EDE9" d="M371.919 385.27C383.489 367.296 406.459 375.792 423.493 379.08C419.907 382.794 416.321 386.509 412.735 390.223C425.073 419.895 431.264 452.77 451.586 478.599C470.03 502.892 495.006 529.448 528.051 528.466C553.283 529.234 577.021 515.572 591.964 495.805C612.201 469.249 622.703 436.973 633.676 405.849C637.433 397.054 636.536 387.405 636.493 378.098C675.686 384.929 710.098 406.532 748.095 417.504C753.646 431.892 752.493 447.049 743.185 459.601C721.07 435.564 693.831 416.693 664.031 403.415C689.647 420.023 713.513 439.15 735.159 460.668C726.321 472.537 717.142 484.577 704.889 493.243C658.182 525.99 602.808 544.135 546.879 553.399C505.807 556.003 463.882 555.79 423.963 544.561C388.058 536.364 355.354 518.561 324.742 498.665C315.136 492.389 307.11 484.107 299.596 475.568C313.727 460.156 328.585 445.17 345.833 433.173C358.77 424.122 372.944 416.821 384.855 406.404C347.498 416.266 317.613 443.462 292.807 471.939C281.237 460.796 270.948 448.372 261.812 435.137C263.477 434.326 266.85 432.789 268.515 432.02C309.287 412.808 351.853 395.987 397.279 392.87C388.826 390.266 380.33 387.875 371.919 385.27Z"></path>
<path fill="#9D5443" d="M312.617 379.763C324.529 364.436 344.126 372.974 358.215 380.019C343.058 381.641 327.774 381.598 312.617 379.763Z"></path>
<path fill="#4E3141" d="M889.284 376.945C892.059 372.803 902.605 373.401 901.666 379.634C898.848 383.605 888.473 382.922 889.284 376.945Z"></path>
<path fill="#6E3D4B" d="M522.415 392.315C523.781 393.809 526.471 396.755 527.795 398.249C543.25 418.614 570.873 417.931 593.885 418.486C593.415 420.493 592.476 424.592 592.006 426.641C578.558 425.445 565.024 423.311 551.532 424.89C548.117 428.519 544.915 432.362 541.926 436.375C535.053 436.546 528.179 437.186 521.391 438.211C521.177 433.728 520.836 424.762 520.665 420.28C516.097 417.376 511.571 414.43 507.045 411.57C512.126 405.08 517.249 398.676 522.415 392.315Z"></path>
<path fill="#2F1D2B" d="M664.031 403.415C693.832 416.693 721.071 435.564 743.186 459.6C757.446 475.354 769.443 492.902 781.141 510.577C790.107 504.258 799.072 497.939 807.995 491.535C808.081 493.286 808.337 496.787 808.465 498.537C787.63 526.373 752.28 538.413 723.034 555.747C745.022 557.327 766.71 561.041 788.399 564.755C811.155 565.481 836.984 561.98 855.386 578.759C872.164 589.646 876.306 611.591 870.328 629.693C861.533 646.898 841.937 653.559 824.774 659.237C792.882 669.996 759.58 659.664 727.048 659.493C730.378 684.768 733.921 709.957 738.618 735.019C740.069 767.893 742.417 802.005 731.531 833.642C725.639 851.872 722.65 870.956 715.776 888.887C711.763 901.013 696.735 901.141 686.275 902.763C657.67 904.086 627.955 905.88 600.204 897.469C589.787 894.865 587.054 883.508 583.81 874.756C582.059 869.291 580.479 863.783 578.9 858.319C544.147 858.191 509.01 855.885 474.556 861.094C466.914 861.649 466.273 870.657 462.73 875.823C455.13 893.2 436.473 901.61 418.499 903.019C391.687 905.367 363.979 906.435 337.722 899.732C330.336 898.536 326.365 892.26 323.932 885.856C324.956 883.167 326.963 877.744 327.988 875.012C333.794 898.451 360.99 894.822 379.605 895.761C380.245 884.533 381.014 873.347 382.209 862.204C384.472 873.688 385.838 885.258 387.332 896.914C395.572 896.444 403.855 896.017 412.137 895.548C414.144 881.629 415.169 867.583 416.748 853.622C418.926 867.413 419.523 881.331 420.292 895.292C425.757 893.925 431.264 892.474 436.686 890.98C446.762 886.497 459.186 880.306 458.247 867.327C460.894 851.061 445.524 841.455 435.448 831.806C430.624 823.694 426.483 815.155 424.262 805.976C436.516 822.456 450.05 837.954 463.455 853.537C486.126 852.726 508.796 852.085 531.51 851.573C547.434 850.634 564.768 853.793 579.583 846.407C603.107 830.696 620.313 806.019 628.339 778.951C631.413 769.643 634.701 760.464 638.501 751.456C639.653 785.654 621.679 816.222 598.838 840.259C588.207 848.499 588.421 861.435 591.58 873.39C592.05 885.856 603.876 890.382 614.293 892.645C615.446 882.74 616.428 872.877 617.41 863.015C618.733 862.161 621.295 860.496 622.576 859.685C622.106 870.913 617.154 884.106 624.668 893.968C633.761 895.889 643.069 896.145 652.333 896.914C653.144 886.07 653.785 875.268 654.297 864.424C655.279 864.424 657.243 864.424 658.225 864.424C658.737 875.439 659.292 886.497 660.061 897.512C668.642 895.975 677.224 894.352 685.805 892.687C692.807 891.364 699.98 891.022 707.11 890.638C712.617 875.78 716.332 860.368 719.277 844.827C712.276 846.023 705.274 847.261 698.229 848.2C692.209 848.542 686.232 848.755 680.212 848.798C698.272 832.702 727.389 825.786 731.787 798.462C707.622 799.913 683.414 802.133 659.207 801.28C678.59 784.416 703.438 776.816 727.048 767.978C727.645 764.691 728.798 758.159 729.396 754.871C704.164 754.871 679.06 758.287 653.828 758.159C671.289 738.221 699.98 734.891 718.552 716.447C725.553 710 722.906 699.327 724.699 690.959C692.252 694.033 661.128 704.706 628.894 709.061C654.639 688.482 685.848 675.076 709.074 651.339C718.466 643.355 713.514 630.504 712.873 620.129C687.727 628.583 664.117 640.793 639.44 650.485C649.089 636.78 659.634 623.758 670.179 610.737C681.024 597.8 689.733 583.071 693.704 566.548C664.843 568.043 637.134 576.752 608.743 581.235C586.542 584.523 564.17 586.06 541.884 588.45C542.012 587.17 542.226 584.608 542.354 583.37C572.538 582.26 602.211 576.112 631.755 570.348C682.304 559.632 734.178 545.799 775.932 513.95C766.155 493.542 751.896 475.781 735.16 460.668C713.514 439.15 689.648 420.023 664.031 403.415ZM705.786 563.133C710.952 582.345 716.417 601.472 722.479 620.428C731.659 603.137 733.921 583.455 736.995 564.456C726.663 562.877 716.203 562.151 705.786 563.133ZM768.802 568.598C760.05 600.021 739.173 624.996 719.662 650.229C732.982 656.206 748.224 657.529 762.313 653.729C779.348 647.411 791.046 629.607 790.576 611.463C790.747 594.897 789.68 571.031 768.802 568.598ZM798.816 571.416C807.27 593.873 803.512 617.781 804.452 641.135C800.439 639.982 796.468 638.701 792.54 637.378C787.673 643.099 782.849 648.862 778.152 654.754C793.607 656.419 809.788 657.572 824.646 651.766C840.016 646.13 858.63 638.701 861.619 620.386C862.772 617.995 864.992 613.256 866.144 610.907C858.374 610.395 850.647 610.054 842.919 609.541C849.024 605.741 855.343 602.241 861.662 598.782C860.509 596.434 858.161 591.738 857.008 589.432C847.444 591.567 837.753 593.061 828.318 595.58C828.19 592.592 827.933 586.572 827.763 583.583C835.106 584.224 842.449 584.651 849.835 584.821C837.625 573.123 820.12 572.312 804.238 574.063C802.872 573.422 800.14 572.099 798.816 571.416Z"></path>
<path fill="#F7F8F7" d="M458.332 426.086C478.782 421.688 499.702 418.571 520.665 420.279C520.836 424.762 521.177 433.728 521.391 438.211C500.343 447.262 471.866 447.646 458.332 426.086Z"></path>
<path fill="#CF6C3B" d="M748.095 417.504C752.664 419.126 757.232 420.834 761.757 422.755C781.354 436.033 801.932 449.14 817.003 467.669C815.296 476.037 811.24 483.68 807.995 491.535C799.072 497.939 790.106 504.258 781.14 510.577C769.442 492.902 757.445 475.354 743.186 459.6C752.493 447.048 753.646 431.892 748.095 417.504Z"></path>
<path fill="#F2F0EC" d="M551.533 424.89C565.024 423.311 578.558 425.445 592.007 426.641C590.427 432.148 588.762 437.827 584.92 442.309C570.361 446.579 555.888 439.961 541.927 436.375C544.915 432.362 548.117 428.519 551.533 424.89Z"></path>
<path fill="#634148" d="M123.526 453.751C130.016 438.296 144.403 426.342 161.908 428.007C153.369 438.936 136.078 442.01 134.029 457.636C144.788 455.843 155.077 452.47 165.494 449.354C160.414 456.911 154.992 464.254 150.082 471.939C157.809 471.981 165.58 472.024 173.307 472.494C170.874 478.087 168.44 483.68 166.049 489.273C172.026 489.785 178.046 490.297 184.023 490.938C178.601 496.317 173.051 501.568 167.842 507.204C174.033 506.521 180.181 505.667 186.329 504.856C185.817 507.546 184.792 512.882 184.28 515.572C177.491 516.383 169.294 521.378 164.128 514.376C156.272 506.393 161.993 495.548 163.488 486.369C154.394 486.668 145.215 486.924 136.206 485.174C138.896 479.239 141.586 473.305 144.233 467.371C137.188 463.058 130.229 458.576 123.526 453.751Z"></path>
<path fill="#E08C52" d="M216.941 471.17C229.749 456.783 243.923 442.992 261.812 435.137C270.949 448.372 281.238 460.796 292.808 471.939C280.854 486.369 269.924 501.569 258.866 516.725C241.575 504.856 227.529 489.187 216.941 471.17Z"></path>
<path fill="#D0ADA4" d="M735.159 460.668C751.895 475.782 766.155 493.542 775.932 513.95C734.177 545.8 682.304 559.632 631.755 570.349C602.21 576.112 572.538 582.26 542.354 583.37C543.25 573.294 544.83 563.261 546.879 553.399C602.808 544.135 658.182 525.99 704.889 493.243C717.142 484.577 726.322 472.537 735.159 460.668Z"></path>
<path fill="#C7A29D" d="M266.167 521.848C275.474 505.198 286.703 489.657 299.596 475.568C307.11 484.107 315.137 492.39 324.743 498.666C355.354 518.561 388.058 536.364 423.963 544.561C463.882 555.79 505.808 556.003 546.879 553.399C544.83 563.261 543.25 573.294 542.354 583.37C542.226 584.608 542.012 587.17 541.884 588.451C564.17 586.06 586.542 584.523 608.743 581.236C607.248 588.494 605.797 595.837 604.729 603.223C605.242 606.041 606.224 611.719 606.736 614.537C546.111 620.087 485.058 613.982 424.945 606.041C425.714 598.612 426.482 591.183 427.294 583.797C441.383 585.163 455.6 585.334 469.731 584.822C439.077 577.35 407.569 574.063 376.872 566.634C337.551 559.163 297.376 548.233 266.167 521.848Z"></path>
<path fill="#CE6693" d="M496.5 512.925C501.368 500.885 508.924 487.01 523.697 486.412C541.756 482.015 558.876 490.255 572.496 501.526C555.205 524.581 519.939 529.832 496.5 512.925Z"></path>
<path fill="#503244" d="M838.478 527.911C837.411 521.08 833.996 509.68 843.431 507.716C850.561 516.938 860.551 521.976 871.395 525.733C871.395 528.209 871.438 533.162 871.481 535.638C866.272 533.375 861.149 531.07 856.068 528.636C850.305 529.917 841.296 536.407 838.478 527.911Z"></path>
<path fill="#C05D39" d="M705.786 563.133C716.203 562.151 726.663 562.877 736.995 564.457C733.921 583.456 731.658 603.137 722.479 620.429C716.417 601.472 710.952 582.345 705.786 563.133Z"></path>
<path fill="#EB8948" d="M309.074 564.499C330.122 560.913 341.308 580.253 341.905 598.654C329.652 588.621 318.04 577.606 309.074 564.499Z"></path>
<path fill="#D3723F" d="M608.742 581.236C637.134 576.753 664.842 568.043 693.703 566.549C689.733 583.071 681.023 597.801 670.179 610.737C659.719 607.279 649.985 601.985 640.806 596.008C630.773 600.192 620.825 604.717 610.963 609.371C609.426 607.834 606.309 604.76 604.729 603.223C605.797 595.837 607.248 588.494 608.742 581.236Z"></path>
<path fill="#C66036" d="M768.802 568.598C789.68 571.031 790.747 594.897 790.576 611.463C791.046 629.607 779.348 647.411 762.313 653.729C748.224 657.529 732.982 656.206 719.662 650.229C739.173 624.996 760.05 600.02 768.802 568.598Z"></path>
<path fill="#E28F50" d="M364.875 572.27C385.752 575.728 406.33 580.937 427.293 583.797C426.482 591.183 425.713 598.612 424.945 606.041C420.334 656.078 417.26 706.329 418.114 756.622C418.626 773.187 419.779 789.923 424.262 805.976C426.482 815.155 430.623 823.694 435.448 831.806C438.65 851.36 438.18 871.255 436.686 890.98C431.264 892.474 425.756 893.926 420.291 895.292C419.523 881.331 418.925 867.413 416.748 853.623C415.168 867.584 414.143 881.63 412.137 895.548C403.854 896.018 395.572 896.445 387.332 896.914C385.837 885.259 384.471 873.689 382.208 862.204C381.013 873.347 380.244 884.533 379.604 895.761C360.99 894.822 333.794 898.451 327.987 875.012C328.414 866.858 328.628 858.746 328.798 850.591C337.807 849.524 346.772 848.499 355.738 847.261C345.961 843.077 335.544 840.046 326.664 834.069C317.057 828.049 318.893 815.326 317.57 805.635C343.314 805.08 369.358 805.464 394.76 800.341C373.115 787.319 349.206 778.994 325.981 769.345C325.938 760.379 325.981 751.413 326.023 742.49C354.073 749.834 381.013 761.233 409.746 765.63C392.668 747.571 368.589 737.751 353.006 718.069C343.4 707.738 338.618 694.204 335.629 680.67C362.484 684.982 388.911 692.026 416.065 694.588C397.578 673.582 369.913 663.848 351.341 643.056C341.137 632.81 347.114 617.312 347.285 604.674C363.893 614.793 380.842 624.698 399.628 630.163C392.156 608.602 378.921 589.945 364.875 572.27Z"></path>
<path fill="#EBD9D3" d="M798.816 571.416C800.139 572.099 802.872 573.423 804.238 574.063C809.148 581.961 813.204 590.372 817.345 598.697C820.078 597.929 825.585 596.349 828.317 595.581C837.753 593.062 847.444 591.568 857.008 589.433C858.16 591.738 860.509 596.435 861.661 598.783C855.343 602.241 849.024 605.742 842.919 609.542C850.646 610.054 858.374 610.396 866.144 610.908C864.991 613.256 862.771 617.995 861.619 620.386C845.31 632.511 825.927 646.216 804.452 641.135C803.512 617.782 807.269 593.873 798.816 571.416Z"></path>
<path fill="#D4B4B5" d="M804.238 574.063C820.12 572.313 837.625 573.124 849.835 584.822C842.449 584.651 835.106 584.224 827.763 583.584C827.933 586.572 828.19 592.592 828.318 595.581C825.585 596.349 820.078 597.929 817.345 598.697C813.204 590.372 809.148 581.961 804.238 574.063Z"></path>
<path fill="#E28048" d="M260.36 589.646C268.259 586.658 277.224 578.802 285.678 584.651C303.524 595.538 320.516 610.225 329.909 629.138C329.098 643.227 314.496 650.57 304.207 657.828C293.96 632.468 276.926 611.036 260.36 589.646Z"></path>
<path fill="#E28547" d="M610.963 609.37C620.825 604.717 630.773 600.191 640.806 596.007C649.985 601.984 659.719 607.278 670.179 610.737C659.634 623.758 649.089 636.78 639.44 650.485C664.117 640.793 687.727 628.583 712.873 620.129C713.514 630.504 718.466 643.355 709.073 651.339C685.848 675.076 654.639 688.482 628.894 709.061C661.128 704.706 692.252 694.033 724.699 690.959C722.906 699.327 725.553 710 718.552 716.447C699.98 734.891 671.289 738.221 653.828 758.159C679.06 758.287 704.164 754.871 729.396 754.871C728.798 758.159 727.645 764.691 727.048 767.978C703.438 776.816 678.59 784.415 659.207 801.28C683.414 802.133 707.622 799.913 731.787 798.462C727.389 825.786 698.272 832.702 680.212 848.798C686.232 848.755 692.209 848.542 698.229 848.2C700.834 859.172 703.438 870.102 706.085 881.075C700.791 874.372 695.411 867.669 690.075 861.051C688.495 871.554 687.086 882.099 685.805 892.687C677.224 894.352 668.642 895.975 660.061 897.512C659.292 886.497 658.737 875.439 658.225 864.424C657.243 864.424 655.279 864.424 654.297 864.424C653.785 875.268 653.144 886.07 652.333 896.914C643.069 896.145 633.761 895.889 624.668 893.968C617.153 884.106 622.106 870.913 622.576 859.685C621.295 860.496 618.733 862.161 617.41 863.015C616.428 872.877 615.446 882.74 614.293 892.645C603.876 890.382 592.049 885.856 591.58 873.39C593.715 862.289 596.063 851.231 598.838 840.259C621.679 816.222 639.653 785.654 638.5 751.456C634.701 760.464 631.413 769.643 628.339 778.951C626.845 764.179 624.198 749.577 622.021 734.933C615.83 694.929 616.385 653.986 606.736 614.536C606.224 611.719 605.242 606.04 604.73 603.222C606.309 604.759 609.426 607.833 610.963 609.37Z"></path>
<path fill="#E4894A" d="M236.836 607.407C256.134 626.619 289.264 632.895 296.223 662.653C285.464 666.239 274.364 669.655 262.879 669.1L259.506 668.801C261.513 687.074 263.306 705.347 265.313 723.62C259.933 725.413 254.597 727.291 249.303 729.213C245.93 722.808 242.728 716.362 239.526 709.915C239.142 717.13 238.672 724.388 238.16 731.646C232.097 730.707 223.729 733.397 219.716 727.249C214.977 719.649 215.19 710.342 214.08 701.803C212.885 701.974 210.537 702.273 209.341 702.444C209.896 711.58 210.408 720.717 210.793 729.896C199.18 726.95 189.702 717.984 187.226 706.115C192.264 685.793 197.942 665.044 209.811 647.497C218.307 634.774 227.7 622.691 235.513 609.542L236.836 607.407Z"></path>
<path fill="#DB9383" d="M804.452 641.135C825.927 646.215 845.31 632.511 861.619 620.385C858.63 638.701 840.016 646.13 824.646 651.766C809.788 657.572 793.607 656.419 778.152 654.754C782.848 648.862 787.673 643.099 792.54 637.378C796.468 638.701 800.438 639.982 804.452 641.135Z"></path>
<path fill="#C55A40" d="M259.506 668.801L262.879 669.1C269.24 671.917 278.292 675.077 277.737 683.701C277.822 697.705 282.476 718.112 265.313 723.62C263.306 705.347 261.513 687.074 259.506 668.801Z"></path>
<path fill="#95A382" d="M308.05 838.637C301.987 804.482 301.048 768.406 310.995 734.976C308.733 772.248 303.567 810.758 315.606 847.048C305.061 861.521 290.801 872.451 278.036 884.832C286.831 892.816 296.053 900.927 307.751 904.3C349.89 917.706 394.804 915.7 438.437 915.529C515.371 914.76 592.263 914.589 669.155 913.736C701.004 913.095 733.58 907.588 761.587 891.748C770.937 886.241 781.183 879.154 783.361 867.754C776.743 856.142 765.259 848.798 755.652 839.961C748.949 830.568 753.518 816.436 757.873 806.531C761.459 798.334 773.029 798.547 777.256 806.019C782.336 818.827 782.379 832.916 784.684 846.365C795.443 828.945 803.726 808.154 824.005 799.657C829.257 818.059 819.736 835.478 815.21 852.897C835.533 847.304 842.278 823.096 862.131 816.308C867.98 812.636 873.573 817.76 878.782 820.023C871.011 833.087 862.686 845.81 856.026 859.514C873.402 852.598 893.298 833.685 912.126 847.09C909.094 857.38 897.823 861.436 890.181 867.754C899.659 872.835 910.93 876.208 917.676 885.131C921.774 893.84 913.364 900.671 906.618 904.599C887.833 915.016 866.529 919.499 845.822 924.58C777.981 939.395 708.817 948.275 639.397 950.837C489.413 952.288 336.612 958.052 190.214 919.371C174.588 913.821 154.992 910.448 145.3 895.761C141.501 877.104 165.58 873.561 177.748 866.9C171.557 859.6 165.409 852.256 159.389 844.913C163.36 842.437 167.202 837.869 172.454 839.619C186.97 843.333 199.137 852.726 212.586 858.959C206.993 841.583 191.709 826.768 194.484 807.428C221.253 807.897 225.01 840.003 245.119 851.36C246.442 838.466 237.989 822.883 246.698 811.953C259.464 818.016 264.075 832.404 272.699 842.65C284.482 846.151 296.565 841.284 308.05 838.637Z"></path>
<path fill="#D0A6A0" d="M622.021 734.934C624.198 749.578 626.845 764.179 628.339 778.951C620.313 806.019 603.107 830.696 579.583 846.407C564.768 853.794 547.434 850.634 531.51 851.573C561.993 840.516 590.769 821.901 609.042 794.662C620.911 777.201 621.722 755.299 622.021 734.934Z"></path>
<path fill="#B35F3D" d="M435.448 831.806C445.524 841.455 460.894 851.061 458.247 867.327C459.186 880.306 446.762 886.497 436.686 890.98C438.181 871.255 438.65 851.36 435.448 831.806Z"></path>
<path fill="#7D8468" d="M715.776 888.888C722.65 870.956 725.639 851.872 731.53 833.642C737.123 841.711 747.199 839.79 755.652 839.961C765.259 848.798 776.743 856.142 783.361 867.754C781.183 879.154 770.937 886.241 761.587 891.748C733.58 907.588 701.004 913.095 669.155 913.736C592.263 914.59 515.371 914.76 438.437 915.529C394.803 915.7 349.889 917.706 307.751 904.3C296.052 900.928 286.831 892.816 278.036 884.832C290.801 872.451 305.061 861.521 315.606 847.048C318.766 859.899 320.858 872.963 323.932 885.857C326.365 892.261 330.336 898.537 337.722 899.732C363.979 906.435 391.687 905.368 418.499 903.019C436.473 901.611 455.13 893.2 462.73 875.823C503.118 880.605 543.421 873.176 583.809 874.756C587.054 883.508 589.787 894.865 600.204 897.469C627.955 905.88 657.67 904.087 686.275 902.763C696.735 901.141 711.763 901.013 715.776 888.888Z"></path>
<path fill="#CF5F37" d="M698.229 848.201C705.273 847.261 712.275 846.023 719.277 844.828C716.331 860.368 712.617 875.781 707.109 890.638C699.979 891.023 692.807 891.364 685.805 892.688C687.086 882.1 688.495 871.554 690.074 861.052C695.411 867.669 700.79 874.372 706.084 881.075C703.437 870.103 700.833 859.173 698.229 848.201Z"></path>
<path fill="#6F7359" d="M474.556 861.094C509.01 855.885 544.147 858.191 578.9 858.319C580.48 863.783 582.059 869.291 583.81 874.756C543.421 873.176 503.118 880.605 462.73 875.823C466.273 870.657 466.914 861.649 474.556 861.094Z"></path>
</svg>
