<svg xmlns="http://www.w3.org/2000/svg" fill="none" viewBox="0 0 1024 1024" height="1024" width="1024">
<rect fill="white" height="1024" width="1024"></rect>
<path fill="#311728" d="M827.174 158.858C828.502 159.313 831.157 160.299 832.484 160.792C845.001 166.216 846.252 186.736 832.295 191.211C810.94 197.621 786.856 199.252 765.198 193.715C786.628 189.846 809.31 192.842 829.981 185.56C841.398 179.226 830.55 166.823 827.174 158.858Z"></path>
<path fill="#442031" d="M661.234 72C669.465 72.7207 677.581 74.3517 685.622 76.4378C695.256 98.8918 683.498 124.987 667.037 141.031C672.84 124.153 680.123 107.312 681.298 89.3336C681.905 78.3342 668.365 76.6653 661.234 72Z"></path>
<path fill="#442031" d="M747.561 87.9682C756.626 87.3613 767.625 86.0717 773.239 95.0989C777.145 113.646 764.629 129.956 754.008 143.762C745.816 152.561 737.547 164.319 724.234 164.395C744.792 146.682 766.184 124.532 766.866 95.6678C760.419 93.0886 753.971 90.5474 747.561 87.9682Z"></path>
<path fill="#442031" d="M211.053 267.107C221.408 271.583 225.163 282.886 231.459 291.344C239.69 304.24 251.486 314.405 259.299 327.566C243.824 324.153 233.962 310.233 224.746 298.475C218.184 289.068 211.698 278.903 211.053 267.107Z"></path>
<path fill="#442031" d="M191.065 316.794C209.992 319.525 227.326 330.335 241.625 342.662C222.888 341.714 199.637 335.076 191.065 316.794Z"></path>
<path fill="#442031" d="M530.075 416.927C546.612 417.041 563.187 417.382 579.725 418.179C597.741 420.151 615.795 422.199 633.736 424.817C640.639 425.385 646.556 429.065 652.055 433.009C628.312 433.199 605.175 423.186 581.355 427.661C564.515 423.489 547.143 423.148 529.924 421.858C529.962 420.644 530.037 418.179 530.075 416.927Z"></path>
<path fill="#442031" d="M550.975 445.336C564.629 450.077 577.677 456.563 589.776 464.49C625.543 496.692 645.342 544.028 645.987 591.932L644.015 589.429C643.142 580.326 642.08 571.261 640.411 562.347C636.239 543.231 628.54 524.797 618.033 508.336C601.193 481.976 575.666 463.58 550.975 445.336Z"></path>
<path fill="#442031" d="M397.437 448.75C407.944 471.925 404.53 497.413 401.003 521.725C402.634 531.625 403.544 544.369 413.823 549.452C425.657 556.393 439.615 551.765 450.5 545.317C456.152 542.017 461.651 538.528 467.227 535.152L469.01 537.921C463.662 547.669 454.217 553.927 445.38 560.223C431.536 560.413 415.188 561.627 404.758 550.665C395.731 542.131 394.403 528.704 396.451 517.06C400.586 494.53 399.106 471.469 397.437 448.75Z"></path>
<path fill="#442031" d="M590.231 451.86C618.374 482.279 654.407 504.961 677.999 539.666L675.154 539.059C646.707 515.808 622.546 487.437 592.393 466.197C591.71 461.38 590.989 456.601 590.231 451.86Z"></path>
<path fill="#442031" d="M195.427 488.044C198.461 474.959 208.55 463.883 222.47 462.821C219.588 471.697 210.788 475.869 204.378 481.824C210.56 482.127 216.705 482.507 222.887 482.962C217.615 494.189 204.719 494.606 195.427 488.044Z"></path>
<path fill="#442031" d="M886.381 471.09C888.922 471.849 894.043 473.366 896.622 474.124C895.446 479.245 896.698 486.338 890.591 488.689C875.457 495.592 858.162 495.061 842.042 498.02C839.387 498.323 834.077 498.93 831.422 499.234C826.946 499.499 822.508 499.537 818.071 499.385C818.526 496.882 819.436 491.913 819.891 489.41C823.494 489.637 827.098 489.941 830.701 490.282C850.31 493.999 870.033 489.903 888.657 483.607C887.898 479.435 887.139 475.224 886.381 471.09Z"></path>
<path fill="#442031" d="M221.446 510.878C223.457 501.661 234.266 503.823 241.283 502.875C236.504 508.791 223.76 511.826 228.918 521.194C235.404 519.981 241.094 516.453 247.086 513.912C245.038 520.701 241.89 529.463 233.053 528.553C223.343 530.639 216.895 518.767 221.446 510.878Z"></path>
<path fill="#442031" d="M781.545 551.614C801.42 553.586 820.081 561.399 838.553 568.492C848.338 573.233 861.158 577.633 862.941 589.998C843.483 583.777 826.605 571.64 807.071 565.609C798.272 561.665 786.21 561.323 781.545 551.614Z"></path>
<path fill="#442031" d="M764.818 570.35C780.331 576.078 792.317 587.836 804.795 598.228C814.012 606.307 824.291 615.107 825.543 628.23C815.567 624.627 809.271 615.79 801.875 608.811C789.472 596.029 774.528 585.522 764.818 570.35Z"></path>
<path fill="#442031" d="M716.345 642.833C715.169 636.233 722.338 632.971 725.751 628.571C739.595 633.578 742.326 649.584 733.83 660.773C726.434 656.904 716.914 652.391 716.345 642.833ZM724.045 639.457C720.972 643.516 724.5 650.343 729.582 650.305C737.13 648.598 729.962 634.488 724.045 639.457Z"></path>
<path fill="#F5EAE6" d="M390.951 223.299C407.526 209.19 426.453 198.114 446.859 190.528C448.49 190.832 451.676 191.439 453.269 191.704C450.273 193.98 447.276 196.18 444.242 198.418C426.567 206.876 410.257 218.596 390.951 223.299Z"></path>
<path fill="#F2ECEA" d="M539.444 365.306C542.516 353.624 554.578 354.648 564.212 355.52C557.195 361.399 548.319 363.864 539.444 365.306Z"></path>
<path fill="#F4ECEA" d="M378.776 303.102C392.999 286.451 420.612 282.962 436.618 298.93C447.276 308.071 443.976 323.319 444.811 335.721C444.28 336.821 443.218 339.097 442.687 340.197C434.153 330.677 422.508 318.615 408.361 324.229C394.517 328.022 382.493 351.348 397.779 360.223C405.63 364.585 414.96 364.206 423.608 365.571C423.874 372.475 423.343 379.605 425.05 386.432C431.384 394.473 440.525 399.556 448.717 405.435C447.845 411.466 446.935 417.534 446.024 423.603C433.47 429.975 418.829 435.854 404.795 430.696C396.299 426.22 390.8 418.027 384.048 411.542C387.955 424.134 393.53 436.12 397.437 448.75C399.106 471.47 400.585 494.53 396.451 517.06C394.82 525.063 393.037 533.028 391.293 541.031C373.921 534.621 357.574 525.443 343.464 513.419C320.441 494.075 298.025 471.583 288.429 442.302C306.976 431.834 326.586 423.262 346.612 416.017L349.002 415.638C349.419 411.048 349.874 406.421 350.329 401.832C362.96 399.404 375.704 397.773 388.6 397.849C379.383 394.966 370.545 391.06 362.58 385.598C368.156 382.943 373.769 380.478 379.421 378.05C378.473 377.102 376.5 375.205 375.514 374.257C377.335 371.868 380.9 367.051 382.683 364.623C384.276 364.737 387.386 364.889 388.941 364.964C381.507 358.289 371.949 352.675 368.308 342.89C365.728 328.932 368.421 313.343 378.776 303.102Z"></path>
<path fill="#F4ECEA" d="M546.157 348.921C564.136 322.863 605.479 315.694 629.336 337.655C647.239 352.865 652.586 383.057 637.111 401.642C631.536 409.417 620.802 407.028 612.609 407.18C594.669 405.624 576.425 405.738 559.015 400.732C565.312 396.483 572.518 393.525 577.98 388.139C581.887 380.06 583.29 371.071 585.528 362.461C575.477 351.196 560.608 348.465 546.157 348.921Z"></path>
<path fill="#2F1C2A" d="M566.108 476.4C590.231 497.603 606.502 528.173 610.674 559.958C601.42 549.11 599.865 534.356 593.568 521.953C586.741 505.416 574.111 492.292 566.108 476.4Z"></path>
<path fill="#C6603A" d="M675.154 539.059L677.999 539.666C685.357 541.031 692.753 542.169 700.073 543.762C692.715 543.345 685.357 543.497 678.037 543.724C687.746 564.433 708.19 577.14 718.279 597.697C694.46 615.486 663.737 620.113 634.684 618.634C637.908 608.924 641.207 599.252 644.014 589.429L645.987 591.932C649.969 591.249 654.862 592.577 658.124 589.694C671.702 576.76 677.468 557.455 675.154 539.059Z"></path>
<path fill="#F5ECE9" d="M362.808 584.953C412.154 595.573 457.896 618.407 506.977 630.165C519.493 632.933 531.934 636.954 542.251 644.881C518.848 675.642 501.856 710.498 481.261 743.08C464.724 772.437 445.266 801.035 417.919 821.441L415.302 822.769C382.911 812.983 350.178 798.001 329.469 770.161C310.807 747.555 303.98 716.87 309.101 688.234C316.648 673.328 318.355 656.222 326.624 641.619C337.244 621.858 350.519 603.652 362.808 584.953Z"></path>
<path fill="#F4EDE9" d="M724.045 639.457C729.962 634.488 737.13 648.598 729.582 650.305C724.5 650.343 720.972 643.516 724.045 639.457Z"></path>
<path fill="#E1814C" d="M652.738 78.7514C654.862 77.0825 659.11 73.6689 661.234 72C668.365 76.6653 681.905 78.3342 681.298 89.3336C680.123 107.312 672.84 124.153 667.037 141.031L665.747 144.407C658.958 123.166 659.375 100.219 652.738 78.7514Z"></path>
<path fill="#DE894D" d="M735.689 113.381C737.092 103.861 741.606 95.3643 747.561 87.9682C753.971 90.5473 760.419 93.0886 766.867 95.6678C766.184 124.532 744.792 146.682 724.234 164.395L721.997 166.33C725.334 148.351 732.617 131.435 735.689 113.381Z"></path>
<path fill="#341729" d="M300.376 171.564C324.765 154.382 357.611 150.741 385.641 160.261C401.913 165.571 414.315 177.86 426.111 189.694C428.69 189.391 433.925 188.784 436.542 188.443C439.121 188.974 444.279 189.998 446.859 190.529C426.453 198.114 407.526 209.19 390.951 223.299C365.121 240.102 342.895 261.835 322.641 284.896C308.455 301.395 309.631 324.608 312.172 344.862C304.435 341.297 296.621 335.38 287.67 336.935C282.246 339.817 277.088 346.569 280.426 352.827C287.594 365.495 298.063 375.888 305.838 388.139C291.994 387.608 278.264 385.295 264.382 385.484C258.578 389.163 256.037 396.18 251.979 401.566C261.802 403.69 271.854 405.056 281.943 403.842C309.214 400.959 336.978 402.363 363.794 395.801C348.736 388.177 331.592 387.912 315.245 385.332C332.161 382.07 349.532 385.863 366.373 381.995C350.405 373.954 330.378 373.992 317.558 360.299C337.054 364.244 355.942 370.73 375.514 374.257C376.5 375.205 378.472 377.102 379.421 378.05C373.769 380.478 368.156 382.943 362.58 385.598C370.545 391.06 379.383 394.966 388.599 397.849C375.704 397.773 362.959 399.404 350.329 401.832C330.189 405.094 309.783 406.611 289.87 411.276C276.329 415.145 261.689 419.696 252.32 430.923C245.796 438.699 251.069 449.281 251.903 458.118C263.585 451.595 274.509 443.933 285.812 436.84C304.397 425.992 324.841 417.117 346.612 416.017C326.585 423.262 306.976 431.834 288.429 442.302C277.353 448.636 267.568 456.942 257.896 465.211C271.816 492.368 296.887 511.029 321.086 528.515C318.886 530.563 316.686 532.687 314.524 534.811C289.908 512.736 261.423 493.279 245.227 463.504C236.542 447.271 232.18 427.51 238.211 409.645C250.272 371.299 271.361 336.176 298.328 306.402C281.033 291.572 269.843 270.559 265.975 248.257C262.296 219.051 275.988 188.139 300.376 171.564ZM297.721 218.672C290.553 240.671 299.238 266.576 318.962 278.979C320.744 277.045 324.31 273.138 326.054 271.204C319.037 255.539 314.676 237.599 319.796 220.72C326.623 202.78 344.602 186.774 364.818 189.391C379.193 190.756 390.079 201.225 400.206 210.517C406.578 206.08 412.684 201.3 418.45 196.142C408.209 185.408 396.565 175.016 381.772 171.374C347.484 163.068 307.052 183.701 297.721 218.672ZM347.56 195.421C340.581 201.376 332.995 206.99 328.065 214.917C317.634 230.316 318.81 252.353 330.378 266.842C342.781 254.022 355.791 241.771 370.469 231.606C379.155 226.561 387.158 220.493 394.782 214.007C384.731 198.304 365.69 190.415 347.56 195.421Z"></path>
<path fill="#E2894D" d="M796.375 166.785C806.806 159.806 820.498 153.927 832.484 160.792C831.156 160.299 828.501 159.313 827.174 158.858C830.55 166.823 841.397 179.226 829.981 185.56C809.309 192.842 786.628 189.846 765.198 193.715L761.405 194.132C769.863 181.426 784.162 175.053 796.375 166.785Z"></path>
<path fill="#D57340" d="M297.722 218.672C307.053 183.701 347.485 163.068 381.773 171.374C396.565 175.016 408.21 185.408 418.45 196.142C412.685 201.3 406.579 206.08 400.207 210.517C390.08 201.225 379.194 190.756 364.819 189.391C344.603 186.774 326.624 202.78 319.797 220.72C314.676 237.599 319.038 255.539 326.055 271.204C324.31 273.138 320.745 277.045 318.962 278.979C299.239 266.576 290.554 240.671 297.722 218.672Z"></path>
<path fill="#2F1A2A" d="M458.655 180.25C521.845 163.978 587.462 181.312 645.835 206.497C683.916 223.224 717.597 249.926 741.682 283.91C751.733 285.124 761.556 280.952 771.646 280.876C799.03 279.624 828.881 287.665 847.011 309.436C862.22 328.363 869.844 353.282 868.175 377.481C865.862 407.407 845.304 435.475 816.781 445.45C804.454 450.002 791.217 450.988 778.207 450.76C777.449 479.434 781.924 509.437 770.659 536.745C760.684 562.954 746.233 588.974 723.324 605.966C699.201 621.176 669.92 625.879 641.89 627.358C641.435 632.782 640.98 638.282 640.525 643.781C664.723 662.898 698.101 662.367 722.831 680.345C740.24 692.824 740.999 719.943 728.217 735.987C718.545 750.248 699.884 752.676 684.143 754.572C663.13 756.355 645.531 742.738 630.322 730.108C622.433 757.569 610.675 783.664 596.565 808.507C624.746 810.328 652.965 808.697 680.768 803.994C710.352 805.018 737.965 787.229 767.663 795.005C784.466 797.432 793.986 813.628 799.144 828.268C799.372 840.899 798.651 853.567 797.968 866.235C773.049 867.601 748.016 864.946 723.172 867.904C689.719 871.28 657.555 883.493 623.722 883.797C603.582 883.873 583.062 883.152 563.794 876.894C551.733 873.252 539.823 867.487 526.889 868.36C508.531 869.194 489.984 870.294 471.74 867.07C427.705 859.674 383.479 848.257 344.905 824.969C314.372 805.473 285.395 782.488 263.434 753.396C253.382 761.589 240.98 771.185 227.211 766.065C214.05 758.213 204.985 745.317 194.365 734.584C178.321 716.112 158.711 699.689 148.736 676.855C141.871 651.519 167.359 627.889 191.748 628.496C211.926 626.334 229.184 638.85 245.114 649.357C258.806 606.535 282.777 566.672 314.524 534.811C316.686 532.687 318.886 530.563 321.086 528.515C340.999 541.6 361.177 554.42 381.886 566.254C405.933 579.909 432.635 587.684 457.631 599.253C428.653 592.312 400.623 581.729 373.921 568.644C355.981 559.275 339.292 547.555 320.593 539.666C324.272 563.523 333.602 586.091 336.106 610.176C319.189 600.428 305.687 585.864 288.656 576.306C288.239 596.636 293.511 616.586 301.439 635.171C306.028 647.081 313.121 658.915 311.604 672.152C291.88 659.636 280.54 638.13 262.865 623.186C256.872 653.529 279.516 677.007 288.277 703.861C274.319 697.451 261.651 688.576 247.162 683.379C247.921 716.302 267.037 745.28 288.543 768.796C289.491 769.896 291.312 772.019 292.26 773.119C318.583 801.263 352.036 822.465 387.462 837.409C418.526 849.357 451.259 856.829 484.257 860.925C504.625 862.405 527.572 865.363 544.83 851.898C546.005 851.215 548.319 849.85 549.495 849.167C525.562 832.175 494.953 816.852 486.343 786.508C507.545 793.449 524.348 812.111 547.636 812.528C557.194 812.755 567.018 813.742 576.425 811.466C586.514 806.801 590.838 795.536 596.641 786.812C564.591 761.058 520.858 757.113 488.998 731.397C530.113 738.528 571.608 748.541 613.633 742.397C612.723 735.532 615.34 727.036 609.309 721.991C592.431 705.037 569.104 697.375 547.674 688.082C564.894 673.138 582.114 658.232 598.461 642.34C604.227 636.651 609.006 630.127 613.633 623.527C600.51 621.555 586.969 624.437 574.073 620.948C569.37 619.696 564.704 618.331 560.001 617.117C546.802 613.741 533.527 610.631 520.745 605.89C533.375 606.725 545.93 608.659 558.408 610.859C583.631 615.107 609.157 617.383 634.684 618.634C663.737 620.114 694.46 615.486 718.279 597.697C708.19 577.14 687.746 564.434 678.037 543.724C685.357 543.497 692.715 543.345 700.073 543.762C713.728 546.683 726.245 553.169 738.799 559.086C740.013 550.248 745.93 539.628 738.761 531.928C721.921 511.409 694.991 504.051 674.888 487.589C704.815 479.738 735.006 490.32 765.16 489.334C765.274 481.179 765.349 473.1 765.387 464.983C737.661 458.915 711.642 447.005 683.954 440.975L680.047 440.254C704.435 424.437 734.134 424.096 762.163 423.527C762.505 385.901 749.609 350.02 734.513 316.112C756.664 308.109 783.821 303.406 804.227 318.274C818.716 328.401 822.85 348.655 815.264 364.32C807.868 385.788 785.604 395.27 766.98 404.828C767.398 410.821 767.891 416.852 768.422 422.958C791.672 418.862 816.743 411.465 831.536 391.704C857.593 358.365 837.187 301.737 796.11 292.216C777.183 288.006 757.839 291.913 738.875 293.658C716.686 262.784 688.581 234.981 653.345 219.582C657.1 229.14 661.196 238.585 664.951 248.143C663.51 247.953 660.551 247.536 659.072 247.346C640.942 230.771 618.071 219.431 593.189 218.71C612.95 237.75 634.38 257.815 638.932 286.413C629.715 274.276 623.646 258.535 609.764 250.95C591.255 242.643 570.546 242.264 550.822 238.888C558.598 219.203 575.969 206.762 593.265 196.028C578.397 192.122 563.415 188.556 548.281 185.901C540.544 201.376 533.489 217.193 526.51 233.047C519.455 225.423 513.121 215.334 502.197 213.21C488.657 211.276 475.154 214.727 461.689 215.752C477.999 202.666 498.746 198.57 518.696 194.625C500.149 184.46 479.023 193.753 459.641 195.99C463.51 191.818 467.416 187.646 471.323 183.512C467.113 182.336 462.865 181.274 458.655 180.25ZM744.45 320.019C753.478 345.09 762.315 370.312 767.891 396.446C772.708 394.928 777.563 393.449 782.38 391.97C794.858 384.422 808.058 375.129 812.04 360.261C819.171 343.762 808.74 322.598 791.483 317.933C776.007 312.774 759.736 315.96 744.45 320.019ZM168.042 642.112C171.949 645.526 175.969 648.826 179.914 652.201C172.062 652.277 164.211 652.543 156.398 653.567C157.953 657.663 160.684 660.698 164.59 662.594C161.177 664.984 157.763 667.373 154.312 669.801C156.36 674.693 158.029 679.928 161.177 684.327C178.435 707.085 198.499 727.453 217.957 748.276C224.101 754.117 230.435 763.865 240.221 761.475C246.972 758.403 252.776 753.548 257.63 748.01C255.165 734.849 247.048 723.584 241.776 711.447C240.487 701.965 237.566 692.824 234.494 683.796C240.069 676.173 241.283 665.022 238.628 656.298C228.235 645.412 214.353 636.575 199.258 634.565C188.903 637.144 178.548 639.95 168.042 642.112ZM569.939 691.42C582.948 691.003 595.693 688.234 608.133 684.631C608.626 692.293 605.289 701.889 611.964 707.768C618.26 714.216 626.415 718.388 634.077 722.977C638.704 733.218 650.31 738.528 659.982 743.231C671.589 747.403 688.164 751.424 697.115 740.311L692.791 739.135C693.36 737.201 694.422 733.294 694.991 731.36C699.125 734.735 703.259 738.187 707.394 741.676C712.931 736.935 718.469 732.194 723.931 727.377C719.607 722.105 715.321 716.871 711.149 711.523C717.824 713.685 724.424 716.074 731.099 718.312C730.151 707.199 729.127 694.682 719.759 687.134C696.394 666.084 663.51 665.515 634.949 656.487C614.809 671.014 589.283 675.642 569.939 691.42ZM707.621 807.863C703.866 825.31 708.607 843.705 715.283 859.863C740.847 860.698 766.449 859.863 792.014 859.939C792.279 854.477 792.545 849.016 792.772 843.592C792.81 840.254 792.886 833.654 792.886 830.317C786.438 830.506 779.952 830.62 773.504 830.696C778.814 827.055 784.428 823.831 789.927 820.531C786.703 817.269 783.404 814.121 780.104 811.048C774.642 814.462 769.142 817.876 763.377 820.796C766.904 814.652 771.684 809.455 776.538 804.411C771.077 802.666 765.577 800.959 760.077 799.366C754.464 805.852 748.812 812.3 742.44 818.065C744.906 812.035 747.599 806.118 750.178 800.163C735.689 800.732 721.465 803.766 707.621 807.863ZM679.971 817.762C677.088 834.716 680.502 851.898 683.688 868.549C691.312 866.539 698.936 864.604 706.559 862.632C702.122 843.895 698.632 824.893 692.45 806.611C687.822 809.645 680.957 811.352 679.971 817.762ZM594.327 813.779C583.707 823.944 579.042 838.927 567.89 848.674C560.874 854.44 552.833 858.763 545.247 863.77C561.253 871.508 578.89 876.476 596.792 876.249C610.371 858.687 606.54 834.034 607.337 813.135C603.013 813.135 598.651 813.324 594.327 813.779ZM616.364 878.866C634.608 878.145 652.852 875.945 670.451 870.901C660.855 854.098 656.152 835.361 649.248 817.496C647.617 816.965 644.356 815.828 642.687 815.297C634.342 836.689 630.018 859.825 616.364 878.866Z"></path>
<path fill="#836058" d="M436.542 188.443C443.142 184.194 450.5 180.06 458.655 180.25C462.865 181.274 467.113 182.336 471.323 183.512C467.416 187.646 463.51 191.818 459.641 195.99C454.52 196.825 449.362 197.546 444.242 198.418C447.276 196.18 450.272 193.98 453.269 191.704C451.676 191.439 448.49 190.832 446.859 190.529C444.28 189.998 439.121 188.974 436.542 188.443Z"></path>
<path fill="#E48F4E" d="M548.281 185.901C563.415 188.556 578.397 192.121 593.265 196.028C575.969 206.762 558.598 219.203 550.822 238.888C570.545 242.264 591.255 242.643 609.764 250.949C623.646 258.535 629.715 274.276 638.931 286.413C634.38 257.815 612.95 237.75 593.189 218.71C618.07 219.43 640.942 230.771 659.072 247.346C673.409 261.001 688.543 274.959 695.863 293.847C707.962 323.811 705.535 357.454 699.201 388.518C695.37 407.824 684.56 424.627 673.864 440.785C675.419 440.671 678.491 440.405 680.047 440.254L683.953 440.974C679.971 445.564 675.874 450.077 671.778 454.553C642.914 449.357 614.695 440.671 585.489 437.371C584.465 434.944 582.417 430.089 581.355 427.661C605.174 423.186 628.311 433.199 652.055 433.009C646.555 429.064 640.638 425.385 633.735 424.817C615.795 422.199 597.74 420.151 579.724 418.179C578.207 416.586 575.097 413.476 573.58 411.883C591.482 412.679 609.347 415.182 627.287 414.576C640.638 414.841 649.058 402.211 652.813 390.908C663.092 363.637 645.948 331.321 619.625 320.815C587.12 307.805 545.74 326.391 534.285 359.616C530.72 368.606 531.744 378.77 527.951 387.684C512.59 387.646 499.049 377.443 484.598 372.778C467.492 365.154 448.603 363.523 430.094 363.295C434.418 355.672 438.78 348.048 442.686 340.197C443.217 339.097 444.279 336.821 444.81 335.721C447.958 328.515 452.434 321.308 451.979 313.191C451.41 292.672 431.801 275.034 411.319 276.817C392.203 278.22 377.676 292.102 362.39 302.078C354.577 298.171 346.839 294.189 339.026 290.358C339.405 292.747 340.126 297.488 340.505 299.84C346.953 303.557 353.667 307.009 359.508 311.712C364.439 321.46 362.656 333.142 363.794 343.762C356.625 342.321 349.457 340.955 342.25 339.779C355.298 348.769 368.687 357.227 382.682 364.623C380.9 367.051 377.334 371.867 375.514 374.257C355.942 370.73 337.054 364.244 317.558 360.299C330.378 373.991 350.405 373.953 366.373 381.994C349.532 385.863 332.161 382.07 315.244 385.332C331.592 387.911 348.736 388.177 363.794 395.801C336.978 402.362 309.214 400.959 281.943 403.842C271.854 405.055 261.802 403.69 251.979 401.566C256.037 396.18 258.578 389.163 264.382 385.484C278.264 385.294 291.994 387.608 305.838 388.139C298.063 375.888 287.594 365.495 280.426 352.827C277.088 346.569 282.246 339.817 287.67 336.935C296.621 335.38 304.435 341.297 312.172 344.862C309.631 324.608 308.455 301.395 322.641 284.896C342.895 261.835 365.121 240.102 390.951 223.299C410.257 218.596 426.566 206.876 444.241 198.418C449.362 197.545 454.52 196.825 459.641 195.99C479.022 193.752 500.149 184.46 518.696 194.625C498.745 198.569 477.998 202.666 461.689 215.751C475.154 214.727 488.656 211.276 502.197 213.21C513.121 215.334 519.455 225.423 526.51 233.047C533.489 217.193 540.543 201.376 548.281 185.901ZM454.634 255.349C464.23 253.946 473.674 251.215 483.384 250.836C494.156 251.556 503.98 256.677 514.031 260.166C516.724 254.629 519.038 248.977 520.934 243.136C499.125 236.84 469.009 233.578 454.634 255.349ZM546.536 254.704C546.764 257.777 547.181 263.883 547.408 266.956C563.528 278.031 582.455 284.668 597.854 297.109C597.096 270.104 568.687 259.749 546.536 254.704Z"></path>
<path fill="#CAA9AA" d="M347.56 195.421C365.69 190.415 384.731 198.304 394.782 214.007C387.158 220.492 379.155 226.561 370.469 231.606C365.501 218.065 360.342 203.652 347.56 195.421Z"></path>
<path fill="#E0CECB" d="M328.065 214.917C332.996 206.99 340.582 201.376 347.561 195.421C360.343 203.652 365.501 218.065 370.47 231.606C355.791 241.771 342.782 254.022 330.379 266.842C318.811 252.353 317.635 230.316 328.065 214.917Z"></path>
<path fill="#D2663C" d="M653.345 219.582C688.581 234.981 716.687 262.783 738.875 293.658C757.84 291.913 777.183 288.006 796.11 292.216C837.187 301.737 857.593 358.365 831.536 391.704C816.744 411.465 791.672 418.862 768.422 422.958C767.891 416.852 767.398 410.821 766.981 404.828C785.604 395.27 807.868 385.788 815.264 364.32C822.85 348.655 818.716 328.401 804.227 318.274C783.821 303.405 756.664 308.109 734.513 316.112C749.609 350.02 762.505 385.901 762.163 423.527C734.134 424.096 704.435 424.437 680.047 440.254C678.492 440.406 675.42 440.671 673.865 440.785C684.561 424.627 695.37 407.824 699.201 388.518C705.535 357.455 707.963 323.811 695.863 293.847C688.543 274.959 673.409 261.001 659.072 247.346C660.551 247.536 663.51 247.953 664.951 248.143C661.196 238.585 657.1 229.14 653.345 219.582Z"></path>
<path fill="#341B32" d="M454.635 255.349C469.01 233.578 499.125 236.84 520.935 243.136C519.038 248.977 516.724 254.628 514.031 260.166C503.98 256.677 494.157 251.556 483.385 250.836C473.675 251.215 464.231 253.946 454.635 255.349Z"></path>
<path fill="#301A2A" d="M546.537 254.704C568.687 259.749 597.096 270.104 597.855 297.109C582.455 284.668 563.529 278.031 547.409 266.956C547.181 263.883 546.764 257.777 546.537 254.704Z"></path>
<path fill="#2E1420" d="M362.391 302.078C377.676 292.103 392.203 278.221 411.319 276.817C431.801 275.035 451.41 292.672 451.979 313.191C452.434 321.308 447.959 328.515 444.811 335.721C443.976 323.318 447.276 308.071 436.618 298.93C420.612 282.962 392.999 286.451 378.776 303.102C368.421 313.343 365.728 328.932 368.308 342.89C371.949 352.675 381.507 358.289 388.941 364.964C387.386 364.889 384.276 364.737 382.683 364.623C368.687 357.227 355.298 348.769 342.25 339.779C349.457 340.955 356.625 342.321 363.794 343.762C362.656 333.142 364.439 321.46 359.508 311.712C353.667 307.009 346.954 303.557 340.506 299.84C340.126 297.489 339.406 292.747 339.026 290.358C346.84 294.189 354.577 298.171 362.391 302.078Z"></path>
<path fill="#351D2C" d="M534.285 359.616C545.739 326.391 587.12 307.805 619.625 320.815C645.948 331.321 663.092 363.637 652.813 390.908C649.058 402.211 640.638 414.841 627.287 414.576C609.347 415.183 591.482 412.679 573.579 411.883C562.277 405.321 552.605 395.725 540.012 391.591C528.254 390.529 515.548 388.101 505.004 395.004C493.056 401.831 479.553 404.487 466.202 407.028C455.127 408.128 455.203 421.251 452.586 429.482C450.386 427.509 448.186 425.537 446.024 423.603C446.934 417.534 447.845 411.465 448.717 405.435C440.524 399.556 431.383 394.473 425.049 386.432C423.342 379.605 423.873 372.474 423.608 365.571C414.96 364.206 405.629 364.585 397.778 360.223C382.493 351.348 394.516 328.021 408.36 324.229C422.508 318.615 434.152 330.677 442.686 340.197C438.779 348.048 434.418 355.672 430.094 363.295C448.603 363.523 467.492 365.154 484.598 372.778C499.049 377.443 512.589 387.646 527.951 387.684C531.744 378.771 530.72 368.606 534.285 359.616ZM546.157 348.92C560.608 348.465 575.476 351.196 585.527 362.461C583.289 371.071 581.886 380.06 577.979 388.139C572.517 393.525 565.311 396.483 559.015 400.731C576.424 405.738 594.668 405.624 612.609 407.179C620.801 407.028 631.535 409.417 637.111 401.642C652.586 383.056 647.238 352.865 629.335 337.655C605.478 315.694 564.135 322.863 546.157 348.92ZM412.419 328.097C402.292 333.597 417.387 341.031 421.787 333.9C425.846 328.249 416.212 325.025 412.419 328.097ZM539.443 365.306C548.319 363.865 557.194 361.399 564.211 355.52C554.577 354.648 542.516 353.624 539.443 365.306ZM427.287 377.595C445.455 399.404 481.412 405.549 504.245 388.025L500.642 387.646C485.546 376.912 467.909 369.099 449.324 367.544C440.79 367.392 427.477 365.495 427.287 377.595Z"></path>
<path fill="#CFA4A0" d="M744.45 320.018C759.736 315.96 776.007 312.774 791.483 317.932C786.628 319.525 781.811 321.194 777.032 322.939C775.78 346.075 777.525 369.288 782.38 391.97C777.563 393.449 772.708 394.928 767.891 396.445C762.315 370.312 753.478 345.089 744.45 320.018Z"></path>
<path fill="#DAC0C6" d="M777.032 322.939C781.811 321.194 786.628 319.525 791.483 317.932C808.741 322.598 819.171 343.762 812.04 360.261C808.058 375.129 794.858 384.422 782.38 391.97C777.525 369.288 775.78 346.076 777.032 322.939Z"></path>
<path fill="#95868A" d="M412.419 328.097C416.212 325.025 425.846 328.249 421.787 333.9C417.388 341.031 402.292 333.597 412.419 328.097Z"></path>
<path fill="#422526" d="M204.188 343.876C215.301 342.662 226.301 345.279 234.076 353.699C223.759 353.737 213.443 353.13 203.126 353.055C203.391 350.741 203.922 346.151 204.188 343.876Z"></path>
<path fill="#CF9B99" d="M427.288 377.595C427.477 365.495 440.791 367.392 449.325 367.543C467.91 369.099 485.547 376.912 500.643 387.646C475.989 385.711 452.131 377.86 427.288 377.595Z"></path>
<path fill="#4A2B39" d="M172.518 385.939C188.069 382.943 203.24 373.916 219.36 376.267C220.877 377.557 223.874 380.136 225.391 381.426C214.088 388.215 200.661 382.374 188.334 383.967C198.158 392.008 211.168 392.994 223.077 395.535C223.419 397.318 224.063 400.883 224.405 402.628C207.147 403.083 190.307 398.683 173.769 394.246C173.428 392.16 172.821 388.025 172.518 385.939Z"></path>
<path fill="#AB4852" d="M427.288 377.595C452.131 377.86 475.989 385.712 500.643 387.646L504.246 388.025C481.413 405.549 445.456 399.404 427.288 377.595Z"></path>
<path fill="#F0E8ED" d="M505.004 395.004C515.548 388.101 528.254 390.529 540.012 391.591C552.605 395.725 562.277 405.321 573.579 411.883C575.097 413.476 578.207 416.586 579.724 418.179C563.187 417.382 546.612 417.041 530.075 416.927C530.037 418.179 529.961 420.644 529.923 421.858C547.143 423.148 564.514 423.489 581.355 427.661C582.417 430.089 584.465 434.944 585.489 437.371C570.204 436.537 554.463 436.005 540.354 429.368C534.93 440.443 528.14 454.894 513.727 454.894C491.235 454.249 469.085 444.729 452.586 429.482C455.203 421.251 455.127 408.128 466.202 407.028C479.553 404.487 493.056 401.831 505.004 395.004Z"></path>
<path fill="#E5D7D7" d="M289.87 411.276C309.783 406.611 330.189 405.093 350.329 401.832C349.874 406.421 349.419 411.048 349.002 415.638L346.612 416.017C324.841 417.117 304.397 425.992 285.812 436.84C284.067 432.213 282.284 427.585 280.54 423.034C283.65 419.051 286.76 415.145 289.87 411.276Z"></path>
<path fill="#CB7341" d="M252.32 430.923C261.689 419.696 276.33 415.145 289.87 411.276C286.76 415.145 283.65 419.051 280.54 423.034C282.284 427.585 284.067 432.213 285.812 436.84C274.509 443.933 263.585 451.594 251.903 458.118C251.069 449.281 245.797 438.699 252.32 430.923Z"></path>
<path fill="#3F1A2D" d="M384.048 411.541C390.799 418.027 396.299 426.22 404.795 430.696C418.829 435.854 433.47 429.975 446.024 423.603C448.186 425.537 450.386 427.509 452.586 429.482C469.085 444.729 491.236 454.25 513.728 454.894C528.141 454.894 534.93 440.443 540.354 429.368C554.464 436.005 570.204 436.537 585.489 437.371C614.695 440.671 642.914 449.357 671.778 454.553C672.688 456.298 674.509 459.749 675.419 461.494C646.48 456.867 618.26 448.181 588.979 445.374C572.328 444.615 551.088 432.099 537.851 447.157C526.282 458.27 512.021 466.577 502.501 479.814C489.263 497.906 480.236 518.577 469.009 537.921L467.227 535.152C462.485 528.249 457.251 521.763 451.372 515.884C436.732 500.675 413.785 508.071 401.002 521.725C404.53 497.413 407.943 471.924 397.437 448.75C393.53 436.119 387.955 424.134 384.048 411.541Z"></path>
<path fill="#3D1B29" d="M190.8 428.23C195.92 416.472 209.347 420.72 219.474 421.024C219.892 423.224 220.802 427.585 221.257 429.747C211.092 429.596 200.927 429.178 190.8 428.23Z"></path>
<path fill="#492831" d="M182.493 444.388C195.351 443.705 207.867 440.785 220.498 438.661C214.77 454.098 194.061 449.736 180.862 452.391C181.279 450.381 182.076 446.398 182.493 444.388Z"></path>
<path fill="#CCA7A0" d="M257.896 465.211C267.568 456.942 277.354 448.636 288.429 442.302C298.025 471.583 320.441 494.075 343.464 513.419C357.574 525.442 373.921 534.621 391.293 541.031C393.037 533.028 394.82 525.063 396.451 517.06C394.403 528.704 395.73 542.131 404.757 550.665C415.188 561.627 431.535 560.413 445.379 560.223C442.876 562.12 440.411 564.054 437.983 566.064C489.226 579.415 541.644 588.48 594.441 592.577C578.397 593.07 562.353 594.208 546.385 595.915C552.795 599.404 559.167 602.931 565.577 606.459C563.794 607.559 560.191 609.759 558.408 610.859C545.93 608.659 533.375 606.724 520.745 605.89C533.527 610.631 546.802 613.741 560.001 617.117C554.426 626.561 548.623 635.93 542.25 644.881C531.934 636.954 519.493 632.933 506.976 630.164C457.896 618.406 412.154 595.573 362.808 584.953C366.487 579.491 370.204 574.03 373.921 568.644C400.623 581.729 428.653 592.311 457.631 599.252C432.635 587.684 405.933 579.908 381.886 566.254C361.177 554.42 340.999 541.6 321.086 528.515C296.887 511.029 271.816 492.368 257.896 465.211Z"></path>
<path fill="#F5ECEA" d="M537.85 447.157C551.088 432.099 572.328 444.616 588.979 445.374C589.32 447.005 589.927 450.229 590.231 451.86C590.989 456.601 591.71 461.38 592.393 466.197L589.775 464.49C577.676 456.563 564.628 450.077 550.974 445.336C575.666 463.58 601.192 481.976 618.033 508.336C628.539 524.798 636.239 543.231 640.411 562.348C640.525 569.251 640.373 576.192 640.297 583.171C625.732 589.126 610.257 592.956 594.441 592.577C541.643 588.481 489.225 579.416 437.983 566.065C440.411 564.054 442.876 562.12 445.379 560.223C454.217 553.927 463.661 547.669 469.009 537.921C480.236 518.577 489.263 497.906 502.501 479.814C512.021 466.577 526.282 458.27 537.85 447.157ZM566.108 476.4C574.111 492.292 586.741 505.416 593.568 521.953C599.865 534.356 601.42 549.11 610.674 559.958C606.502 528.174 590.231 497.603 566.108 476.4Z"></path>
<path fill="#DF7F47" d="M683.953 440.974C711.642 447.005 737.661 458.915 765.387 464.983C765.349 473.1 765.273 481.179 765.16 489.334C735.006 490.32 704.814 479.738 674.888 487.589C694.991 504.05 721.92 511.409 738.761 531.928C745.93 539.628 740.013 550.248 738.799 559.085C726.244 553.168 713.728 546.683 700.073 543.762C692.753 542.169 685.357 541.031 677.999 539.666C654.407 504.961 618.374 482.279 590.231 451.86C589.927 450.229 589.32 447.005 588.979 445.374C618.26 448.181 646.479 456.867 675.419 461.494C674.509 459.749 672.688 456.298 671.778 454.553C675.875 450.077 679.971 445.564 683.953 440.974Z"></path>
<path fill="#E48C49" d="M589.776 464.49L592.393 466.197C622.546 487.437 646.707 515.808 675.154 539.059C677.468 557.455 671.702 576.76 658.124 589.694C654.862 592.577 649.969 591.249 645.987 591.932C645.342 544.028 625.543 496.692 589.776 464.49Z"></path>
<path fill="#B3674A" d="M830.701 490.282C849.438 484.517 868.099 478.334 886.381 471.09C887.14 475.224 887.898 479.435 888.657 483.607C870.034 489.903 850.311 493.999 830.701 490.282Z"></path>
<path fill="#C08966" d="M831.422 499.233C834.077 498.93 839.387 498.323 842.042 498.02C853.003 509.588 870.678 512.698 879.288 526.732C862.941 525.86 849.703 515.24 834.228 511.333L831.497 510.498C831.422 506.705 831.422 502.95 831.422 499.233Z"></path>
<path fill="#C76778" d="M401.002 521.725C413.785 508.071 436.732 500.675 451.372 515.884C450.993 525.67 450.727 535.494 450.5 545.317C439.614 551.765 425.656 556.393 413.822 549.452C403.544 544.369 402.633 531.625 401.002 521.725Z"></path>
<path fill="#89462D" d="M834.229 511.333C849.704 515.24 862.941 525.86 879.289 526.732C887.898 526.694 897.381 542.207 885.395 544.862C865.217 539.666 850.197 523.774 834.229 511.333Z"></path>
<path fill="#874353" d="M451.373 515.884C457.252 521.763 462.486 528.249 467.227 535.152C461.651 538.528 456.152 542.017 450.5 545.317C450.728 535.493 450.993 525.67 451.373 515.884Z"></path>
<path fill="#DD8C50" d="M320.593 539.666C339.292 547.555 355.98 559.275 373.921 568.644C370.204 574.03 366.487 579.491 362.808 584.953C350.519 603.652 337.243 621.858 326.623 641.619C318.355 656.222 316.648 673.328 309.1 688.234C297.039 714.898 291.463 743.876 292.26 773.119C291.311 772.019 289.491 769.896 288.542 768.796C290.932 747.138 288.467 725.481 288.277 703.861C279.515 677.007 256.872 653.529 262.864 623.186C280.539 638.13 291.88 659.635 311.603 672.152C313.121 658.915 306.028 647.081 301.438 635.171C293.511 616.586 288.239 596.635 288.656 576.305C305.686 585.864 319.189 600.428 336.106 610.176C333.602 586.091 324.272 563.523 320.593 539.666Z"></path>
<path fill="#CB9697" d="M640.411 562.348C642.08 571.261 643.142 580.326 644.014 589.429C641.207 599.252 637.907 608.924 634.683 618.634C609.157 617.383 583.631 615.107 558.408 610.859C560.191 609.759 563.794 607.559 565.577 606.459C559.167 602.931 552.795 599.404 546.385 595.915C562.353 594.208 578.397 593.07 594.441 592.577C610.257 592.956 625.732 589.125 640.297 583.171C640.373 576.192 640.525 569.251 640.411 562.348Z"></path>
<path fill="#4B1E26" d="M752.719 595.839C755.147 595.725 759.964 595.535 762.391 595.422C774.187 609.645 781.242 627.699 777.221 646.36C761.405 643.288 753.933 625.082 748.888 611.427C756.929 616.889 763.491 624.172 771.266 630.013C768.801 616.851 759.926 606.611 752.719 595.839Z"></path>
<path fill="#E0914F" d="M560.001 617.117C564.705 618.331 569.37 619.696 574.073 620.948C570.508 628.344 566.942 635.74 563.339 643.136C575.059 642.757 586.779 642.416 598.461 642.34C582.114 658.232 564.894 673.138 547.674 688.082C569.104 697.375 592.431 705.037 609.309 721.991C615.34 727.035 612.723 735.532 613.633 742.397C571.608 748.541 530.113 738.528 488.998 731.397C520.859 757.113 564.591 761.058 596.641 786.812C590.838 795.536 586.514 806.8 576.425 811.466C567.018 813.742 557.195 812.755 547.636 812.528C524.348 812.11 507.545 793.449 486.343 786.508C494.953 816.852 525.562 832.175 549.495 849.167C548.319 849.85 546.006 851.215 544.83 851.898C524.007 849.357 502.615 848.295 482.854 840.519C461.803 832.327 440.07 825.917 417.919 821.441C445.266 801.035 464.723 772.437 481.261 743.079C501.856 710.498 518.848 675.642 542.251 644.881C548.623 635.93 554.426 626.561 560.001 617.117Z"></path>
<path fill="#C7693D" d="M574.073 620.948C586.969 624.437 600.51 621.555 613.633 623.527C609.006 630.127 604.227 636.65 598.462 642.34C586.78 642.416 575.059 642.757 563.339 643.136C566.943 635.74 570.508 628.344 574.073 620.948Z"></path>
<path fill="#F6EDE8" d="M168.042 642.112C178.549 639.95 188.903 637.144 199.258 634.564C214.354 636.575 228.236 645.412 238.628 656.298C241.283 665.021 240.07 676.173 234.494 683.796C229.601 690.586 224.557 697.261 219.588 704.051C200.775 690.813 185.641 672.645 164.591 662.594C160.684 660.698 157.953 657.663 156.398 653.567C164.211 652.543 172.063 652.277 179.914 652.201C175.969 648.826 171.949 645.526 168.042 642.112Z"></path>
<path fill="#E7884B" d="M569.939 691.42C589.283 675.642 614.809 671.014 634.949 656.487C663.51 665.514 696.394 666.083 719.759 687.134C729.127 694.682 730.151 707.199 731.099 718.312C724.424 716.074 717.824 713.684 711.149 711.523C715.321 716.871 719.607 722.105 723.931 727.377C718.469 732.194 712.931 736.935 707.394 741.676C703.26 738.187 699.125 734.735 694.991 731.36C694.422 733.294 693.36 737.201 692.791 739.135C673.068 733.787 656.872 720.398 639.918 709.55C629.525 700.978 619.398 692.065 608.133 684.631C595.693 688.234 582.948 691.003 569.939 691.42Z"></path>
<path fill="#D5AFAA" d="M164.591 662.594C185.642 672.645 200.775 690.813 219.588 704.051C224.557 697.261 229.602 690.586 234.494 683.796C237.567 692.823 240.487 701.965 241.777 711.447C239.767 726.884 229.45 738.718 217.957 748.276C198.5 727.453 178.435 707.085 161.177 684.327C158.029 679.928 156.36 674.693 154.312 669.801C157.764 667.373 161.177 664.984 164.591 662.594Z"></path>
<path fill="#D67A41" d="M247.162 683.379C261.651 688.576 274.32 697.451 288.277 703.861C288.467 725.481 290.933 747.138 288.543 768.796C267.037 745.28 247.921 716.302 247.162 683.379Z"></path>
<path fill="#B44E37" d="M608.133 684.631C619.398 692.065 629.525 700.978 639.918 709.55C637.908 713.988 635.935 718.464 634.077 722.977C626.415 718.388 618.26 714.215 611.964 707.768C605.289 701.889 608.626 692.293 608.133 684.631Z"></path>
<path fill="#CAA29D" d="M292.259 773.119C291.463 743.876 297.039 714.898 309.1 688.234C303.98 716.87 310.807 747.555 329.468 770.161C350.177 798.001 382.91 812.983 415.301 822.769C405.895 827.434 396.64 832.365 387.461 837.409C352.036 822.465 318.582 801.263 292.259 773.119Z"></path>
<path fill="#C6816E" d="M241.776 711.447C247.048 723.584 255.165 734.849 257.63 748.01C252.775 753.548 246.972 758.403 240.221 761.476C230.435 763.865 224.101 754.117 217.957 748.276C229.449 738.718 239.766 726.884 241.776 711.447Z"></path>
<path fill="#D1673C" d="M639.918 709.55C656.873 720.398 673.068 733.787 692.792 739.135L697.116 740.311C688.164 751.424 671.589 747.403 659.983 743.231C650.311 738.528 638.705 733.218 634.077 722.977C635.936 718.464 637.908 713.988 639.918 709.55Z"></path>
<path fill="#EDE7EC" d="M707.621 807.862C721.465 803.766 735.689 800.731 750.178 800.163C747.598 806.117 744.905 812.034 742.44 818.065C748.812 812.3 754.464 805.852 760.077 799.366C765.577 800.959 771.076 802.666 776.538 804.411C771.683 809.455 766.904 814.651 763.377 820.796C769.142 817.875 774.642 814.462 780.104 811.048C783.403 814.12 786.703 817.269 789.927 820.53C784.427 823.83 778.814 827.054 773.504 830.696C779.952 830.62 786.438 830.506 792.886 830.316C792.886 833.654 792.81 840.254 792.772 843.591C766.108 836.802 738.533 836.461 711.452 832.706C710.238 824.399 708.987 816.093 707.621 807.862Z"></path>
<path fill="#CE6F3C" d="M679.971 817.762C680.957 811.352 687.822 809.645 692.45 806.611C698.632 824.892 702.122 843.895 706.559 862.632C698.936 864.604 691.312 866.539 683.688 868.549C680.502 851.898 677.089 834.716 679.971 817.762Z"></path>
<path fill="#D29BA5" d="M715.283 859.863C708.607 843.706 703.866 825.31 707.621 807.863C708.986 816.093 710.238 824.4 711.452 832.706C738.533 836.461 766.108 836.803 792.772 843.592C792.544 849.016 792.279 854.477 792.013 859.939C766.449 859.863 740.847 860.698 715.283 859.863Z"></path>
<path fill="#93A281" d="M165.387 813.59C183.555 818.748 192.582 836.119 202.634 850.494C212.381 848.067 222.129 845.753 231.915 843.44C225.619 849.812 218.981 856.943 217.691 866.235C224.367 880.459 240.411 886.11 254.141 891.192C315.093 910.953 379.611 915.05 443.18 917.895C528.672 920.739 614.999 920.549 699.315 904.468C731.858 898.095 765.919 892.482 794.062 873.821C800.737 870.104 803.923 863.011 805.365 855.88C809.006 846.133 808.892 832.63 819.854 828.003C821.295 834.375 822.547 840.86 823.722 847.346C833.319 838.395 842.535 826.751 856.986 826.827C855.962 841.202 848.263 853.567 842.801 866.538C857.517 858.649 875.192 839.571 892.336 852.467C890.895 862.177 880.692 866.88 874.434 873.442C883.802 879.283 902.615 881.558 899.808 896.199C899.694 903.406 892.109 906.592 886.761 909.664C865.027 919.487 841.17 923.205 818.033 928.287C694.043 951.5 567.398 953.586 441.663 951.272C346.65 947.024 249.779 944.217 158.674 914.102C146.309 908.905 130.568 904.809 124.348 891.837C121.162 876.666 140.657 872.986 150.291 866.576C143.312 859.066 136.447 851.405 130.151 843.364C148.622 834.754 164.06 850.457 180.028 857.17C173.921 843.06 164.022 829.785 165.387 813.59Z"></path>
<path fill="#CC693E" d="M594.327 813.779C598.651 813.324 603.013 813.135 607.337 813.135C606.54 834.034 610.371 858.687 596.793 876.248C578.89 876.476 561.253 871.507 545.247 863.77C552.833 858.763 560.874 854.439 567.891 848.674C579.042 838.926 583.707 823.944 594.327 813.779Z"></path>
<path fill="#CB6B3B" d="M616.364 878.866C630.018 859.825 634.342 836.689 642.687 815.297C644.356 815.828 647.618 816.966 649.249 817.497C656.152 835.361 660.855 854.098 670.451 870.901C652.852 875.945 634.608 878.145 616.364 878.866Z"></path>
<path fill="#CD5E3C" d="M415.302 822.768L417.919 821.441C440.07 825.917 461.803 832.326 482.854 840.519C502.615 848.295 524.007 849.357 544.83 851.898C527.572 865.363 504.625 862.404 484.257 860.925C451.259 856.829 418.526 849.357 387.462 837.409C396.641 832.364 405.896 827.434 415.302 822.768Z"></path>
<path fill="#798167" d="M344.905 824.968C383.479 848.257 427.705 859.673 471.74 867.07C489.984 870.294 508.531 869.194 526.889 868.359C539.823 867.487 551.733 873.252 563.794 876.893C583.062 883.152 603.582 883.872 623.722 883.796C657.555 883.493 689.719 871.28 723.172 867.904C748.016 864.946 773.049 867.601 797.968 866.235C798.651 853.567 799.372 840.899 799.144 828.268C801.382 837.409 803.772 846.512 805.365 855.88C803.923 863.011 800.737 870.104 794.062 873.821C765.918 892.482 731.858 898.095 699.315 904.468C614.998 920.549 528.672 920.739 443.18 917.895C379.61 915.05 315.093 910.953 254.141 891.192C240.411 886.11 224.367 880.459 217.691 866.235C218.981 856.943 225.618 849.812 231.915 843.44C268.327 831.037 307.356 831.682 344.905 824.968Z"></path>
</svg>
